M48
; DRILL file {KiCad 5.1.6} date Thu Aug 27 20:26:12 2020
; FORMAT={-:-/ absolute / inch / decimal}
; #@! TF.CreationDate,2020-08-27T20:26:12+01:00
; #@! TF.GenerationSoftware,Kicad,Pcbnew,5.1.6
; #@! TF.FileFunction,Plated,1,2,PTH
FMAT,2
INCH
T1C0.0157
T2C0.0276
T3C0.0300
T4C0.0394
%
G90
G05
T1
X3.423Y-3.227
X3.466Y-3.393
X3.467Y-3.895
X3.468Y-3.3
X3.51Y-2.86
X3.67Y-3.95
X3.685Y-2.67
X3.69Y-3.11
X3.72Y-2.67
X3.724Y-3.354
X3.73Y-3.11
X3.75Y-2.34
X3.755Y-2.67
X3.765Y-3.595
X3.79Y-2.67
X3.79Y-2.86
X3.8Y-2.34
X3.8Y-4.28
X3.81Y-3.595
X3.81Y-4.01
X3.81Y-3.55
X3.89Y-2.44
X3.915Y-2.67
X3.93Y-2.44
X3.94Y-4.23
X3.95Y-2.67
X3.96Y-4.0
X3.985Y-2.67
X3.997Y-3.597
X4.0Y-3.55
X4.0Y-4.0
X4.04Y-3.597
X4.09Y-2.79
X4.09Y-2.83
X4.19Y-3.65
X4.272Y-3.543
X4.273Y-3.495
X4.3Y-3.651
T2
X3.61Y-4.2
X3.93Y-3.95
X3.56Y-2.94
X4.05Y-4.17
X3.89Y-3.73
X3.75Y-4.2
X3.72Y-2.94
T3
X3.75Y-4.325
X3.75Y-4.425
X3.85Y-4.325
X3.85Y-4.425
X3.95Y-4.325
X3.95Y-4.425
X4.05Y-4.325
X4.05Y-4.425
T4
X3.55Y-3.225
X3.55Y-3.325
X3.55Y-3.425
X3.55Y-3.525
X3.55Y-3.625
T0
M30
