M48
; DRILL file {KiCad 5.1.6} date Fri Aug 14 17:13:21 2020
; FORMAT={-:-/ absolute / inch / decimal}
; #@! TF.CreationDate,2020-08-14T17:13:21+01:00
; #@! TF.GenerationSoftware,Kicad,Pcbnew,5.1.6
; #@! TF.FileFunction,Plated,1,2,PTH
FMAT,2
INCH
T1C0.0157
T2C0.0276
T3C0.0300
T4C0.0394
%
G90
G05
T1
X3.51Y-2.86
X3.67Y-3.95
X3.69Y-3.11
X3.73Y-3.11
X3.73Y-3.36
X3.75Y-2.34
X3.79Y-2.86
X3.8Y-2.34
X3.8Y-4.28
X3.81Y-4.01
X3.83Y-3.55
X3.89Y-2.44
X3.93Y-2.44
X3.96Y-4.0
X4.0Y-3.55
X4.0Y-3.59
X4.0Y-4.0
X4.04Y-3.59
X4.09Y-2.79
X4.09Y-2.83
X4.27Y-3.5
X4.27Y-3.54
X4.3Y-3.63
X4.3Y-3.67
T2
X3.93Y-3.95
X3.56Y-2.94
X3.61Y-4.2
X4.05Y-4.17
X3.75Y-4.2
X3.72Y-2.94
X3.89Y-3.73
T3
X3.75Y-4.325
X3.75Y-4.425
X3.85Y-4.325
X3.85Y-4.425
X3.95Y-4.325
X3.95Y-4.425
X4.05Y-4.325
X4.05Y-4.425
T4
X3.55Y-3.225
X3.55Y-3.325
X3.55Y-3.425
X3.55Y-3.525
X3.55Y-3.625
T0
M30
