%TF.GenerationSoftware,KiCad,Pcbnew,5.1.6*%
%TF.CreationDate,2020-08-27T20:26:27+01:00*%
%TF.ProjectId,wireless-temperaure-sensor,77697265-6c65-4737-932d-74656d706572,0.2*%
%TF.SameCoordinates,Original*%
%TF.FileFunction,Copper,L1,Top*%
%TF.FilePolarity,Positive*%
%FSLAX46Y46*%
G04 Gerber Fmt 4.6, Leading zero omitted, Abs format (unit mm)*
G04 Created by KiCad (PCBNEW 5.1.6) date 2020-08-27 20:26:27*
%MOMM*%
%LPD*%
G01*
G04 APERTURE LIST*
%TA.AperFunction,ComponentPad*%
%ADD10C,1.500000*%
%TD*%
%TA.AperFunction,ComponentPad*%
%ADD11C,1.524000*%
%TD*%
%TA.AperFunction,ComponentPad*%
%ADD12R,1.524000X1.524000*%
%TD*%
%TA.AperFunction,SMDPad,CuDef*%
%ADD13R,1.350000X0.400000*%
%TD*%
%TA.AperFunction,ComponentPad*%
%ADD14O,1.700000X1.700000*%
%TD*%
%TA.AperFunction,ComponentPad*%
%ADD15R,1.700000X1.700000*%
%TD*%
%TA.AperFunction,ViaPad*%
%ADD16C,0.800000*%
%TD*%
%TA.AperFunction,Conductor*%
%ADD17C,0.400000*%
%TD*%
%TA.AperFunction,Conductor*%
%ADD18C,0.254000*%
%TD*%
G04 APERTURE END LIST*
%TO.P,SW1,1*%
%TO.N,/NRST*%
%TA.AperFunction,SMDPad,CuDef*%
G36*
G01*
X103232000Y-93510000D02*
X103232000Y-91910000D01*
G75*
G02*
X103432000Y-91710000I200000J0D01*
G01*
X103832000Y-91710000D01*
G75*
G02*
X104032000Y-91910000I0J-200000D01*
G01*
X104032000Y-93510000D01*
G75*
G02*
X103832000Y-93710000I-200000J0D01*
G01*
X103432000Y-93710000D01*
G75*
G02*
X103232000Y-93510000I0J200000D01*
G01*
G37*
%TD.AperFunction*%
%TO.P,SW1,2*%
%TO.N,GND*%
%TA.AperFunction,SMDPad,CuDef*%
G36*
G01*
X107432000Y-93510000D02*
X107432000Y-91910000D01*
G75*
G02*
X107632000Y-91710000I200000J0D01*
G01*
X108032000Y-91710000D01*
G75*
G02*
X108232000Y-91910000I0J-200000D01*
G01*
X108232000Y-93510000D01*
G75*
G02*
X108032000Y-93710000I-200000J0D01*
G01*
X107632000Y-93710000D01*
G75*
G02*
X107432000Y-93510000I0J200000D01*
G01*
G37*
%TD.AperFunction*%
%TD*%
D10*
%TO.P,TP7,1*%
%TO.N,/SCL*%
X94488000Y-74676000D03*
%TD*%
%TO.P,TP6,1*%
%TO.N,/SDA*%
X90424000Y-74676000D03*
%TD*%
%TO.P,CE,1*%
%TO.N,/NRF_CE*%
X102870000Y-105918000D03*
%TD*%
%TO.P,CSN,1*%
%TO.N,/NCSN*%
X99822000Y-100330000D03*
%TD*%
%TO.P,SCK,1*%
%TO.N,/SPI_SCK*%
X98806000Y-94742000D03*
%TD*%
%TO.P,MISO,1*%
%TO.N,/MISO*%
X95250000Y-106680000D03*
%TD*%
%TO.P,MOSI,1*%
%TO.N,/MOSI*%
X91694000Y-106680000D03*
%TD*%
D11*
%TO.P,U2,8*%
%TO.N,Net-(U2-Pad8)*%
X95250000Y-112395000D03*
%TO.P,U2,7*%
%TO.N,/MISO*%
X95250000Y-109855000D03*
%TO.P,U2,6*%
%TO.N,/MOSI*%
X97790000Y-112395000D03*
%TO.P,U2,5*%
%TO.N,/SPI_SCK*%
X97790000Y-109855000D03*
%TO.P,U2,4*%
%TO.N,/NCSN*%
X100330000Y-112395000D03*
%TO.P,U2,3*%
%TO.N,/NRF_CE*%
X100330000Y-109855000D03*
%TO.P,U2,2*%
%TO.N,VDD*%
X102870000Y-112395000D03*
D12*
%TO.P,U2,1*%
%TO.N,GND*%
X102870000Y-109855000D03*
%TD*%
D13*
%TO.P,U1,10*%
%TO.N,Net-(U1-Pad10)*%
X101935000Y-83050000D03*
%TO.P,U1,11*%
%TO.N,/SPI_SCK*%
X96185000Y-83050000D03*
%TO.P,U1,9*%
%TO.N,/NCSN*%
X101935000Y-83700000D03*
%TO.P,U1,12*%
%TO.N,/MISO*%
X96185000Y-83700000D03*
%TO.P,U1,8*%
%TO.N,/NRF_CE*%
X101935000Y-84350000D03*
%TO.P,U1,13*%
%TO.N,/MOSI*%
X96185000Y-84350000D03*
%TO.P,U1,7*%
%TO.N,Net-(U1-Pad7)*%
X101935000Y-85000000D03*
%TO.P,U1,14*%
%TO.N,Net-(U1-Pad14)*%
X96185000Y-85000000D03*
%TO.P,U1,6*%
%TO.N,Net-(U1-Pad6)*%
X101935000Y-85650000D03*
%TO.P,U1,15*%
%TO.N,GND*%
X96185000Y-85650000D03*
%TO.P,U1,5*%
%TO.N,VDD*%
X101935000Y-86300000D03*
%TO.P,U1,16*%
X96185000Y-86300000D03*
%TO.P,U1,4*%
%TO.N,/NRST*%
X101935000Y-86950000D03*
%TO.P,U1,17*%
%TO.N,/SCL*%
X96185000Y-86950000D03*
%TO.P,U1,3*%
%TO.N,Net-(U1-Pad3)*%
X101935000Y-87600000D03*
%TO.P,U1,18*%
%TO.N,/SDA*%
X96185000Y-87600000D03*
%TO.P,U1,2*%
%TO.N,Net-(U1-Pad2)*%
X101935000Y-88250000D03*
%TO.P,U1,19*%
%TO.N,/SWDIO*%
X96185000Y-88250000D03*
%TO.P,U1,1*%
%TO.N,GND*%
X101935000Y-88900000D03*
%TO.P,U1,20*%
%TO.N,/SWCLK*%
X96185000Y-88900000D03*
%TD*%
%TO.P,R8,2*%
%TO.N,GND*%
%TA.AperFunction,SMDPad,CuDef*%
G36*
G01*
X100052500Y-104130000D02*
X100052500Y-102880000D01*
G75*
G02*
X100302500Y-102630000I250000J0D01*
G01*
X101227500Y-102630000D01*
G75*
G02*
X101477500Y-102880000I0J-250000D01*
G01*
X101477500Y-104130000D01*
G75*
G02*
X101227500Y-104380000I-250000J0D01*
G01*
X100302500Y-104380000D01*
G75*
G02*
X100052500Y-104130000I0J250000D01*
G01*
G37*
%TD.AperFunction*%
%TO.P,R8,1*%
%TO.N,/SPI_SCK*%
%TA.AperFunction,SMDPad,CuDef*%
G36*
G01*
X97077500Y-104130000D02*
X97077500Y-102880000D01*
G75*
G02*
X97327500Y-102630000I250000J0D01*
G01*
X98252500Y-102630000D01*
G75*
G02*
X98502500Y-102880000I0J-250000D01*
G01*
X98502500Y-104130000D01*
G75*
G02*
X98252500Y-104380000I-250000J0D01*
G01*
X97327500Y-104380000D01*
G75*
G02*
X97077500Y-104130000I0J250000D01*
G01*
G37*
%TD.AperFunction*%
%TD*%
%TO.P,R7,2*%
%TO.N,/MOSI*%
%TA.AperFunction,SMDPad,CuDef*%
G36*
G01*
X94464500Y-97780000D02*
X94464500Y-96530000D01*
G75*
G02*
X94714500Y-96280000I250000J0D01*
G01*
X95639500Y-96280000D01*
G75*
G02*
X95889500Y-96530000I0J-250000D01*
G01*
X95889500Y-97780000D01*
G75*
G02*
X95639500Y-98030000I-250000J0D01*
G01*
X94714500Y-98030000D01*
G75*
G02*
X94464500Y-97780000I0J250000D01*
G01*
G37*
%TD.AperFunction*%
%TO.P,R7,1*%
%TO.N,VDD*%
%TA.AperFunction,SMDPad,CuDef*%
G36*
G01*
X91489500Y-97780000D02*
X91489500Y-96530000D01*
G75*
G02*
X91739500Y-96280000I250000J0D01*
G01*
X92664500Y-96280000D01*
G75*
G02*
X92914500Y-96530000I0J-250000D01*
G01*
X92914500Y-97780000D01*
G75*
G02*
X92664500Y-98030000I-250000J0D01*
G01*
X91739500Y-98030000D01*
G75*
G02*
X91489500Y-97780000I0J250000D01*
G01*
G37*
%TD.AperFunction*%
%TD*%
%TO.P,R6,2*%
%TO.N,/MISO*%
%TA.AperFunction,SMDPad,CuDef*%
G36*
G01*
X94537500Y-104130000D02*
X94537500Y-102880000D01*
G75*
G02*
X94787500Y-102630000I250000J0D01*
G01*
X95712500Y-102630000D01*
G75*
G02*
X95962500Y-102880000I0J-250000D01*
G01*
X95962500Y-104130000D01*
G75*
G02*
X95712500Y-104380000I-250000J0D01*
G01*
X94787500Y-104380000D01*
G75*
G02*
X94537500Y-104130000I0J250000D01*
G01*
G37*
%TD.AperFunction*%
%TO.P,R6,1*%
%TO.N,VDD*%
%TA.AperFunction,SMDPad,CuDef*%
G36*
G01*
X91562500Y-104130000D02*
X91562500Y-102880000D01*
G75*
G02*
X91812500Y-102630000I250000J0D01*
G01*
X92737500Y-102630000D01*
G75*
G02*
X92987500Y-102880000I0J-250000D01*
G01*
X92987500Y-104130000D01*
G75*
G02*
X92737500Y-104380000I-250000J0D01*
G01*
X91812500Y-104380000D01*
G75*
G02*
X91562500Y-104130000I0J250000D01*
G01*
G37*
%TD.AperFunction*%
%TD*%
%TO.P,R5,2*%
%TO.N,/NCSN*%
%TA.AperFunction,SMDPad,CuDef*%
G36*
G01*
X101042500Y-96530000D02*
X101042500Y-97780000D01*
G75*
G02*
X100792500Y-98030000I-250000J0D01*
G01*
X99867500Y-98030000D01*
G75*
G02*
X99617500Y-97780000I0J250000D01*
G01*
X99617500Y-96530000D01*
G75*
G02*
X99867500Y-96280000I250000J0D01*
G01*
X100792500Y-96280000D01*
G75*
G02*
X101042500Y-96530000I0J-250000D01*
G01*
G37*
%TD.AperFunction*%
%TO.P,R5,1*%
%TO.N,VDD*%
%TA.AperFunction,SMDPad,CuDef*%
G36*
G01*
X104017500Y-96530000D02*
X104017500Y-97780000D01*
G75*
G02*
X103767500Y-98030000I-250000J0D01*
G01*
X102842500Y-98030000D01*
G75*
G02*
X102592500Y-97780000I0J250000D01*
G01*
X102592500Y-96530000D01*
G75*
G02*
X102842500Y-96280000I250000J0D01*
G01*
X103767500Y-96280000D01*
G75*
G02*
X104017500Y-96530000I0J-250000D01*
G01*
G37*
%TD.AperFunction*%
%TD*%
%TO.P,R4,2*%
%TO.N,/NRF_CE*%
%TA.AperFunction,SMDPad,CuDef*%
G36*
G01*
X103582500Y-102880000D02*
X103582500Y-104130000D01*
G75*
G02*
X103332500Y-104380000I-250000J0D01*
G01*
X102407500Y-104380000D01*
G75*
G02*
X102157500Y-104130000I0J250000D01*
G01*
X102157500Y-102880000D01*
G75*
G02*
X102407500Y-102630000I250000J0D01*
G01*
X103332500Y-102630000D01*
G75*
G02*
X103582500Y-102880000I0J-250000D01*
G01*
G37*
%TD.AperFunction*%
%TO.P,R4,1*%
%TO.N,VDD*%
%TA.AperFunction,SMDPad,CuDef*%
G36*
G01*
X106557500Y-102880000D02*
X106557500Y-104130000D01*
G75*
G02*
X106307500Y-104380000I-250000J0D01*
G01*
X105382500Y-104380000D01*
G75*
G02*
X105132500Y-104130000I0J250000D01*
G01*
X105132500Y-102880000D01*
G75*
G02*
X105382500Y-102630000I250000J0D01*
G01*
X106307500Y-102630000D01*
G75*
G02*
X106557500Y-102880000I0J-250000D01*
G01*
G37*
%TD.AperFunction*%
%TD*%
%TO.P,R3,2*%
%TO.N,/SDA*%
%TA.AperFunction,SMDPad,CuDef*%
G36*
G01*
X89965500Y-77841000D02*
X89965500Y-76591000D01*
G75*
G02*
X90215500Y-76341000I250000J0D01*
G01*
X91140500Y-76341000D01*
G75*
G02*
X91390500Y-76591000I0J-250000D01*
G01*
X91390500Y-77841000D01*
G75*
G02*
X91140500Y-78091000I-250000J0D01*
G01*
X90215500Y-78091000D01*
G75*
G02*
X89965500Y-77841000I0J250000D01*
G01*
G37*
%TD.AperFunction*%
%TO.P,R3,1*%
%TO.N,VDD*%
%TA.AperFunction,SMDPad,CuDef*%
G36*
G01*
X86990500Y-77841000D02*
X86990500Y-76591000D01*
G75*
G02*
X87240500Y-76341000I250000J0D01*
G01*
X88165500Y-76341000D01*
G75*
G02*
X88415500Y-76591000I0J-250000D01*
G01*
X88415500Y-77841000D01*
G75*
G02*
X88165500Y-78091000I-250000J0D01*
G01*
X87240500Y-78091000D01*
G75*
G02*
X86990500Y-77841000I0J250000D01*
G01*
G37*
%TD.AperFunction*%
%TD*%
%TO.P,R2,2*%
%TO.N,/SCL*%
%TA.AperFunction,SMDPad,CuDef*%
G36*
G01*
X94946500Y-76591000D02*
X94946500Y-77841000D01*
G75*
G02*
X94696500Y-78091000I-250000J0D01*
G01*
X93771500Y-78091000D01*
G75*
G02*
X93521500Y-77841000I0J250000D01*
G01*
X93521500Y-76591000D01*
G75*
G02*
X93771500Y-76341000I250000J0D01*
G01*
X94696500Y-76341000D01*
G75*
G02*
X94946500Y-76591000I0J-250000D01*
G01*
G37*
%TD.AperFunction*%
%TO.P,R2,1*%
%TO.N,VDD*%
%TA.AperFunction,SMDPad,CuDef*%
G36*
G01*
X97921500Y-76591000D02*
X97921500Y-77841000D01*
G75*
G02*
X97671500Y-78091000I-250000J0D01*
G01*
X96746500Y-78091000D01*
G75*
G02*
X96496500Y-77841000I0J250000D01*
G01*
X96496500Y-76591000D01*
G75*
G02*
X96746500Y-76341000I250000J0D01*
G01*
X97671500Y-76341000D01*
G75*
G02*
X97921500Y-76591000I0J-250000D01*
G01*
G37*
%TD.AperFunction*%
%TD*%
%TO.P,R1,2*%
%TO.N,/NRST*%
%TA.AperFunction,SMDPad,CuDef*%
G36*
G01*
X90160000Y-98285000D02*
X88910000Y-98285000D01*
G75*
G02*
X88660000Y-98035000I0J250000D01*
G01*
X88660000Y-97110000D01*
G75*
G02*
X88910000Y-96860000I250000J0D01*
G01*
X90160000Y-96860000D01*
G75*
G02*
X90410000Y-97110000I0J-250000D01*
G01*
X90410000Y-98035000D01*
G75*
G02*
X90160000Y-98285000I-250000J0D01*
G01*
G37*
%TD.AperFunction*%
%TO.P,R1,1*%
%TO.N,VDD*%
%TA.AperFunction,SMDPad,CuDef*%
G36*
G01*
X90160000Y-101260000D02*
X88910000Y-101260000D01*
G75*
G02*
X88660000Y-101010000I0J250000D01*
G01*
X88660000Y-100085000D01*
G75*
G02*
X88910000Y-99835000I250000J0D01*
G01*
X90160000Y-99835000D01*
G75*
G02*
X90410000Y-100085000I0J-250000D01*
G01*
X90410000Y-101010000D01*
G75*
G02*
X90160000Y-101260000I-250000J0D01*
G01*
G37*
%TD.AperFunction*%
%TD*%
%TO.P,C5,2*%
%TO.N,GND*%
%TA.AperFunction,SMDPad,CuDef*%
G36*
G01*
X96129000Y-61999500D02*
X94879000Y-61999500D01*
G75*
G02*
X94629000Y-61749500I0J250000D01*
G01*
X94629000Y-60824500D01*
G75*
G02*
X94879000Y-60574500I250000J0D01*
G01*
X96129000Y-60574500D01*
G75*
G02*
X96379000Y-60824500I0J-250000D01*
G01*
X96379000Y-61749500D01*
G75*
G02*
X96129000Y-61999500I-250000J0D01*
G01*
G37*
%TD.AperFunction*%
%TO.P,C5,1*%
%TO.N,VDD*%
%TA.AperFunction,SMDPad,CuDef*%
G36*
G01*
X96129000Y-64974500D02*
X94879000Y-64974500D01*
G75*
G02*
X94629000Y-64724500I0J250000D01*
G01*
X94629000Y-63799500D01*
G75*
G02*
X94879000Y-63549500I250000J0D01*
G01*
X96129000Y-63549500D01*
G75*
G02*
X96379000Y-63799500I0J-250000D01*
G01*
X96379000Y-64724500D01*
G75*
G02*
X96129000Y-64974500I-250000J0D01*
G01*
G37*
%TD.AperFunction*%
%TD*%
%TO.P,C4,2*%
%TO.N,GND*%
%TA.AperFunction,SMDPad,CuDef*%
G36*
G01*
X107305000Y-110350000D02*
X106055000Y-110350000D01*
G75*
G02*
X105805000Y-110100000I0J250000D01*
G01*
X105805000Y-109175000D01*
G75*
G02*
X106055000Y-108925000I250000J0D01*
G01*
X107305000Y-108925000D01*
G75*
G02*
X107555000Y-109175000I0J-250000D01*
G01*
X107555000Y-110100000D01*
G75*
G02*
X107305000Y-110350000I-250000J0D01*
G01*
G37*
%TD.AperFunction*%
%TO.P,C4,1*%
%TO.N,VDD*%
%TA.AperFunction,SMDPad,CuDef*%
G36*
G01*
X107305000Y-113325000D02*
X106055000Y-113325000D01*
G75*
G02*
X105805000Y-113075000I0J250000D01*
G01*
X105805000Y-112150000D01*
G75*
G02*
X106055000Y-111900000I250000J0D01*
G01*
X107305000Y-111900000D01*
G75*
G02*
X107555000Y-112150000I0J-250000D01*
G01*
X107555000Y-113075000D01*
G75*
G02*
X107305000Y-113325000I-250000J0D01*
G01*
G37*
%TD.AperFunction*%
%TD*%
%TO.P,C3,2*%
%TO.N,GND*%
%TA.AperFunction,SMDPad,CuDef*%
G36*
G01*
X94605000Y-81557500D02*
X93355000Y-81557500D01*
G75*
G02*
X93105000Y-81307500I0J250000D01*
G01*
X93105000Y-80382500D01*
G75*
G02*
X93355000Y-80132500I250000J0D01*
G01*
X94605000Y-80132500D01*
G75*
G02*
X94855000Y-80382500I0J-250000D01*
G01*
X94855000Y-81307500D01*
G75*
G02*
X94605000Y-81557500I-250000J0D01*
G01*
G37*
%TD.AperFunction*%
%TO.P,C3,1*%
%TO.N,VDD*%
%TA.AperFunction,SMDPad,CuDef*%
G36*
G01*
X94605000Y-84532500D02*
X93355000Y-84532500D01*
G75*
G02*
X93105000Y-84282500I0J250000D01*
G01*
X93105000Y-83357500D01*
G75*
G02*
X93355000Y-83107500I250000J0D01*
G01*
X94605000Y-83107500D01*
G75*
G02*
X94855000Y-83357500I0J-250000D01*
G01*
X94855000Y-84282500D01*
G75*
G02*
X94605000Y-84532500I-250000J0D01*
G01*
G37*
%TD.AperFunction*%
%TD*%
%TO.P,C2,2*%
%TO.N,GND*%
%TA.AperFunction,SMDPad,CuDef*%
G36*
G01*
X106055000Y-88622500D02*
X107305000Y-88622500D01*
G75*
G02*
X107555000Y-88872500I0J-250000D01*
G01*
X107555000Y-89797500D01*
G75*
G02*
X107305000Y-90047500I-250000J0D01*
G01*
X106055000Y-90047500D01*
G75*
G02*
X105805000Y-89797500I0J250000D01*
G01*
X105805000Y-88872500D01*
G75*
G02*
X106055000Y-88622500I250000J0D01*
G01*
G37*
%TD.AperFunction*%
%TO.P,C2,1*%
%TO.N,VDD*%
%TA.AperFunction,SMDPad,CuDef*%
G36*
G01*
X106055000Y-85647500D02*
X107305000Y-85647500D01*
G75*
G02*
X107555000Y-85897500I0J-250000D01*
G01*
X107555000Y-86822500D01*
G75*
G02*
X107305000Y-87072500I-250000J0D01*
G01*
X106055000Y-87072500D01*
G75*
G02*
X105805000Y-86822500I0J250000D01*
G01*
X105805000Y-85897500D01*
G75*
G02*
X106055000Y-85647500I250000J0D01*
G01*
G37*
%TD.AperFunction*%
%TD*%
D14*
%TO.P,J1,5*%
%TO.N,/SWCLK*%
X90170000Y-92075000D03*
%TO.P,J1,4*%
%TO.N,/SWDIO*%
X90170000Y-89535000D03*
%TO.P,J1,3*%
%TO.N,/NRST*%
X90170000Y-86995000D03*
%TO.P,J1,2*%
%TO.N,GND*%
X90170000Y-84455000D03*
D15*
%TO.P,J1,1*%
%TO.N,VDD*%
X90170000Y-81915000D03*
%TD*%
%TO.P,U3,8*%
%TO.N,VDD*%
%TA.AperFunction,SMDPad,CuDef*%
G36*
G01*
X97890000Y-60930000D02*
X97690000Y-60930000D01*
G75*
G02*
X97590000Y-60830000I0J100000D01*
G01*
X97590000Y-59405000D01*
G75*
G02*
X97690000Y-59305000I100000J0D01*
G01*
X97890000Y-59305000D01*
G75*
G02*
X97990000Y-59405000I0J-100000D01*
G01*
X97990000Y-60830000D01*
G75*
G02*
X97890000Y-60930000I-100000J0D01*
G01*
G37*
%TD.AperFunction*%
%TO.P,U3,7*%
%TO.N,GND*%
%TA.AperFunction,SMDPad,CuDef*%
G36*
G01*
X98540000Y-60930000D02*
X98340000Y-60930000D01*
G75*
G02*
X98240000Y-60830000I0J100000D01*
G01*
X98240000Y-59405000D01*
G75*
G02*
X98340000Y-59305000I100000J0D01*
G01*
X98540000Y-59305000D01*
G75*
G02*
X98640000Y-59405000I0J-100000D01*
G01*
X98640000Y-60830000D01*
G75*
G02*
X98540000Y-60930000I-100000J0D01*
G01*
G37*
%TD.AperFunction*%
%TO.P,U3,6*%
%TA.AperFunction,SMDPad,CuDef*%
G36*
G01*
X99190000Y-60930000D02*
X98990000Y-60930000D01*
G75*
G02*
X98890000Y-60830000I0J100000D01*
G01*
X98890000Y-59405000D01*
G75*
G02*
X98990000Y-59305000I100000J0D01*
G01*
X99190000Y-59305000D01*
G75*
G02*
X99290000Y-59405000I0J-100000D01*
G01*
X99290000Y-60830000D01*
G75*
G02*
X99190000Y-60930000I-100000J0D01*
G01*
G37*
%TD.AperFunction*%
%TO.P,U3,5*%
%TA.AperFunction,SMDPad,CuDef*%
G36*
G01*
X99840000Y-60930000D02*
X99640000Y-60930000D01*
G75*
G02*
X99540000Y-60830000I0J100000D01*
G01*
X99540000Y-59405000D01*
G75*
G02*
X99640000Y-59305000I100000J0D01*
G01*
X99840000Y-59305000D01*
G75*
G02*
X99940000Y-59405000I0J-100000D01*
G01*
X99940000Y-60830000D01*
G75*
G02*
X99840000Y-60930000I-100000J0D01*
G01*
G37*
%TD.AperFunction*%
%TO.P,U3,4*%
%TA.AperFunction,SMDPad,CuDef*%
G36*
G01*
X99840000Y-65155000D02*
X99640000Y-65155000D01*
G75*
G02*
X99540000Y-65055000I0J100000D01*
G01*
X99540000Y-63630000D01*
G75*
G02*
X99640000Y-63530000I100000J0D01*
G01*
X99840000Y-63530000D01*
G75*
G02*
X99940000Y-63630000I0J-100000D01*
G01*
X99940000Y-65055000D01*
G75*
G02*
X99840000Y-65155000I-100000J0D01*
G01*
G37*
%TD.AperFunction*%
%TO.P,U3,3*%
%TO.N,Net-(U3-Pad3)*%
%TA.AperFunction,SMDPad,CuDef*%
G36*
G01*
X99190000Y-65155000D02*
X98990000Y-65155000D01*
G75*
G02*
X98890000Y-65055000I0J100000D01*
G01*
X98890000Y-63630000D01*
G75*
G02*
X98990000Y-63530000I100000J0D01*
G01*
X99190000Y-63530000D01*
G75*
G02*
X99290000Y-63630000I0J-100000D01*
G01*
X99290000Y-65055000D01*
G75*
G02*
X99190000Y-65155000I-100000J0D01*
G01*
G37*
%TD.AperFunction*%
%TO.P,U3,2*%
%TO.N,/SCL*%
%TA.AperFunction,SMDPad,CuDef*%
G36*
G01*
X98540000Y-65155000D02*
X98340000Y-65155000D01*
G75*
G02*
X98240000Y-65055000I0J100000D01*
G01*
X98240000Y-63630000D01*
G75*
G02*
X98340000Y-63530000I100000J0D01*
G01*
X98540000Y-63530000D01*
G75*
G02*
X98640000Y-63630000I0J-100000D01*
G01*
X98640000Y-65055000D01*
G75*
G02*
X98540000Y-65155000I-100000J0D01*
G01*
G37*
%TD.AperFunction*%
%TO.P,U3,1*%
%TO.N,/SDA*%
%TA.AperFunction,SMDPad,CuDef*%
G36*
G01*
X97890000Y-65155000D02*
X97690000Y-65155000D01*
G75*
G02*
X97590000Y-65055000I0J100000D01*
G01*
X97590000Y-63630000D01*
G75*
G02*
X97690000Y-63530000I100000J0D01*
G01*
X97890000Y-63530000D01*
G75*
G02*
X97990000Y-63630000I0J-100000D01*
G01*
X97990000Y-65055000D01*
G75*
G02*
X97890000Y-65155000I-100000J0D01*
G01*
G37*
%TD.AperFunction*%
%TD*%
D16*
%TO.N,VDD*%
X96266000Y-72644000D03*
X89154000Y-72644000D03*
%TO.N,GND*%
X100076000Y-107442000D03*
X98806000Y-61976000D03*
X95250000Y-59436000D03*
X96520000Y-59436000D03*
X99822000Y-61976000D03*
X101600000Y-101600000D03*
X100584000Y-101600000D03*
X94589600Y-85191600D03*
X108508800Y-89992200D03*
X108534200Y-88773000D03*
X106426000Y-92710000D03*
X109220000Y-92735400D03*
X103886000Y-70866000D03*
X103886000Y-71882000D03*
X93726000Y-78994000D03*
X94742000Y-78994000D03*
X96774000Y-101854000D03*
X96520000Y-108712000D03*
X93218000Y-100330000D03*
X101523800Y-91363800D03*
X102616000Y-91363800D03*
X88061800Y-98933000D03*
X96774000Y-91313000D03*
X95631000Y-91313000D03*
X88036400Y-86182200D03*
X88087200Y-83820000D03*
X86944200Y-81965800D03*
X93599000Y-67818000D03*
X94488000Y-67818000D03*
X95377000Y-67818000D03*
X96266000Y-67818000D03*
X99441000Y-67818000D03*
X100330000Y-67818000D03*
X101219000Y-67818000D03*
%TO.N,/NRST*%
X101600000Y-90170000D03*
X96774346Y-90170000D03*
%TD*%
D17*
%TO.N,/MISO*%
X95250000Y-103505000D02*
X95250000Y-109855000D01*
X95250000Y-102108000D02*
X95250000Y-103505000D01*
X96774000Y-94361000D02*
X96774000Y-100584000D01*
X98390011Y-92744989D02*
X96774000Y-94361000D01*
X98390011Y-84761467D02*
X98390011Y-92744989D01*
X97328544Y-83700000D02*
X98390011Y-84761467D01*
X96774000Y-100584000D02*
X95250000Y-102108000D01*
X96185000Y-83700000D02*
X97328544Y-83700000D01*
%TO.N,/MOSI*%
X93218000Y-106680000D02*
X91694000Y-106680000D01*
X93345000Y-106553000D02*
X93218000Y-106680000D01*
X96520000Y-111125000D02*
X97790000Y-112395000D01*
X97130001Y-84350000D02*
X97790000Y-85009999D01*
X96185000Y-84350000D02*
X97130001Y-84350000D01*
X93345000Y-101600000D02*
X93345000Y-102568244D01*
X97790000Y-92082520D02*
X95250000Y-94622520D01*
X95250000Y-94622520D02*
X95250000Y-99695000D01*
X93345000Y-110490000D02*
X93980000Y-111125000D01*
X97790000Y-85009999D02*
X97790000Y-92082520D01*
X93345000Y-102568244D02*
X93387510Y-102610754D01*
X93387510Y-102610754D02*
X93387510Y-104399246D01*
X95250000Y-99695000D02*
X93345000Y-101600000D01*
X93387510Y-104399246D02*
X93345000Y-104441756D01*
X93345000Y-104441756D02*
X93345000Y-110490000D01*
X93980000Y-111125000D02*
X96520000Y-111125000D01*
%TO.N,/SPI_SCK*%
X97790000Y-109855000D02*
X97790000Y-103505000D01*
X97790000Y-103505000D02*
X97790000Y-95758000D01*
X97790000Y-95758000D02*
X98806000Y-94742000D01*
X97527087Y-83050000D02*
X96185000Y-83050000D01*
X98806000Y-94742000D02*
X98990022Y-94557978D01*
X98990022Y-84512935D02*
X97527087Y-83050000D01*
X98990022Y-94557978D02*
X98990022Y-84512935D01*
%TO.N,/NCSN*%
X99060000Y-111125000D02*
X100330000Y-112395000D01*
X99060000Y-100965000D02*
X99060000Y-111125000D01*
X100330000Y-99695000D02*
X99060000Y-100965000D01*
X100330000Y-97155000D02*
X100330000Y-99695000D01*
X99590033Y-93240033D02*
X100330000Y-93980000D01*
X99590033Y-84549624D02*
X99590033Y-93240033D01*
X100330000Y-93980000D02*
X100330000Y-97155000D01*
X100439657Y-83700000D02*
X99590033Y-84549624D01*
X101935000Y-83700000D02*
X100439657Y-83700000D01*
%TO.N,/NRF_CE*%
X100330000Y-109855000D02*
X100330000Y-108585000D01*
X102870000Y-106045000D02*
X102870000Y-103505000D01*
X100330000Y-108585000D02*
X102870000Y-106045000D01*
X102870000Y-100965000D02*
X102870000Y-103505000D01*
X101854000Y-99949000D02*
X102870000Y-100965000D01*
X101854000Y-94488000D02*
X101854000Y-99949000D01*
X100190044Y-92824044D02*
X101854000Y-94488000D01*
X100190044Y-84798156D02*
X100190044Y-92824044D01*
X100638200Y-84350000D02*
X100190044Y-84798156D01*
X101935000Y-84350000D02*
X100638200Y-84350000D01*
%TO.N,VDD*%
X105845000Y-103505000D02*
X105845000Y-97590000D01*
X105410000Y-97155000D02*
X103305000Y-97155000D01*
X105845000Y-97590000D02*
X105410000Y-97155000D01*
X97209000Y-79622756D02*
X97209000Y-77216000D01*
X93980000Y-82851756D02*
X97209000Y-79622756D01*
X93980000Y-83820000D02*
X93980000Y-82851756D01*
X87703000Y-81099000D02*
X87703000Y-77216000D01*
X88519000Y-81915000D02*
X87703000Y-81099000D01*
X90170000Y-81915000D02*
X88519000Y-81915000D01*
X103305000Y-95323000D02*
X103305000Y-97155000D01*
X104902000Y-93726000D02*
X103305000Y-95323000D01*
X104902000Y-88392000D02*
X104902000Y-93726000D01*
X105410000Y-87884000D02*
X104902000Y-88392000D01*
X106172000Y-87884000D02*
X105410000Y-87884000D01*
X106680000Y-87376000D02*
X106172000Y-87884000D01*
X106680000Y-86360000D02*
X106680000Y-87376000D01*
X102482756Y-79622756D02*
X97209000Y-79622756D01*
X106680000Y-83820000D02*
X102482756Y-79622756D01*
X106680000Y-86360000D02*
X106680000Y-83820000D01*
X106620000Y-86300000D02*
X106680000Y-86360000D01*
X101935000Y-86300000D02*
X106620000Y-86300000D01*
X92238500Y-100547500D02*
X92275000Y-100511000D01*
X89535000Y-100547500D02*
X92238500Y-100547500D01*
X92275000Y-103505000D02*
X92275000Y-100511000D01*
X92275000Y-97228000D02*
X92202000Y-97155000D01*
X92275000Y-100511000D02*
X92275000Y-97228000D01*
X109474000Y-105410000D02*
X107569000Y-103505000D01*
X107569000Y-103505000D02*
X105845000Y-103505000D01*
X109474000Y-111760000D02*
X109474000Y-105410000D01*
X108621500Y-112612500D02*
X109474000Y-111760000D01*
X103087500Y-112612500D02*
X108621500Y-112612500D01*
X102870000Y-112395000D02*
X103087500Y-112612500D01*
X95504000Y-64262000D02*
X95504000Y-62992000D01*
X95504000Y-62992000D02*
X95758000Y-62738000D01*
X95758000Y-62738000D02*
X97028000Y-62738000D01*
X97790000Y-61976000D02*
X97790000Y-60117500D01*
X97028000Y-62738000D02*
X97790000Y-61976000D01*
X97209000Y-77216000D02*
X97209000Y-75111000D01*
X96266000Y-74168000D02*
X96266000Y-72644000D01*
X97209000Y-75111000D02*
X96266000Y-74168000D01*
X87703000Y-74095000D02*
X87703000Y-77216000D01*
X91948000Y-69850000D02*
X87703000Y-74095000D01*
X97189989Y-64677989D02*
X97189989Y-68882740D01*
X96222729Y-69850000D02*
X91948000Y-69850000D01*
X97189989Y-68882740D02*
X96222729Y-69850000D01*
X96774000Y-64262000D02*
X97189989Y-64677989D01*
X95504000Y-64262000D02*
X96774000Y-64262000D01*
X94428000Y-86300000D02*
X96185000Y-86300000D01*
X93726000Y-85598000D02*
X94428000Y-86300000D01*
X93726000Y-84074000D02*
X93726000Y-85598000D01*
X93980000Y-83820000D02*
X93726000Y-84074000D01*
X87029991Y-83404009D02*
X88519000Y-81915000D01*
X87029991Y-99729991D02*
X87029991Y-83404009D01*
X87847500Y-100547500D02*
X87029991Y-99729991D01*
X89535000Y-100547500D02*
X87847500Y-100547500D01*
%TO.N,GND*%
X99090000Y-60117500D02*
X99740000Y-60117500D01*
X99740000Y-61894000D02*
X99822000Y-61976000D01*
X99740000Y-60117500D02*
X99740000Y-61894000D01*
X98440000Y-61610000D02*
X98806000Y-61976000D01*
X98440000Y-60117500D02*
X98440000Y-61610000D01*
X99090000Y-61692000D02*
X98806000Y-61976000D01*
X99090000Y-60117500D02*
X99090000Y-61692000D01*
X98440000Y-60117500D02*
X98440000Y-58786000D01*
X98440000Y-60117500D02*
X99090000Y-60117500D01*
X99090000Y-60117500D02*
X99090000Y-58704000D01*
X99740000Y-60117500D02*
X99740000Y-58502000D01*
X100799999Y-89166601D02*
X100799999Y-90589199D01*
X101066600Y-88900000D02*
X100799999Y-89166601D01*
X101935000Y-88900000D02*
X101066600Y-88900000D01*
%TO.N,/SCL*%
X96185000Y-86950000D02*
X94062000Y-86950000D01*
X94062000Y-86950000D02*
X92704990Y-85592990D01*
X92704990Y-83088254D02*
X92710000Y-83083244D01*
X92704990Y-85592990D02*
X92704990Y-83088254D01*
X92710000Y-83083244D02*
X92710000Y-82550000D01*
X92704990Y-82544990D02*
X92710000Y-82550000D01*
X92710000Y-77216000D02*
X92704990Y-77221010D01*
X94234000Y-77216000D02*
X92710000Y-77216000D01*
X92704990Y-77221010D02*
X92704990Y-82544990D01*
X92710000Y-74676000D02*
X92704990Y-74681010D01*
X94234000Y-74676000D02*
X92710000Y-74676000D01*
X92704990Y-74681010D02*
X92704990Y-77221010D01*
X92704990Y-72395010D02*
X92704990Y-74681010D01*
X98440000Y-64342500D02*
X98440000Y-69454000D01*
X98440000Y-69454000D02*
X96816510Y-71077490D01*
X96816510Y-71077490D02*
X94022510Y-71077490D01*
X94022510Y-71077490D02*
X92704990Y-72395010D01*
%TO.N,/SDA*%
X97839990Y-64392490D02*
X97790000Y-64342500D01*
X93863457Y-87600000D02*
X92075000Y-85811543D01*
X96185000Y-87600000D02*
X93863457Y-87600000D01*
X91948000Y-77216000D02*
X92075000Y-77089000D01*
X90678000Y-77216000D02*
X91948000Y-77216000D01*
X92075000Y-85811543D02*
X92075000Y-77089000D01*
X91948000Y-74676000D02*
X92075000Y-74549000D01*
X90424000Y-74676000D02*
X91948000Y-74676000D01*
X92075000Y-77089000D02*
X92075000Y-74549000D01*
X96471261Y-70450011D02*
X97790000Y-69131272D01*
X92075000Y-74549000D02*
X92075000Y-72176457D01*
X92075000Y-72176457D02*
X93801446Y-70450011D01*
X97790000Y-69131272D02*
X97790000Y-64342500D01*
X93801446Y-70450011D02*
X96471261Y-70450011D01*
%TO.N,/SWCLK*%
X93345000Y-88900000D02*
X90170000Y-92075000D01*
X96185000Y-88900000D02*
X93345000Y-88900000D01*
%TO.N,/SWDIO*%
X95239998Y-88250000D02*
X96185000Y-88250000D01*
X95224998Y-88265000D02*
X95239998Y-88250000D01*
X92837000Y-88265000D02*
X95224998Y-88265000D01*
X91567000Y-89535000D02*
X92837000Y-88265000D01*
X90170000Y-89535000D02*
X91567000Y-89535000D01*
%TO.N,/NRST*%
X88047500Y-97572500D02*
X89535000Y-97572500D01*
X87630000Y-97155000D02*
X88047500Y-97572500D01*
X87630000Y-88138000D02*
X87630000Y-97155000D01*
X88773000Y-86995000D02*
X87630000Y-88138000D01*
X90170000Y-86995000D02*
X88773000Y-86995000D01*
X103632000Y-90170016D02*
X103632008Y-90170008D01*
X103632008Y-87572008D02*
X103632008Y-90170008D01*
X101935000Y-86950000D02*
X103010000Y-86950000D01*
X103632000Y-92710000D02*
X103632000Y-90170016D01*
X103010000Y-86950000D02*
X103632008Y-87572008D01*
X101600016Y-90170016D02*
X101600000Y-90170000D01*
X103632000Y-90170016D02*
X101600016Y-90170016D01*
X89535000Y-95631000D02*
X94996000Y-90170000D01*
X89535000Y-97572500D02*
X89535000Y-95631000D01*
X94996000Y-90170000D02*
X96774346Y-90170000D01*
%TD*%
D18*
%TO.N,GND*%
G36*
X92866000Y-66784708D02*
G01*
X92864297Y-66802000D01*
X92871093Y-66871004D01*
X92891221Y-66937356D01*
X92923907Y-66998507D01*
X92967894Y-67052106D01*
X93021493Y-67096093D01*
X93082644Y-67128779D01*
X93148996Y-67148907D01*
X93218000Y-67155703D01*
X93235291Y-67154000D01*
X96502709Y-67154000D01*
X96520000Y-67155703D01*
X96589004Y-67148907D01*
X96655356Y-67128779D01*
X96662990Y-67124699D01*
X96662990Y-68664449D01*
X96004440Y-69323000D01*
X91973881Y-69323000D01*
X91948000Y-69320451D01*
X91922119Y-69323000D01*
X91844690Y-69330626D01*
X91745350Y-69360761D01*
X91653798Y-69409696D01*
X91573552Y-69475552D01*
X91557054Y-69495655D01*
X89135710Y-71917000D01*
X89082397Y-71917000D01*
X88941942Y-71944938D01*
X88809636Y-71999741D01*
X88690564Y-72079302D01*
X88589302Y-72180564D01*
X88509741Y-72299636D01*
X88454938Y-72431942D01*
X88427000Y-72572397D01*
X88427000Y-72625710D01*
X87348666Y-73704045D01*
X87328552Y-73720552D01*
X87262696Y-73800798D01*
X87242042Y-73839440D01*
X87213761Y-73892351D01*
X87183626Y-73991691D01*
X87173451Y-74095000D01*
X87176000Y-74120881D01*
X87176001Y-76018770D01*
X87127624Y-76023535D01*
X87019086Y-76056460D01*
X86919057Y-76109927D01*
X86831381Y-76181881D01*
X86759427Y-76269557D01*
X86705960Y-76369586D01*
X86673035Y-76478124D01*
X86661918Y-76591000D01*
X86661918Y-77841000D01*
X86673035Y-77953876D01*
X86705960Y-78062414D01*
X86759427Y-78162443D01*
X86831381Y-78250119D01*
X86919057Y-78322073D01*
X87019086Y-78375540D01*
X87127624Y-78408465D01*
X87176001Y-78413230D01*
X87176000Y-81073119D01*
X87173451Y-81099000D01*
X87176000Y-81124880D01*
X87183626Y-81202309D01*
X87213761Y-81301649D01*
X87262696Y-81393202D01*
X87328552Y-81473448D01*
X87348666Y-81489955D01*
X87773710Y-81915000D01*
X86675653Y-83013058D01*
X86655544Y-83029561D01*
X86598052Y-83099615D01*
X86589687Y-83109808D01*
X86540752Y-83201360D01*
X86510617Y-83300700D01*
X86500442Y-83404009D01*
X86502992Y-83429900D01*
X86502991Y-99704110D01*
X86500442Y-99729991D01*
X86502991Y-99755871D01*
X86510617Y-99833300D01*
X86540752Y-99932640D01*
X86589687Y-100024193D01*
X86655543Y-100104439D01*
X86675657Y-100120946D01*
X87456549Y-100901839D01*
X87473052Y-100921948D01*
X87553298Y-100987804D01*
X87644850Y-101036739D01*
X87744190Y-101066874D01*
X87821619Y-101074500D01*
X87821621Y-101074500D01*
X87847499Y-101077049D01*
X87873377Y-101074500D01*
X88337771Y-101074500D01*
X88342535Y-101122876D01*
X88375460Y-101231414D01*
X88428927Y-101331443D01*
X88500881Y-101419119D01*
X88588557Y-101491073D01*
X88688586Y-101544540D01*
X88797124Y-101577465D01*
X88910000Y-101588582D01*
X90160000Y-101588582D01*
X90272876Y-101577465D01*
X90381414Y-101544540D01*
X90481443Y-101491073D01*
X90569119Y-101419119D01*
X90641073Y-101331443D01*
X90694540Y-101231414D01*
X90727465Y-101122876D01*
X90732229Y-101074500D01*
X91748001Y-101074500D01*
X91748000Y-102307770D01*
X91699624Y-102312535D01*
X91591086Y-102345460D01*
X91491057Y-102398927D01*
X91403381Y-102470881D01*
X91331427Y-102558557D01*
X91277960Y-102658586D01*
X91245035Y-102767124D01*
X91233918Y-102880000D01*
X91233918Y-104130000D01*
X91245035Y-104242876D01*
X91277960Y-104351414D01*
X91331427Y-104451443D01*
X91403381Y-104539119D01*
X91491057Y-104611073D01*
X91591086Y-104664540D01*
X91699624Y-104697465D01*
X91812500Y-104708582D01*
X92737500Y-104708582D01*
X92818000Y-104700654D01*
X92818000Y-106153000D01*
X92637167Y-106153000D01*
X92530560Y-105993453D01*
X92380547Y-105843440D01*
X92204151Y-105725575D01*
X92008149Y-105644389D01*
X91800075Y-105603000D01*
X91587925Y-105603000D01*
X91379851Y-105644389D01*
X91183849Y-105725575D01*
X91007453Y-105843440D01*
X90857440Y-105993453D01*
X90739575Y-106169849D01*
X90658389Y-106365851D01*
X90617000Y-106573925D01*
X90617000Y-106786075D01*
X90658389Y-106994149D01*
X90739575Y-107190151D01*
X90857440Y-107366547D01*
X91007453Y-107516560D01*
X91183849Y-107634425D01*
X91379851Y-107715611D01*
X91587925Y-107757000D01*
X91800075Y-107757000D01*
X92008149Y-107715611D01*
X92204151Y-107634425D01*
X92380547Y-107516560D01*
X92530560Y-107366547D01*
X92637167Y-107207000D01*
X92818000Y-107207000D01*
X92818001Y-110464109D01*
X92815451Y-110490000D01*
X92825626Y-110593309D01*
X92855761Y-110692649D01*
X92886711Y-110750553D01*
X92904697Y-110784202D01*
X92970553Y-110864448D01*
X92990661Y-110880950D01*
X93589053Y-111479344D01*
X93605552Y-111499448D01*
X93685798Y-111565304D01*
X93777350Y-111614239D01*
X93876690Y-111644374D01*
X93980000Y-111654549D01*
X94005881Y-111652000D01*
X94452922Y-111652000D01*
X94404119Y-111700803D01*
X94284941Y-111879165D01*
X94202850Y-112077350D01*
X94161000Y-112287743D01*
X94161000Y-112502257D01*
X94202850Y-112712650D01*
X94284941Y-112910835D01*
X94404119Y-113089197D01*
X94555803Y-113240881D01*
X94734165Y-113360059D01*
X94932350Y-113442150D01*
X95142743Y-113484000D01*
X95357257Y-113484000D01*
X95567650Y-113442150D01*
X95765835Y-113360059D01*
X95944197Y-113240881D01*
X96095881Y-113089197D01*
X96215059Y-112910835D01*
X96297150Y-112712650D01*
X96339000Y-112502257D01*
X96339000Y-112287743D01*
X96297150Y-112077350D01*
X96215059Y-111879165D01*
X96095881Y-111700803D01*
X96047078Y-111652000D01*
X96301711Y-111652000D01*
X96740230Y-112090520D01*
X96701000Y-112287743D01*
X96701000Y-112502257D01*
X96742850Y-112712650D01*
X96824941Y-112910835D01*
X96944119Y-113089197D01*
X97095803Y-113240881D01*
X97274165Y-113360059D01*
X97472350Y-113442150D01*
X97682743Y-113484000D01*
X97897257Y-113484000D01*
X98107650Y-113442150D01*
X98305835Y-113360059D01*
X98484197Y-113240881D01*
X98635881Y-113089197D01*
X98755059Y-112910835D01*
X98837150Y-112712650D01*
X98879000Y-112502257D01*
X98879000Y-112287743D01*
X98837150Y-112077350D01*
X98755059Y-111879165D01*
X98635881Y-111700803D01*
X98484197Y-111549119D01*
X98305835Y-111429941D01*
X98107650Y-111347850D01*
X97897257Y-111306000D01*
X97682743Y-111306000D01*
X97485520Y-111345230D01*
X96910955Y-110770666D01*
X96894448Y-110750552D01*
X96814202Y-110684696D01*
X96722650Y-110635761D01*
X96623310Y-110605626D01*
X96545881Y-110598000D01*
X96520000Y-110595451D01*
X96494119Y-110598000D01*
X96047078Y-110598000D01*
X96095881Y-110549197D01*
X96215059Y-110370835D01*
X96297150Y-110172650D01*
X96339000Y-109962257D01*
X96339000Y-109747743D01*
X96297150Y-109537350D01*
X96215059Y-109339165D01*
X96095881Y-109160803D01*
X95944197Y-109009119D01*
X95777000Y-108897401D01*
X95777000Y-107623167D01*
X95936547Y-107516560D01*
X96086560Y-107366547D01*
X96204425Y-107190151D01*
X96285611Y-106994149D01*
X96327000Y-106786075D01*
X96327000Y-106573925D01*
X96285611Y-106365851D01*
X96204425Y-106169849D01*
X96086560Y-105993453D01*
X95936547Y-105843440D01*
X95777000Y-105736833D01*
X95777000Y-104702229D01*
X95825376Y-104697465D01*
X95933914Y-104664540D01*
X96033943Y-104611073D01*
X96121619Y-104539119D01*
X96193573Y-104451443D01*
X96247040Y-104351414D01*
X96279965Y-104242876D01*
X96291082Y-104130000D01*
X96291082Y-102880000D01*
X96279965Y-102767124D01*
X96247040Y-102658586D01*
X96193573Y-102558557D01*
X96121619Y-102470881D01*
X96033943Y-102398927D01*
X95933914Y-102345460D01*
X95825376Y-102312535D01*
X95793858Y-102309431D01*
X97128339Y-100974951D01*
X97148448Y-100958448D01*
X97214304Y-100878202D01*
X97263000Y-100787096D01*
X97263000Y-102307770D01*
X97214624Y-102312535D01*
X97106086Y-102345460D01*
X97006057Y-102398927D01*
X96918381Y-102470881D01*
X96846427Y-102558557D01*
X96792960Y-102658586D01*
X96760035Y-102767124D01*
X96748918Y-102880000D01*
X96748918Y-104130000D01*
X96760035Y-104242876D01*
X96792960Y-104351414D01*
X96846427Y-104451443D01*
X96918381Y-104539119D01*
X97006057Y-104611073D01*
X97106086Y-104664540D01*
X97214624Y-104697465D01*
X97263001Y-104702230D01*
X97263000Y-108897401D01*
X97095803Y-109009119D01*
X96944119Y-109160803D01*
X96824941Y-109339165D01*
X96742850Y-109537350D01*
X96701000Y-109747743D01*
X96701000Y-109962257D01*
X96742850Y-110172650D01*
X96824941Y-110370835D01*
X96944119Y-110549197D01*
X97095803Y-110700881D01*
X97274165Y-110820059D01*
X97472350Y-110902150D01*
X97682743Y-110944000D01*
X97897257Y-110944000D01*
X98107650Y-110902150D01*
X98305835Y-110820059D01*
X98484197Y-110700881D01*
X98533001Y-110652077D01*
X98533001Y-111099109D01*
X98530451Y-111125000D01*
X98540626Y-111228309D01*
X98570761Y-111327649D01*
X98570762Y-111327650D01*
X98619697Y-111419202D01*
X98685553Y-111499448D01*
X98705662Y-111515951D01*
X99280230Y-112090520D01*
X99241000Y-112287743D01*
X99241000Y-112502257D01*
X99282850Y-112712650D01*
X99364941Y-112910835D01*
X99484119Y-113089197D01*
X99635803Y-113240881D01*
X99814165Y-113360059D01*
X100012350Y-113442150D01*
X100222743Y-113484000D01*
X100437257Y-113484000D01*
X100647650Y-113442150D01*
X100845835Y-113360059D01*
X101024197Y-113240881D01*
X101175881Y-113089197D01*
X101295059Y-112910835D01*
X101377150Y-112712650D01*
X101419000Y-112502257D01*
X101419000Y-112287743D01*
X101377150Y-112077350D01*
X101295059Y-111879165D01*
X101175881Y-111700803D01*
X101024197Y-111549119D01*
X100845835Y-111429941D01*
X100647650Y-111347850D01*
X100437257Y-111306000D01*
X100222743Y-111306000D01*
X100025520Y-111345230D01*
X99587000Y-110906711D01*
X99587000Y-110652078D01*
X99635803Y-110700881D01*
X99814165Y-110820059D01*
X100012350Y-110902150D01*
X100222743Y-110944000D01*
X100437257Y-110944000D01*
X100647650Y-110902150D01*
X100845835Y-110820059D01*
X101024197Y-110700881D01*
X101108078Y-110617000D01*
X101469928Y-110617000D01*
X101482188Y-110741482D01*
X101518498Y-110861180D01*
X101577463Y-110971494D01*
X101656815Y-111068185D01*
X101753506Y-111147537D01*
X101863820Y-111206502D01*
X101983518Y-111242812D01*
X102108000Y-111255072D01*
X102584250Y-111252000D01*
X102743000Y-111093250D01*
X102743000Y-109982000D01*
X102997000Y-109982000D01*
X102997000Y-111093250D01*
X103155750Y-111252000D01*
X103632000Y-111255072D01*
X103756482Y-111242812D01*
X103876180Y-111206502D01*
X103986494Y-111147537D01*
X104083185Y-111068185D01*
X104162537Y-110971494D01*
X104221502Y-110861180D01*
X104257812Y-110741482D01*
X104270072Y-110617000D01*
X104268350Y-110350000D01*
X105166928Y-110350000D01*
X105179188Y-110474482D01*
X105215498Y-110594180D01*
X105274463Y-110704494D01*
X105353815Y-110801185D01*
X105450506Y-110880537D01*
X105560820Y-110939502D01*
X105680518Y-110975812D01*
X105805000Y-110988072D01*
X106394250Y-110985000D01*
X106553000Y-110826250D01*
X106553000Y-109764500D01*
X106807000Y-109764500D01*
X106807000Y-110826250D01*
X106965750Y-110985000D01*
X107555000Y-110988072D01*
X107679482Y-110975812D01*
X107799180Y-110939502D01*
X107909494Y-110880537D01*
X108006185Y-110801185D01*
X108085537Y-110704494D01*
X108144502Y-110594180D01*
X108180812Y-110474482D01*
X108193072Y-110350000D01*
X108190000Y-109923250D01*
X108031250Y-109764500D01*
X106807000Y-109764500D01*
X106553000Y-109764500D01*
X105328750Y-109764500D01*
X105170000Y-109923250D01*
X105166928Y-110350000D01*
X104268350Y-110350000D01*
X104267000Y-110140750D01*
X104108250Y-109982000D01*
X102997000Y-109982000D01*
X102743000Y-109982000D01*
X101631750Y-109982000D01*
X101473000Y-110140750D01*
X101469928Y-110617000D01*
X101108078Y-110617000D01*
X101175881Y-110549197D01*
X101295059Y-110370835D01*
X101377150Y-110172650D01*
X101419000Y-109962257D01*
X101419000Y-109747743D01*
X101377150Y-109537350D01*
X101295059Y-109339165D01*
X101175881Y-109160803D01*
X101108078Y-109093000D01*
X101469928Y-109093000D01*
X101473000Y-109569250D01*
X101631750Y-109728000D01*
X102743000Y-109728000D01*
X102743000Y-108616750D01*
X102997000Y-108616750D01*
X102997000Y-109728000D01*
X104108250Y-109728000D01*
X104267000Y-109569250D01*
X104270072Y-109093000D01*
X104257812Y-108968518D01*
X104244611Y-108925000D01*
X105166928Y-108925000D01*
X105170000Y-109351750D01*
X105328750Y-109510500D01*
X106553000Y-109510500D01*
X106553000Y-109490500D01*
X106807000Y-109490500D01*
X106807000Y-109510500D01*
X108031250Y-109510500D01*
X108190000Y-109351750D01*
X108193072Y-108925000D01*
X108180812Y-108800518D01*
X108144502Y-108680820D01*
X108085537Y-108570506D01*
X108006185Y-108473815D01*
X107909494Y-108394463D01*
X107834435Y-108354342D01*
X107926750Y-108316104D01*
X108182190Y-108145424D01*
X108399424Y-107928190D01*
X108570104Y-107672750D01*
X108687670Y-107388920D01*
X108747605Y-107087608D01*
X108747605Y-106780392D01*
X108687670Y-106479080D01*
X108570104Y-106195250D01*
X108399424Y-105939810D01*
X108182190Y-105722576D01*
X107926750Y-105551896D01*
X107642920Y-105434330D01*
X107341608Y-105374395D01*
X107034392Y-105374395D01*
X106733080Y-105434330D01*
X106449250Y-105551896D01*
X106193810Y-105722576D01*
X105976576Y-105939810D01*
X105805896Y-106195250D01*
X105688330Y-106479080D01*
X105628395Y-106780392D01*
X105628395Y-107087608D01*
X105688330Y-107388920D01*
X105805896Y-107672750D01*
X105976576Y-107928190D01*
X106193810Y-108145424D01*
X106449250Y-108316104D01*
X106552998Y-108359078D01*
X106552998Y-108448748D01*
X106394250Y-108290000D01*
X105805000Y-108286928D01*
X105680518Y-108299188D01*
X105560820Y-108335498D01*
X105450506Y-108394463D01*
X105353815Y-108473815D01*
X105274463Y-108570506D01*
X105215498Y-108680820D01*
X105179188Y-108800518D01*
X105166928Y-108925000D01*
X104244611Y-108925000D01*
X104221502Y-108848820D01*
X104162537Y-108738506D01*
X104083185Y-108641815D01*
X103986494Y-108562463D01*
X103876180Y-108503498D01*
X103756482Y-108467188D01*
X103632000Y-108454928D01*
X103155750Y-108458000D01*
X102997000Y-108616750D01*
X102743000Y-108616750D01*
X102584250Y-108458000D01*
X102108000Y-108454928D01*
X101983518Y-108467188D01*
X101863820Y-108503498D01*
X101753506Y-108562463D01*
X101656815Y-108641815D01*
X101577463Y-108738506D01*
X101518498Y-108848820D01*
X101482188Y-108968518D01*
X101469928Y-109093000D01*
X101108078Y-109093000D01*
X101024197Y-109009119D01*
X100857000Y-108897401D01*
X100857000Y-108803289D01*
X102681655Y-106978635D01*
X102763925Y-106995000D01*
X102976075Y-106995000D01*
X103184149Y-106953611D01*
X103380151Y-106872425D01*
X103556547Y-106754560D01*
X103706560Y-106604547D01*
X103824425Y-106428151D01*
X103905611Y-106232149D01*
X103947000Y-106024075D01*
X103947000Y-105811925D01*
X103905611Y-105603851D01*
X103824425Y-105407849D01*
X103706560Y-105231453D01*
X103556547Y-105081440D01*
X103397000Y-104974833D01*
X103397000Y-104702229D01*
X103445376Y-104697465D01*
X103553914Y-104664540D01*
X103653943Y-104611073D01*
X103741619Y-104539119D01*
X103813573Y-104451443D01*
X103867040Y-104351414D01*
X103899965Y-104242876D01*
X103911082Y-104130000D01*
X103911082Y-102880000D01*
X103899965Y-102767124D01*
X103867040Y-102658586D01*
X103813573Y-102558557D01*
X103741619Y-102470881D01*
X103653943Y-102398927D01*
X103553914Y-102345460D01*
X103445376Y-102312535D01*
X103397000Y-102307771D01*
X103397000Y-100990881D01*
X103399549Y-100965000D01*
X103389374Y-100861690D01*
X103359239Y-100762350D01*
X103310304Y-100670798D01*
X103293899Y-100650809D01*
X103244448Y-100590552D01*
X103224339Y-100574049D01*
X102381000Y-99730711D01*
X102381000Y-98125293D01*
X102433381Y-98189119D01*
X102521057Y-98261073D01*
X102621086Y-98314540D01*
X102729624Y-98347465D01*
X102842500Y-98358582D01*
X103767500Y-98358582D01*
X103880376Y-98347465D01*
X103988914Y-98314540D01*
X104088943Y-98261073D01*
X104176619Y-98189119D01*
X104248573Y-98101443D01*
X104302040Y-98001414D01*
X104334965Y-97892876D01*
X104346082Y-97780000D01*
X104346082Y-97682000D01*
X105191711Y-97682000D01*
X105318001Y-97808291D01*
X105318000Y-102307770D01*
X105269624Y-102312535D01*
X105161086Y-102345460D01*
X105061057Y-102398927D01*
X104973381Y-102470881D01*
X104901427Y-102558557D01*
X104847960Y-102658586D01*
X104815035Y-102767124D01*
X104803918Y-102880000D01*
X104803918Y-104130000D01*
X104815035Y-104242876D01*
X104847960Y-104351414D01*
X104901427Y-104451443D01*
X104973381Y-104539119D01*
X105061057Y-104611073D01*
X105161086Y-104664540D01*
X105269624Y-104697465D01*
X105382500Y-104708582D01*
X106307500Y-104708582D01*
X106420376Y-104697465D01*
X106528914Y-104664540D01*
X106628943Y-104611073D01*
X106716619Y-104539119D01*
X106788573Y-104451443D01*
X106842040Y-104351414D01*
X106874965Y-104242876D01*
X106886082Y-104130000D01*
X106886082Y-104032000D01*
X107350711Y-104032000D01*
X108947001Y-105628292D01*
X108947000Y-111541710D01*
X108403211Y-112085500D01*
X107877229Y-112085500D01*
X107872465Y-112037124D01*
X107839540Y-111928586D01*
X107786073Y-111828557D01*
X107714119Y-111740881D01*
X107626443Y-111668927D01*
X107526414Y-111615460D01*
X107417876Y-111582535D01*
X107305000Y-111571418D01*
X106055000Y-111571418D01*
X105942124Y-111582535D01*
X105833586Y-111615460D01*
X105733557Y-111668927D01*
X105645881Y-111740881D01*
X105573927Y-111828557D01*
X105520460Y-111928586D01*
X105487535Y-112037124D01*
X105482771Y-112085500D01*
X103918771Y-112085500D01*
X103917150Y-112077350D01*
X103835059Y-111879165D01*
X103715881Y-111700803D01*
X103564197Y-111549119D01*
X103385835Y-111429941D01*
X103187650Y-111347850D01*
X102977257Y-111306000D01*
X102762743Y-111306000D01*
X102552350Y-111347850D01*
X102354165Y-111429941D01*
X102175803Y-111549119D01*
X102024119Y-111700803D01*
X101904941Y-111879165D01*
X101822850Y-112077350D01*
X101781000Y-112287743D01*
X101781000Y-112502257D01*
X101822850Y-112712650D01*
X101904941Y-112910835D01*
X102024119Y-113089197D01*
X102175803Y-113240881D01*
X102354165Y-113360059D01*
X102552350Y-113442150D01*
X102762743Y-113484000D01*
X102977257Y-113484000D01*
X103187650Y-113442150D01*
X103385835Y-113360059D01*
X103564197Y-113240881D01*
X103665578Y-113139500D01*
X105482771Y-113139500D01*
X105487535Y-113187876D01*
X105520460Y-113296414D01*
X105573927Y-113396443D01*
X105645881Y-113484119D01*
X105733557Y-113556073D01*
X105833586Y-113609540D01*
X105942124Y-113642465D01*
X106055000Y-113653582D01*
X107305000Y-113653582D01*
X107417876Y-113642465D01*
X107526414Y-113609540D01*
X107626443Y-113556073D01*
X107714119Y-113484119D01*
X107786073Y-113396443D01*
X107839540Y-113296414D01*
X107872465Y-113187876D01*
X107877229Y-113139500D01*
X108595619Y-113139500D01*
X108621500Y-113142049D01*
X108647381Y-113139500D01*
X108724810Y-113131874D01*
X108824150Y-113101739D01*
X108915702Y-113052804D01*
X108995948Y-112986948D01*
X109012455Y-112966834D01*
X109828339Y-112150951D01*
X109848448Y-112134448D01*
X109884000Y-112091128D01*
X109884000Y-114456000D01*
X86458000Y-114456000D01*
X86458000Y-104249719D01*
X87435088Y-104249719D01*
X87435088Y-104538281D01*
X87491384Y-104821299D01*
X87601812Y-105087896D01*
X87762129Y-105327827D01*
X87966173Y-105531871D01*
X88206104Y-105692188D01*
X88472701Y-105802616D01*
X88755719Y-105858912D01*
X89044281Y-105858912D01*
X89327299Y-105802616D01*
X89593896Y-105692188D01*
X89833827Y-105531871D01*
X90037871Y-105327827D01*
X90198188Y-105087896D01*
X90308616Y-104821299D01*
X90364912Y-104538281D01*
X90364912Y-104249719D01*
X90308616Y-103966701D01*
X90198188Y-103700104D01*
X90037871Y-103460173D01*
X89833827Y-103256129D01*
X89593896Y-103095812D01*
X89327299Y-102985384D01*
X89044281Y-102929088D01*
X88755719Y-102929088D01*
X88472701Y-102985384D01*
X88206104Y-103095812D01*
X87966173Y-103256129D01*
X87762129Y-103460173D01*
X87601812Y-103700104D01*
X87491384Y-103966701D01*
X87435088Y-104249719D01*
X86458000Y-104249719D01*
X86458000Y-65625056D01*
X88027907Y-65625056D01*
X88027907Y-65946944D01*
X88090704Y-66262647D01*
X88213885Y-66560033D01*
X88392717Y-66827674D01*
X88620326Y-67055283D01*
X88887967Y-67234115D01*
X89185353Y-67357296D01*
X89501056Y-67420093D01*
X89822944Y-67420093D01*
X90138647Y-67357296D01*
X90436033Y-67234115D01*
X90703674Y-67055283D01*
X90931283Y-66827674D01*
X91110115Y-66560033D01*
X91233296Y-66262647D01*
X91296093Y-65946944D01*
X91296093Y-65625056D01*
X91233296Y-65309353D01*
X91110115Y-65011967D01*
X90931283Y-64744326D01*
X90703674Y-64516717D01*
X90436033Y-64337885D01*
X90138647Y-64214704D01*
X89822944Y-64151907D01*
X89501056Y-64151907D01*
X89185353Y-64214704D01*
X88887967Y-64337885D01*
X88620326Y-64516717D01*
X88392717Y-64744326D01*
X88213885Y-65011967D01*
X88090704Y-65309353D01*
X88027907Y-65625056D01*
X86458000Y-65625056D01*
X86458000Y-58264000D01*
X92866001Y-58264000D01*
X92866000Y-66784708D01*
G37*
X92866000Y-66784708D02*
X92864297Y-66802000D01*
X92871093Y-66871004D01*
X92891221Y-66937356D01*
X92923907Y-66998507D01*
X92967894Y-67052106D01*
X93021493Y-67096093D01*
X93082644Y-67128779D01*
X93148996Y-67148907D01*
X93218000Y-67155703D01*
X93235291Y-67154000D01*
X96502709Y-67154000D01*
X96520000Y-67155703D01*
X96589004Y-67148907D01*
X96655356Y-67128779D01*
X96662990Y-67124699D01*
X96662990Y-68664449D01*
X96004440Y-69323000D01*
X91973881Y-69323000D01*
X91948000Y-69320451D01*
X91922119Y-69323000D01*
X91844690Y-69330626D01*
X91745350Y-69360761D01*
X91653798Y-69409696D01*
X91573552Y-69475552D01*
X91557054Y-69495655D01*
X89135710Y-71917000D01*
X89082397Y-71917000D01*
X88941942Y-71944938D01*
X88809636Y-71999741D01*
X88690564Y-72079302D01*
X88589302Y-72180564D01*
X88509741Y-72299636D01*
X88454938Y-72431942D01*
X88427000Y-72572397D01*
X88427000Y-72625710D01*
X87348666Y-73704045D01*
X87328552Y-73720552D01*
X87262696Y-73800798D01*
X87242042Y-73839440D01*
X87213761Y-73892351D01*
X87183626Y-73991691D01*
X87173451Y-74095000D01*
X87176000Y-74120881D01*
X87176001Y-76018770D01*
X87127624Y-76023535D01*
X87019086Y-76056460D01*
X86919057Y-76109927D01*
X86831381Y-76181881D01*
X86759427Y-76269557D01*
X86705960Y-76369586D01*
X86673035Y-76478124D01*
X86661918Y-76591000D01*
X86661918Y-77841000D01*
X86673035Y-77953876D01*
X86705960Y-78062414D01*
X86759427Y-78162443D01*
X86831381Y-78250119D01*
X86919057Y-78322073D01*
X87019086Y-78375540D01*
X87127624Y-78408465D01*
X87176001Y-78413230D01*
X87176000Y-81073119D01*
X87173451Y-81099000D01*
X87176000Y-81124880D01*
X87183626Y-81202309D01*
X87213761Y-81301649D01*
X87262696Y-81393202D01*
X87328552Y-81473448D01*
X87348666Y-81489955D01*
X87773710Y-81915000D01*
X86675653Y-83013058D01*
X86655544Y-83029561D01*
X86598052Y-83099615D01*
X86589687Y-83109808D01*
X86540752Y-83201360D01*
X86510617Y-83300700D01*
X86500442Y-83404009D01*
X86502992Y-83429900D01*
X86502991Y-99704110D01*
X86500442Y-99729991D01*
X86502991Y-99755871D01*
X86510617Y-99833300D01*
X86540752Y-99932640D01*
X86589687Y-100024193D01*
X86655543Y-100104439D01*
X86675657Y-100120946D01*
X87456549Y-100901839D01*
X87473052Y-100921948D01*
X87553298Y-100987804D01*
X87644850Y-101036739D01*
X87744190Y-101066874D01*
X87821619Y-101074500D01*
X87821621Y-101074500D01*
X87847499Y-101077049D01*
X87873377Y-101074500D01*
X88337771Y-101074500D01*
X88342535Y-101122876D01*
X88375460Y-101231414D01*
X88428927Y-101331443D01*
X88500881Y-101419119D01*
X88588557Y-101491073D01*
X88688586Y-101544540D01*
X88797124Y-101577465D01*
X88910000Y-101588582D01*
X90160000Y-101588582D01*
X90272876Y-101577465D01*
X90381414Y-101544540D01*
X90481443Y-101491073D01*
X90569119Y-101419119D01*
X90641073Y-101331443D01*
X90694540Y-101231414D01*
X90727465Y-101122876D01*
X90732229Y-101074500D01*
X91748001Y-101074500D01*
X91748000Y-102307770D01*
X91699624Y-102312535D01*
X91591086Y-102345460D01*
X91491057Y-102398927D01*
X91403381Y-102470881D01*
X91331427Y-102558557D01*
X91277960Y-102658586D01*
X91245035Y-102767124D01*
X91233918Y-102880000D01*
X91233918Y-104130000D01*
X91245035Y-104242876D01*
X91277960Y-104351414D01*
X91331427Y-104451443D01*
X91403381Y-104539119D01*
X91491057Y-104611073D01*
X91591086Y-104664540D01*
X91699624Y-104697465D01*
X91812500Y-104708582D01*
X92737500Y-104708582D01*
X92818000Y-104700654D01*
X92818000Y-106153000D01*
X92637167Y-106153000D01*
X92530560Y-105993453D01*
X92380547Y-105843440D01*
X92204151Y-105725575D01*
X92008149Y-105644389D01*
X91800075Y-105603000D01*
X91587925Y-105603000D01*
X91379851Y-105644389D01*
X91183849Y-105725575D01*
X91007453Y-105843440D01*
X90857440Y-105993453D01*
X90739575Y-106169849D01*
X90658389Y-106365851D01*
X90617000Y-106573925D01*
X90617000Y-106786075D01*
X90658389Y-106994149D01*
X90739575Y-107190151D01*
X90857440Y-107366547D01*
X91007453Y-107516560D01*
X91183849Y-107634425D01*
X91379851Y-107715611D01*
X91587925Y-107757000D01*
X91800075Y-107757000D01*
X92008149Y-107715611D01*
X92204151Y-107634425D01*
X92380547Y-107516560D01*
X92530560Y-107366547D01*
X92637167Y-107207000D01*
X92818000Y-107207000D01*
X92818001Y-110464109D01*
X92815451Y-110490000D01*
X92825626Y-110593309D01*
X92855761Y-110692649D01*
X92886711Y-110750553D01*
X92904697Y-110784202D01*
X92970553Y-110864448D01*
X92990661Y-110880950D01*
X93589053Y-111479344D01*
X93605552Y-111499448D01*
X93685798Y-111565304D01*
X93777350Y-111614239D01*
X93876690Y-111644374D01*
X93980000Y-111654549D01*
X94005881Y-111652000D01*
X94452922Y-111652000D01*
X94404119Y-111700803D01*
X94284941Y-111879165D01*
X94202850Y-112077350D01*
X94161000Y-112287743D01*
X94161000Y-112502257D01*
X94202850Y-112712650D01*
X94284941Y-112910835D01*
X94404119Y-113089197D01*
X94555803Y-113240881D01*
X94734165Y-113360059D01*
X94932350Y-113442150D01*
X95142743Y-113484000D01*
X95357257Y-113484000D01*
X95567650Y-113442150D01*
X95765835Y-113360059D01*
X95944197Y-113240881D01*
X96095881Y-113089197D01*
X96215059Y-112910835D01*
X96297150Y-112712650D01*
X96339000Y-112502257D01*
X96339000Y-112287743D01*
X96297150Y-112077350D01*
X96215059Y-111879165D01*
X96095881Y-111700803D01*
X96047078Y-111652000D01*
X96301711Y-111652000D01*
X96740230Y-112090520D01*
X96701000Y-112287743D01*
X96701000Y-112502257D01*
X96742850Y-112712650D01*
X96824941Y-112910835D01*
X96944119Y-113089197D01*
X97095803Y-113240881D01*
X97274165Y-113360059D01*
X97472350Y-113442150D01*
X97682743Y-113484000D01*
X97897257Y-113484000D01*
X98107650Y-113442150D01*
X98305835Y-113360059D01*
X98484197Y-113240881D01*
X98635881Y-113089197D01*
X98755059Y-112910835D01*
X98837150Y-112712650D01*
X98879000Y-112502257D01*
X98879000Y-112287743D01*
X98837150Y-112077350D01*
X98755059Y-111879165D01*
X98635881Y-111700803D01*
X98484197Y-111549119D01*
X98305835Y-111429941D01*
X98107650Y-111347850D01*
X97897257Y-111306000D01*
X97682743Y-111306000D01*
X97485520Y-111345230D01*
X96910955Y-110770666D01*
X96894448Y-110750552D01*
X96814202Y-110684696D01*
X96722650Y-110635761D01*
X96623310Y-110605626D01*
X96545881Y-110598000D01*
X96520000Y-110595451D01*
X96494119Y-110598000D01*
X96047078Y-110598000D01*
X96095881Y-110549197D01*
X96215059Y-110370835D01*
X96297150Y-110172650D01*
X96339000Y-109962257D01*
X96339000Y-109747743D01*
X96297150Y-109537350D01*
X96215059Y-109339165D01*
X96095881Y-109160803D01*
X95944197Y-109009119D01*
X95777000Y-108897401D01*
X95777000Y-107623167D01*
X95936547Y-107516560D01*
X96086560Y-107366547D01*
X96204425Y-107190151D01*
X96285611Y-106994149D01*
X96327000Y-106786075D01*
X96327000Y-106573925D01*
X96285611Y-106365851D01*
X96204425Y-106169849D01*
X96086560Y-105993453D01*
X95936547Y-105843440D01*
X95777000Y-105736833D01*
X95777000Y-104702229D01*
X95825376Y-104697465D01*
X95933914Y-104664540D01*
X96033943Y-104611073D01*
X96121619Y-104539119D01*
X96193573Y-104451443D01*
X96247040Y-104351414D01*
X96279965Y-104242876D01*
X96291082Y-104130000D01*
X96291082Y-102880000D01*
X96279965Y-102767124D01*
X96247040Y-102658586D01*
X96193573Y-102558557D01*
X96121619Y-102470881D01*
X96033943Y-102398927D01*
X95933914Y-102345460D01*
X95825376Y-102312535D01*
X95793858Y-102309431D01*
X97128339Y-100974951D01*
X97148448Y-100958448D01*
X97214304Y-100878202D01*
X97263000Y-100787096D01*
X97263000Y-102307770D01*
X97214624Y-102312535D01*
X97106086Y-102345460D01*
X97006057Y-102398927D01*
X96918381Y-102470881D01*
X96846427Y-102558557D01*
X96792960Y-102658586D01*
X96760035Y-102767124D01*
X96748918Y-102880000D01*
X96748918Y-104130000D01*
X96760035Y-104242876D01*
X96792960Y-104351414D01*
X96846427Y-104451443D01*
X96918381Y-104539119D01*
X97006057Y-104611073D01*
X97106086Y-104664540D01*
X97214624Y-104697465D01*
X97263001Y-104702230D01*
X97263000Y-108897401D01*
X97095803Y-109009119D01*
X96944119Y-109160803D01*
X96824941Y-109339165D01*
X96742850Y-109537350D01*
X96701000Y-109747743D01*
X96701000Y-109962257D01*
X96742850Y-110172650D01*
X96824941Y-110370835D01*
X96944119Y-110549197D01*
X97095803Y-110700881D01*
X97274165Y-110820059D01*
X97472350Y-110902150D01*
X97682743Y-110944000D01*
X97897257Y-110944000D01*
X98107650Y-110902150D01*
X98305835Y-110820059D01*
X98484197Y-110700881D01*
X98533001Y-110652077D01*
X98533001Y-111099109D01*
X98530451Y-111125000D01*
X98540626Y-111228309D01*
X98570761Y-111327649D01*
X98570762Y-111327650D01*
X98619697Y-111419202D01*
X98685553Y-111499448D01*
X98705662Y-111515951D01*
X99280230Y-112090520D01*
X99241000Y-112287743D01*
X99241000Y-112502257D01*
X99282850Y-112712650D01*
X99364941Y-112910835D01*
X99484119Y-113089197D01*
X99635803Y-113240881D01*
X99814165Y-113360059D01*
X100012350Y-113442150D01*
X100222743Y-113484000D01*
X100437257Y-113484000D01*
X100647650Y-113442150D01*
X100845835Y-113360059D01*
X101024197Y-113240881D01*
X101175881Y-113089197D01*
X101295059Y-112910835D01*
X101377150Y-112712650D01*
X101419000Y-112502257D01*
X101419000Y-112287743D01*
X101377150Y-112077350D01*
X101295059Y-111879165D01*
X101175881Y-111700803D01*
X101024197Y-111549119D01*
X100845835Y-111429941D01*
X100647650Y-111347850D01*
X100437257Y-111306000D01*
X100222743Y-111306000D01*
X100025520Y-111345230D01*
X99587000Y-110906711D01*
X99587000Y-110652078D01*
X99635803Y-110700881D01*
X99814165Y-110820059D01*
X100012350Y-110902150D01*
X100222743Y-110944000D01*
X100437257Y-110944000D01*
X100647650Y-110902150D01*
X100845835Y-110820059D01*
X101024197Y-110700881D01*
X101108078Y-110617000D01*
X101469928Y-110617000D01*
X101482188Y-110741482D01*
X101518498Y-110861180D01*
X101577463Y-110971494D01*
X101656815Y-111068185D01*
X101753506Y-111147537D01*
X101863820Y-111206502D01*
X101983518Y-111242812D01*
X102108000Y-111255072D01*
X102584250Y-111252000D01*
X102743000Y-111093250D01*
X102743000Y-109982000D01*
X102997000Y-109982000D01*
X102997000Y-111093250D01*
X103155750Y-111252000D01*
X103632000Y-111255072D01*
X103756482Y-111242812D01*
X103876180Y-111206502D01*
X103986494Y-111147537D01*
X104083185Y-111068185D01*
X104162537Y-110971494D01*
X104221502Y-110861180D01*
X104257812Y-110741482D01*
X104270072Y-110617000D01*
X104268350Y-110350000D01*
X105166928Y-110350000D01*
X105179188Y-110474482D01*
X105215498Y-110594180D01*
X105274463Y-110704494D01*
X105353815Y-110801185D01*
X105450506Y-110880537D01*
X105560820Y-110939502D01*
X105680518Y-110975812D01*
X105805000Y-110988072D01*
X106394250Y-110985000D01*
X106553000Y-110826250D01*
X106553000Y-109764500D01*
X106807000Y-109764500D01*
X106807000Y-110826250D01*
X106965750Y-110985000D01*
X107555000Y-110988072D01*
X107679482Y-110975812D01*
X107799180Y-110939502D01*
X107909494Y-110880537D01*
X108006185Y-110801185D01*
X108085537Y-110704494D01*
X108144502Y-110594180D01*
X108180812Y-110474482D01*
X108193072Y-110350000D01*
X108190000Y-109923250D01*
X108031250Y-109764500D01*
X106807000Y-109764500D01*
X106553000Y-109764500D01*
X105328750Y-109764500D01*
X105170000Y-109923250D01*
X105166928Y-110350000D01*
X104268350Y-110350000D01*
X104267000Y-110140750D01*
X104108250Y-109982000D01*
X102997000Y-109982000D01*
X102743000Y-109982000D01*
X101631750Y-109982000D01*
X101473000Y-110140750D01*
X101469928Y-110617000D01*
X101108078Y-110617000D01*
X101175881Y-110549197D01*
X101295059Y-110370835D01*
X101377150Y-110172650D01*
X101419000Y-109962257D01*
X101419000Y-109747743D01*
X101377150Y-109537350D01*
X101295059Y-109339165D01*
X101175881Y-109160803D01*
X101108078Y-109093000D01*
X101469928Y-109093000D01*
X101473000Y-109569250D01*
X101631750Y-109728000D01*
X102743000Y-109728000D01*
X102743000Y-108616750D01*
X102997000Y-108616750D01*
X102997000Y-109728000D01*
X104108250Y-109728000D01*
X104267000Y-109569250D01*
X104270072Y-109093000D01*
X104257812Y-108968518D01*
X104244611Y-108925000D01*
X105166928Y-108925000D01*
X105170000Y-109351750D01*
X105328750Y-109510500D01*
X106553000Y-109510500D01*
X106553000Y-109490500D01*
X106807000Y-109490500D01*
X106807000Y-109510500D01*
X108031250Y-109510500D01*
X108190000Y-109351750D01*
X108193072Y-108925000D01*
X108180812Y-108800518D01*
X108144502Y-108680820D01*
X108085537Y-108570506D01*
X108006185Y-108473815D01*
X107909494Y-108394463D01*
X107834435Y-108354342D01*
X107926750Y-108316104D01*
X108182190Y-108145424D01*
X108399424Y-107928190D01*
X108570104Y-107672750D01*
X108687670Y-107388920D01*
X108747605Y-107087608D01*
X108747605Y-106780392D01*
X108687670Y-106479080D01*
X108570104Y-106195250D01*
X108399424Y-105939810D01*
X108182190Y-105722576D01*
X107926750Y-105551896D01*
X107642920Y-105434330D01*
X107341608Y-105374395D01*
X107034392Y-105374395D01*
X106733080Y-105434330D01*
X106449250Y-105551896D01*
X106193810Y-105722576D01*
X105976576Y-105939810D01*
X105805896Y-106195250D01*
X105688330Y-106479080D01*
X105628395Y-106780392D01*
X105628395Y-107087608D01*
X105688330Y-107388920D01*
X105805896Y-107672750D01*
X105976576Y-107928190D01*
X106193810Y-108145424D01*
X106449250Y-108316104D01*
X106552998Y-108359078D01*
X106552998Y-108448748D01*
X106394250Y-108290000D01*
X105805000Y-108286928D01*
X105680518Y-108299188D01*
X105560820Y-108335498D01*
X105450506Y-108394463D01*
X105353815Y-108473815D01*
X105274463Y-108570506D01*
X105215498Y-108680820D01*
X105179188Y-108800518D01*
X105166928Y-108925000D01*
X104244611Y-108925000D01*
X104221502Y-108848820D01*
X104162537Y-108738506D01*
X104083185Y-108641815D01*
X103986494Y-108562463D01*
X103876180Y-108503498D01*
X103756482Y-108467188D01*
X103632000Y-108454928D01*
X103155750Y-108458000D01*
X102997000Y-108616750D01*
X102743000Y-108616750D01*
X102584250Y-108458000D01*
X102108000Y-108454928D01*
X101983518Y-108467188D01*
X101863820Y-108503498D01*
X101753506Y-108562463D01*
X101656815Y-108641815D01*
X101577463Y-108738506D01*
X101518498Y-108848820D01*
X101482188Y-108968518D01*
X101469928Y-109093000D01*
X101108078Y-109093000D01*
X101024197Y-109009119D01*
X100857000Y-108897401D01*
X100857000Y-108803289D01*
X102681655Y-106978635D01*
X102763925Y-106995000D01*
X102976075Y-106995000D01*
X103184149Y-106953611D01*
X103380151Y-106872425D01*
X103556547Y-106754560D01*
X103706560Y-106604547D01*
X103824425Y-106428151D01*
X103905611Y-106232149D01*
X103947000Y-106024075D01*
X103947000Y-105811925D01*
X103905611Y-105603851D01*
X103824425Y-105407849D01*
X103706560Y-105231453D01*
X103556547Y-105081440D01*
X103397000Y-104974833D01*
X103397000Y-104702229D01*
X103445376Y-104697465D01*
X103553914Y-104664540D01*
X103653943Y-104611073D01*
X103741619Y-104539119D01*
X103813573Y-104451443D01*
X103867040Y-104351414D01*
X103899965Y-104242876D01*
X103911082Y-104130000D01*
X103911082Y-102880000D01*
X103899965Y-102767124D01*
X103867040Y-102658586D01*
X103813573Y-102558557D01*
X103741619Y-102470881D01*
X103653943Y-102398927D01*
X103553914Y-102345460D01*
X103445376Y-102312535D01*
X103397000Y-102307771D01*
X103397000Y-100990881D01*
X103399549Y-100965000D01*
X103389374Y-100861690D01*
X103359239Y-100762350D01*
X103310304Y-100670798D01*
X103293899Y-100650809D01*
X103244448Y-100590552D01*
X103224339Y-100574049D01*
X102381000Y-99730711D01*
X102381000Y-98125293D01*
X102433381Y-98189119D01*
X102521057Y-98261073D01*
X102621086Y-98314540D01*
X102729624Y-98347465D01*
X102842500Y-98358582D01*
X103767500Y-98358582D01*
X103880376Y-98347465D01*
X103988914Y-98314540D01*
X104088943Y-98261073D01*
X104176619Y-98189119D01*
X104248573Y-98101443D01*
X104302040Y-98001414D01*
X104334965Y-97892876D01*
X104346082Y-97780000D01*
X104346082Y-97682000D01*
X105191711Y-97682000D01*
X105318001Y-97808291D01*
X105318000Y-102307770D01*
X105269624Y-102312535D01*
X105161086Y-102345460D01*
X105061057Y-102398927D01*
X104973381Y-102470881D01*
X104901427Y-102558557D01*
X104847960Y-102658586D01*
X104815035Y-102767124D01*
X104803918Y-102880000D01*
X104803918Y-104130000D01*
X104815035Y-104242876D01*
X104847960Y-104351414D01*
X104901427Y-104451443D01*
X104973381Y-104539119D01*
X105061057Y-104611073D01*
X105161086Y-104664540D01*
X105269624Y-104697465D01*
X105382500Y-104708582D01*
X106307500Y-104708582D01*
X106420376Y-104697465D01*
X106528914Y-104664540D01*
X106628943Y-104611073D01*
X106716619Y-104539119D01*
X106788573Y-104451443D01*
X106842040Y-104351414D01*
X106874965Y-104242876D01*
X106886082Y-104130000D01*
X106886082Y-104032000D01*
X107350711Y-104032000D01*
X108947001Y-105628292D01*
X108947000Y-111541710D01*
X108403211Y-112085500D01*
X107877229Y-112085500D01*
X107872465Y-112037124D01*
X107839540Y-111928586D01*
X107786073Y-111828557D01*
X107714119Y-111740881D01*
X107626443Y-111668927D01*
X107526414Y-111615460D01*
X107417876Y-111582535D01*
X107305000Y-111571418D01*
X106055000Y-111571418D01*
X105942124Y-111582535D01*
X105833586Y-111615460D01*
X105733557Y-111668927D01*
X105645881Y-111740881D01*
X105573927Y-111828557D01*
X105520460Y-111928586D01*
X105487535Y-112037124D01*
X105482771Y-112085500D01*
X103918771Y-112085500D01*
X103917150Y-112077350D01*
X103835059Y-111879165D01*
X103715881Y-111700803D01*
X103564197Y-111549119D01*
X103385835Y-111429941D01*
X103187650Y-111347850D01*
X102977257Y-111306000D01*
X102762743Y-111306000D01*
X102552350Y-111347850D01*
X102354165Y-111429941D01*
X102175803Y-111549119D01*
X102024119Y-111700803D01*
X101904941Y-111879165D01*
X101822850Y-112077350D01*
X101781000Y-112287743D01*
X101781000Y-112502257D01*
X101822850Y-112712650D01*
X101904941Y-112910835D01*
X102024119Y-113089197D01*
X102175803Y-113240881D01*
X102354165Y-113360059D01*
X102552350Y-113442150D01*
X102762743Y-113484000D01*
X102977257Y-113484000D01*
X103187650Y-113442150D01*
X103385835Y-113360059D01*
X103564197Y-113240881D01*
X103665578Y-113139500D01*
X105482771Y-113139500D01*
X105487535Y-113187876D01*
X105520460Y-113296414D01*
X105573927Y-113396443D01*
X105645881Y-113484119D01*
X105733557Y-113556073D01*
X105833586Y-113609540D01*
X105942124Y-113642465D01*
X106055000Y-113653582D01*
X107305000Y-113653582D01*
X107417876Y-113642465D01*
X107526414Y-113609540D01*
X107626443Y-113556073D01*
X107714119Y-113484119D01*
X107786073Y-113396443D01*
X107839540Y-113296414D01*
X107872465Y-113187876D01*
X107877229Y-113139500D01*
X108595619Y-113139500D01*
X108621500Y-113142049D01*
X108647381Y-113139500D01*
X108724810Y-113131874D01*
X108824150Y-113101739D01*
X108915702Y-113052804D01*
X108995948Y-112986948D01*
X109012455Y-112966834D01*
X109828339Y-112150951D01*
X109848448Y-112134448D01*
X109884000Y-112091128D01*
X109884000Y-114456000D01*
X86458000Y-114456000D01*
X86458000Y-104249719D01*
X87435088Y-104249719D01*
X87435088Y-104538281D01*
X87491384Y-104821299D01*
X87601812Y-105087896D01*
X87762129Y-105327827D01*
X87966173Y-105531871D01*
X88206104Y-105692188D01*
X88472701Y-105802616D01*
X88755719Y-105858912D01*
X89044281Y-105858912D01*
X89327299Y-105802616D01*
X89593896Y-105692188D01*
X89833827Y-105531871D01*
X90037871Y-105327827D01*
X90198188Y-105087896D01*
X90308616Y-104821299D01*
X90364912Y-104538281D01*
X90364912Y-104249719D01*
X90308616Y-103966701D01*
X90198188Y-103700104D01*
X90037871Y-103460173D01*
X89833827Y-103256129D01*
X89593896Y-103095812D01*
X89327299Y-102985384D01*
X89044281Y-102929088D01*
X88755719Y-102929088D01*
X88472701Y-102985384D01*
X88206104Y-103095812D01*
X87966173Y-103256129D01*
X87762129Y-103460173D01*
X87601812Y-103700104D01*
X87491384Y-103966701D01*
X87435088Y-104249719D01*
X86458000Y-104249719D01*
X86458000Y-65625056D01*
X88027907Y-65625056D01*
X88027907Y-65946944D01*
X88090704Y-66262647D01*
X88213885Y-66560033D01*
X88392717Y-66827674D01*
X88620326Y-67055283D01*
X88887967Y-67234115D01*
X89185353Y-67357296D01*
X89501056Y-67420093D01*
X89822944Y-67420093D01*
X90138647Y-67357296D01*
X90436033Y-67234115D01*
X90703674Y-67055283D01*
X90931283Y-66827674D01*
X91110115Y-66560033D01*
X91233296Y-66262647D01*
X91296093Y-65946944D01*
X91296093Y-65625056D01*
X91233296Y-65309353D01*
X91110115Y-65011967D01*
X90931283Y-64744326D01*
X90703674Y-64516717D01*
X90436033Y-64337885D01*
X90138647Y-64214704D01*
X89822944Y-64151907D01*
X89501056Y-64151907D01*
X89185353Y-64214704D01*
X88887967Y-64337885D01*
X88620326Y-64516717D01*
X88392717Y-64744326D01*
X88213885Y-65011967D01*
X88090704Y-65309353D01*
X88027907Y-65625056D01*
X86458000Y-65625056D01*
X86458000Y-58264000D01*
X92866001Y-58264000D01*
X92866000Y-66784708D01*
G36*
X101327001Y-99923109D02*
G01*
X101324451Y-99949000D01*
X101334626Y-100052309D01*
X101364761Y-100151649D01*
X101413696Y-100243201D01*
X101413697Y-100243202D01*
X101479553Y-100323448D01*
X101499662Y-100339951D01*
X102343000Y-101183290D01*
X102343001Y-102307770D01*
X102294624Y-102312535D01*
X102186086Y-102345460D01*
X102086057Y-102398927D01*
X102073984Y-102408835D01*
X102067002Y-102385820D01*
X102008037Y-102275506D01*
X101928685Y-102178815D01*
X101831994Y-102099463D01*
X101721680Y-102040498D01*
X101601982Y-102004188D01*
X101477500Y-101991928D01*
X101050750Y-101995000D01*
X100892000Y-102153750D01*
X100892000Y-103378000D01*
X100912000Y-103378000D01*
X100912000Y-103632000D01*
X100892000Y-103632000D01*
X100892000Y-104856250D01*
X101050750Y-105015000D01*
X101477500Y-105018072D01*
X101601982Y-105005812D01*
X101721680Y-104969502D01*
X101831994Y-104910537D01*
X101928685Y-104831185D01*
X102008037Y-104734494D01*
X102067002Y-104624180D01*
X102073984Y-104601165D01*
X102086057Y-104611073D01*
X102186086Y-104664540D01*
X102294624Y-104697465D01*
X102343001Y-104702230D01*
X102343000Y-104974833D01*
X102183453Y-105081440D01*
X102033440Y-105231453D01*
X101915575Y-105407849D01*
X101834389Y-105603851D01*
X101793000Y-105811925D01*
X101793000Y-106024075D01*
X101834389Y-106232149D01*
X101864607Y-106305103D01*
X99975662Y-108194049D01*
X99955553Y-108210552D01*
X99898061Y-108280606D01*
X99889696Y-108290799D01*
X99840761Y-108382351D01*
X99810626Y-108481691D01*
X99800451Y-108585000D01*
X99803001Y-108610890D01*
X99803001Y-108897401D01*
X99635803Y-109009119D01*
X99587000Y-109057922D01*
X99587000Y-104813742D01*
X99601315Y-104831185D01*
X99698006Y-104910537D01*
X99808320Y-104969502D01*
X99928018Y-105005812D01*
X100052500Y-105018072D01*
X100479250Y-105015000D01*
X100638000Y-104856250D01*
X100638000Y-103632000D01*
X100618000Y-103632000D01*
X100618000Y-103378000D01*
X100638000Y-103378000D01*
X100638000Y-102153750D01*
X100479250Y-101995000D01*
X100052500Y-101991928D01*
X99928018Y-102004188D01*
X99808320Y-102040498D01*
X99698006Y-102099463D01*
X99601315Y-102178815D01*
X99587000Y-102196258D01*
X99587000Y-101381355D01*
X99715925Y-101407000D01*
X99928075Y-101407000D01*
X100136149Y-101365611D01*
X100332151Y-101284425D01*
X100508547Y-101166560D01*
X100658560Y-101016547D01*
X100776425Y-100840151D01*
X100857611Y-100644149D01*
X100899000Y-100436075D01*
X100899000Y-100223925D01*
X100857611Y-100015851D01*
X100813274Y-99908810D01*
X100819239Y-99897650D01*
X100849374Y-99798310D01*
X100857000Y-99720881D01*
X100859549Y-99695001D01*
X100857000Y-99669120D01*
X100857000Y-98352229D01*
X100905376Y-98347465D01*
X101013914Y-98314540D01*
X101113943Y-98261073D01*
X101201619Y-98189119D01*
X101273573Y-98101443D01*
X101327001Y-98001488D01*
X101327001Y-99923109D01*
G37*
X101327001Y-99923109D02*
X101324451Y-99949000D01*
X101334626Y-100052309D01*
X101364761Y-100151649D01*
X101413696Y-100243201D01*
X101413697Y-100243202D01*
X101479553Y-100323448D01*
X101499662Y-100339951D01*
X102343000Y-101183290D01*
X102343001Y-102307770D01*
X102294624Y-102312535D01*
X102186086Y-102345460D01*
X102086057Y-102398927D01*
X102073984Y-102408835D01*
X102067002Y-102385820D01*
X102008037Y-102275506D01*
X101928685Y-102178815D01*
X101831994Y-102099463D01*
X101721680Y-102040498D01*
X101601982Y-102004188D01*
X101477500Y-101991928D01*
X101050750Y-101995000D01*
X100892000Y-102153750D01*
X100892000Y-103378000D01*
X100912000Y-103378000D01*
X100912000Y-103632000D01*
X100892000Y-103632000D01*
X100892000Y-104856250D01*
X101050750Y-105015000D01*
X101477500Y-105018072D01*
X101601982Y-105005812D01*
X101721680Y-104969502D01*
X101831994Y-104910537D01*
X101928685Y-104831185D01*
X102008037Y-104734494D01*
X102067002Y-104624180D01*
X102073984Y-104601165D01*
X102086057Y-104611073D01*
X102186086Y-104664540D01*
X102294624Y-104697465D01*
X102343001Y-104702230D01*
X102343000Y-104974833D01*
X102183453Y-105081440D01*
X102033440Y-105231453D01*
X101915575Y-105407849D01*
X101834389Y-105603851D01*
X101793000Y-105811925D01*
X101793000Y-106024075D01*
X101834389Y-106232149D01*
X101864607Y-106305103D01*
X99975662Y-108194049D01*
X99955553Y-108210552D01*
X99898061Y-108280606D01*
X99889696Y-108290799D01*
X99840761Y-108382351D01*
X99810626Y-108481691D01*
X99800451Y-108585000D01*
X99803001Y-108610890D01*
X99803001Y-108897401D01*
X99635803Y-109009119D01*
X99587000Y-109057922D01*
X99587000Y-104813742D01*
X99601315Y-104831185D01*
X99698006Y-104910537D01*
X99808320Y-104969502D01*
X99928018Y-105005812D01*
X100052500Y-105018072D01*
X100479250Y-105015000D01*
X100638000Y-104856250D01*
X100638000Y-103632000D01*
X100618000Y-103632000D01*
X100618000Y-103378000D01*
X100638000Y-103378000D01*
X100638000Y-102153750D01*
X100479250Y-101995000D01*
X100052500Y-101991928D01*
X99928018Y-102004188D01*
X99808320Y-102040498D01*
X99698006Y-102099463D01*
X99601315Y-102178815D01*
X99587000Y-102196258D01*
X99587000Y-101381355D01*
X99715925Y-101407000D01*
X99928075Y-101407000D01*
X100136149Y-101365611D01*
X100332151Y-101284425D01*
X100508547Y-101166560D01*
X100658560Y-101016547D01*
X100776425Y-100840151D01*
X100857611Y-100644149D01*
X100899000Y-100436075D01*
X100899000Y-100223925D01*
X100857611Y-100015851D01*
X100813274Y-99908810D01*
X100819239Y-99897650D01*
X100849374Y-99798310D01*
X100857000Y-99720881D01*
X100859549Y-99695001D01*
X100857000Y-99669120D01*
X100857000Y-98352229D01*
X100905376Y-98347465D01*
X101013914Y-98314540D01*
X101113943Y-98261073D01*
X101201619Y-98189119D01*
X101273573Y-98101443D01*
X101327001Y-98001488D01*
X101327001Y-99923109D01*
G36*
X109884000Y-105078873D02*
G01*
X109848448Y-105035552D01*
X109828344Y-105019054D01*
X107959955Y-103150666D01*
X107943448Y-103130552D01*
X107863202Y-103064696D01*
X107771650Y-103015761D01*
X107672310Y-102985626D01*
X107594881Y-102978000D01*
X107569000Y-102975451D01*
X107543119Y-102978000D01*
X106886082Y-102978000D01*
X106886082Y-102880000D01*
X106874965Y-102767124D01*
X106842040Y-102658586D01*
X106788573Y-102558557D01*
X106716619Y-102470881D01*
X106628943Y-102398927D01*
X106528914Y-102345460D01*
X106420376Y-102312535D01*
X106372000Y-102307771D01*
X106372000Y-97615881D01*
X106374549Y-97590000D01*
X106364374Y-97486690D01*
X106334239Y-97387351D01*
X106334239Y-97387350D01*
X106285304Y-97295798D01*
X106219448Y-97215552D01*
X106199339Y-97199049D01*
X105800955Y-96800666D01*
X105784448Y-96780552D01*
X105704202Y-96714696D01*
X105612650Y-96665761D01*
X105513310Y-96635626D01*
X105435881Y-96628000D01*
X105410000Y-96625451D01*
X105384119Y-96628000D01*
X104346082Y-96628000D01*
X104346082Y-96530000D01*
X104334965Y-96417124D01*
X104302040Y-96308586D01*
X104248573Y-96208557D01*
X104176619Y-96120881D01*
X104088943Y-96048927D01*
X103988914Y-95995460D01*
X103880376Y-95962535D01*
X103832000Y-95957771D01*
X103832000Y-95541289D01*
X105256339Y-94116951D01*
X105276448Y-94100448D01*
X105342304Y-94020202D01*
X105391239Y-93928650D01*
X105421374Y-93829310D01*
X105423900Y-93803664D01*
X105431549Y-93726001D01*
X105429974Y-93710000D01*
X106793928Y-93710000D01*
X106806188Y-93834482D01*
X106842498Y-93954180D01*
X106901463Y-94064494D01*
X106980815Y-94161185D01*
X107077506Y-94240537D01*
X107187820Y-94299502D01*
X107307518Y-94335812D01*
X107432000Y-94348072D01*
X107546250Y-94345000D01*
X107705000Y-94186250D01*
X107705000Y-92837000D01*
X107959000Y-92837000D01*
X107959000Y-94186250D01*
X108117750Y-94345000D01*
X108232000Y-94348072D01*
X108356482Y-94335812D01*
X108476180Y-94299502D01*
X108586494Y-94240537D01*
X108683185Y-94161185D01*
X108762537Y-94064494D01*
X108821502Y-93954180D01*
X108857812Y-93834482D01*
X108870072Y-93710000D01*
X108867000Y-92995750D01*
X108708250Y-92837000D01*
X107959000Y-92837000D01*
X107705000Y-92837000D01*
X106955750Y-92837000D01*
X106797000Y-92995750D01*
X106793928Y-93710000D01*
X105429974Y-93710000D01*
X105429000Y-93700120D01*
X105429000Y-91710000D01*
X106793928Y-91710000D01*
X106797000Y-92424250D01*
X106955750Y-92583000D01*
X107705000Y-92583000D01*
X107705000Y-91233750D01*
X107959000Y-91233750D01*
X107959000Y-92583000D01*
X108708250Y-92583000D01*
X108867000Y-92424250D01*
X108870072Y-91710000D01*
X108857812Y-91585518D01*
X108821502Y-91465820D01*
X108762537Y-91355506D01*
X108683185Y-91258815D01*
X108586494Y-91179463D01*
X108476180Y-91120498D01*
X108356482Y-91084188D01*
X108232000Y-91071928D01*
X108117750Y-91075000D01*
X107959000Y-91233750D01*
X107705000Y-91233750D01*
X107546250Y-91075000D01*
X107432000Y-91071928D01*
X107307518Y-91084188D01*
X107187820Y-91120498D01*
X107077506Y-91179463D01*
X106980815Y-91258815D01*
X106901463Y-91355506D01*
X106842498Y-91465820D01*
X106806188Y-91585518D01*
X106793928Y-91710000D01*
X105429000Y-91710000D01*
X105429000Y-90560388D01*
X105450506Y-90578037D01*
X105560820Y-90637002D01*
X105680518Y-90673312D01*
X105805000Y-90685572D01*
X106394250Y-90682500D01*
X106553000Y-90523750D01*
X106553000Y-89462000D01*
X106807000Y-89462000D01*
X106807000Y-90523750D01*
X106965750Y-90682500D01*
X107555000Y-90685572D01*
X107679482Y-90673312D01*
X107799180Y-90637002D01*
X107909494Y-90578037D01*
X108006185Y-90498685D01*
X108085537Y-90401994D01*
X108144502Y-90291680D01*
X108180812Y-90171982D01*
X108193072Y-90047500D01*
X108190000Y-89620750D01*
X108031250Y-89462000D01*
X106807000Y-89462000D01*
X106553000Y-89462000D01*
X106533000Y-89462000D01*
X106533000Y-89208000D01*
X106553000Y-89208000D01*
X106553000Y-89188000D01*
X106807000Y-89188000D01*
X106807000Y-89208000D01*
X108031250Y-89208000D01*
X108190000Y-89049250D01*
X108193072Y-88622500D01*
X108180812Y-88498018D01*
X108144502Y-88378320D01*
X108085537Y-88268006D01*
X108006185Y-88171315D01*
X107909494Y-88091963D01*
X107799180Y-88032998D01*
X107679482Y-87996688D01*
X107555000Y-87984428D01*
X106965750Y-87987500D01*
X106807002Y-88146248D01*
X106807002Y-87994288D01*
X107034339Y-87766951D01*
X107054448Y-87750448D01*
X107120304Y-87670202D01*
X107169239Y-87578650D01*
X107199374Y-87479310D01*
X107207000Y-87401881D01*
X107207000Y-87401879D01*
X107207079Y-87401082D01*
X107305000Y-87401082D01*
X107417876Y-87389965D01*
X107526414Y-87357040D01*
X107626443Y-87303573D01*
X107714119Y-87231619D01*
X107786073Y-87143943D01*
X107839540Y-87043914D01*
X107872465Y-86935376D01*
X107883582Y-86822500D01*
X107883582Y-85897500D01*
X107872465Y-85784624D01*
X107839540Y-85676086D01*
X107786073Y-85576057D01*
X107714119Y-85488381D01*
X107626443Y-85416427D01*
X107526414Y-85362960D01*
X107417876Y-85330035D01*
X107305000Y-85318918D01*
X107207000Y-85318918D01*
X107207000Y-83845877D01*
X107209549Y-83819999D01*
X107207000Y-83794119D01*
X107199374Y-83716690D01*
X107169239Y-83617350D01*
X107120304Y-83525798D01*
X107054448Y-83445552D01*
X107034339Y-83429049D01*
X102873711Y-79268422D01*
X102857204Y-79248308D01*
X102776958Y-79182452D01*
X102685406Y-79133517D01*
X102586066Y-79103382D01*
X102508637Y-79095756D01*
X102482756Y-79093207D01*
X102456875Y-79095756D01*
X97736000Y-79095756D01*
X97736000Y-78413229D01*
X97784376Y-78408465D01*
X97892914Y-78375540D01*
X97992943Y-78322073D01*
X98080619Y-78250119D01*
X98152573Y-78162443D01*
X98206040Y-78062414D01*
X98238965Y-77953876D01*
X98250082Y-77841000D01*
X98250082Y-76591000D01*
X98238965Y-76478124D01*
X98206040Y-76369586D01*
X98152573Y-76269557D01*
X98080619Y-76181881D01*
X97992943Y-76109927D01*
X97892914Y-76056460D01*
X97784376Y-76023535D01*
X97736000Y-76018771D01*
X97736000Y-75136877D01*
X97738549Y-75110999D01*
X97734703Y-75071955D01*
X97728374Y-75007690D01*
X97698239Y-74908350D01*
X97649304Y-74816798D01*
X97583448Y-74736552D01*
X97563339Y-74720049D01*
X96793000Y-73949711D01*
X96793000Y-73145134D01*
X96830698Y-73107436D01*
X96910259Y-72988364D01*
X96965062Y-72856058D01*
X96993000Y-72715603D01*
X96993000Y-72572397D01*
X96965062Y-72431942D01*
X96910259Y-72299636D01*
X96830698Y-72180564D01*
X96729436Y-72079302D01*
X96610364Y-71999741D01*
X96478058Y-71944938D01*
X96337603Y-71917000D01*
X96194397Y-71917000D01*
X96053942Y-71944938D01*
X95921636Y-71999741D01*
X95802564Y-72079302D01*
X95701302Y-72180564D01*
X95621741Y-72299636D01*
X95566938Y-72431942D01*
X95539000Y-72572397D01*
X95539000Y-72715603D01*
X95566938Y-72856058D01*
X95621741Y-72988364D01*
X95701302Y-73107436D01*
X95739001Y-73145135D01*
X95739000Y-74142119D01*
X95736451Y-74168000D01*
X95739000Y-74193880D01*
X95746626Y-74271309D01*
X95776761Y-74370649D01*
X95825696Y-74462202D01*
X95891552Y-74542448D01*
X95911666Y-74558955D01*
X96682001Y-75329291D01*
X96682001Y-76018770D01*
X96633624Y-76023535D01*
X96525086Y-76056460D01*
X96425057Y-76109927D01*
X96337381Y-76181881D01*
X96265427Y-76269557D01*
X96211960Y-76369586D01*
X96179035Y-76478124D01*
X96167918Y-76591000D01*
X96167918Y-77841000D01*
X96179035Y-77953876D01*
X96211960Y-78062414D01*
X96265427Y-78162443D01*
X96337381Y-78250119D01*
X96425057Y-78322073D01*
X96525086Y-78375540D01*
X96633624Y-78408465D01*
X96682001Y-78413230D01*
X96682000Y-79404465D01*
X95368468Y-80717998D01*
X95331252Y-80717998D01*
X95490000Y-80559250D01*
X95493072Y-80132500D01*
X95480812Y-80008018D01*
X95444502Y-79888320D01*
X95385537Y-79778006D01*
X95306185Y-79681315D01*
X95209494Y-79601963D01*
X95099180Y-79542998D01*
X94979482Y-79506688D01*
X94855000Y-79494428D01*
X94265750Y-79497500D01*
X94107000Y-79656250D01*
X94107000Y-80718000D01*
X94127000Y-80718000D01*
X94127000Y-80972000D01*
X94107000Y-80972000D01*
X94107000Y-80992000D01*
X93853000Y-80992000D01*
X93853000Y-80972000D01*
X93833000Y-80972000D01*
X93833000Y-80718000D01*
X93853000Y-80718000D01*
X93853000Y-79656250D01*
X93694250Y-79497500D01*
X93231990Y-79495090D01*
X93231990Y-78046030D01*
X93236960Y-78062414D01*
X93290427Y-78162443D01*
X93362381Y-78250119D01*
X93450057Y-78322073D01*
X93550086Y-78375540D01*
X93658624Y-78408465D01*
X93771500Y-78419582D01*
X94696500Y-78419582D01*
X94809376Y-78408465D01*
X94917914Y-78375540D01*
X95017943Y-78322073D01*
X95105619Y-78250119D01*
X95177573Y-78162443D01*
X95231040Y-78062414D01*
X95263965Y-77953876D01*
X95275082Y-77841000D01*
X95275082Y-76591000D01*
X95263965Y-76478124D01*
X95231040Y-76369586D01*
X95177573Y-76269557D01*
X95105619Y-76181881D01*
X95017943Y-76109927D01*
X94917914Y-76056460D01*
X94809376Y-76023535D01*
X94696500Y-76012418D01*
X93771500Y-76012418D01*
X93658624Y-76023535D01*
X93550086Y-76056460D01*
X93450057Y-76109927D01*
X93362381Y-76181881D01*
X93290427Y-76269557D01*
X93236960Y-76369586D01*
X93231990Y-76385970D01*
X93231990Y-75203000D01*
X93544833Y-75203000D01*
X93651440Y-75362547D01*
X93801453Y-75512560D01*
X93977849Y-75630425D01*
X94173851Y-75711611D01*
X94381925Y-75753000D01*
X94594075Y-75753000D01*
X94802149Y-75711611D01*
X94998151Y-75630425D01*
X95174547Y-75512560D01*
X95324560Y-75362547D01*
X95442425Y-75186151D01*
X95523611Y-74990149D01*
X95565000Y-74782075D01*
X95565000Y-74569925D01*
X95523611Y-74361851D01*
X95442425Y-74165849D01*
X95324560Y-73989453D01*
X95174547Y-73839440D01*
X94998151Y-73721575D01*
X94802149Y-73640389D01*
X94594075Y-73599000D01*
X94381925Y-73599000D01*
X94173851Y-73640389D01*
X93977849Y-73721575D01*
X93801453Y-73839440D01*
X93651440Y-73989453D01*
X93544833Y-74149000D01*
X93231990Y-74149000D01*
X93231990Y-72613299D01*
X94240801Y-71604490D01*
X96790629Y-71604490D01*
X96816510Y-71607039D01*
X96842391Y-71604490D01*
X96919820Y-71596864D01*
X97019160Y-71566729D01*
X97110712Y-71517794D01*
X97190958Y-71451938D01*
X97207465Y-71431824D01*
X98794344Y-69844947D01*
X98814448Y-69828448D01*
X98880304Y-69748202D01*
X98929239Y-69656650D01*
X98959374Y-69557310D01*
X98967000Y-69479881D01*
X98969549Y-69454000D01*
X98967000Y-69428119D01*
X98967000Y-67141628D01*
X98990996Y-67148907D01*
X99042708Y-67154000D01*
X99042709Y-67154000D01*
X99060000Y-67155703D01*
X99077292Y-67154000D01*
X101582708Y-67154000D01*
X101600000Y-67155703D01*
X101617291Y-67154000D01*
X101617292Y-67154000D01*
X101669004Y-67148907D01*
X101735356Y-67128779D01*
X101796507Y-67096093D01*
X101850106Y-67052106D01*
X101894093Y-66998507D01*
X101926779Y-66937356D01*
X101946907Y-66871004D01*
X101953703Y-66802000D01*
X101952000Y-66784708D01*
X101952000Y-62590198D01*
X104671338Y-62590198D01*
X104671338Y-62885802D01*
X104729008Y-63175727D01*
X104842131Y-63448830D01*
X105006360Y-63694616D01*
X105215384Y-63903640D01*
X105461170Y-64067869D01*
X105734273Y-64180992D01*
X106024198Y-64238662D01*
X106319802Y-64238662D01*
X106609727Y-64180992D01*
X106882830Y-64067869D01*
X107128616Y-63903640D01*
X107337640Y-63694616D01*
X107501869Y-63448830D01*
X107614992Y-63175727D01*
X107672662Y-62885802D01*
X107672662Y-62590198D01*
X107614992Y-62300273D01*
X107501869Y-62027170D01*
X107337640Y-61781384D01*
X107128616Y-61572360D01*
X106882830Y-61408131D01*
X106609727Y-61295008D01*
X106319802Y-61237338D01*
X106024198Y-61237338D01*
X105734273Y-61295008D01*
X105461170Y-61408131D01*
X105215384Y-61572360D01*
X105006360Y-61781384D01*
X104842131Y-62027170D01*
X104729008Y-62300273D01*
X104671338Y-62590198D01*
X101952000Y-62590198D01*
X101952000Y-58264000D01*
X109884001Y-58264000D01*
X109884000Y-105078873D01*
G37*
X109884000Y-105078873D02*
X109848448Y-105035552D01*
X109828344Y-105019054D01*
X107959955Y-103150666D01*
X107943448Y-103130552D01*
X107863202Y-103064696D01*
X107771650Y-103015761D01*
X107672310Y-102985626D01*
X107594881Y-102978000D01*
X107569000Y-102975451D01*
X107543119Y-102978000D01*
X106886082Y-102978000D01*
X106886082Y-102880000D01*
X106874965Y-102767124D01*
X106842040Y-102658586D01*
X106788573Y-102558557D01*
X106716619Y-102470881D01*
X106628943Y-102398927D01*
X106528914Y-102345460D01*
X106420376Y-102312535D01*
X106372000Y-102307771D01*
X106372000Y-97615881D01*
X106374549Y-97590000D01*
X106364374Y-97486690D01*
X106334239Y-97387351D01*
X106334239Y-97387350D01*
X106285304Y-97295798D01*
X106219448Y-97215552D01*
X106199339Y-97199049D01*
X105800955Y-96800666D01*
X105784448Y-96780552D01*
X105704202Y-96714696D01*
X105612650Y-96665761D01*
X105513310Y-96635626D01*
X105435881Y-96628000D01*
X105410000Y-96625451D01*
X105384119Y-96628000D01*
X104346082Y-96628000D01*
X104346082Y-96530000D01*
X104334965Y-96417124D01*
X104302040Y-96308586D01*
X104248573Y-96208557D01*
X104176619Y-96120881D01*
X104088943Y-96048927D01*
X103988914Y-95995460D01*
X103880376Y-95962535D01*
X103832000Y-95957771D01*
X103832000Y-95541289D01*
X105256339Y-94116951D01*
X105276448Y-94100448D01*
X105342304Y-94020202D01*
X105391239Y-93928650D01*
X105421374Y-93829310D01*
X105423900Y-93803664D01*
X105431549Y-93726001D01*
X105429974Y-93710000D01*
X106793928Y-93710000D01*
X106806188Y-93834482D01*
X106842498Y-93954180D01*
X106901463Y-94064494D01*
X106980815Y-94161185D01*
X107077506Y-94240537D01*
X107187820Y-94299502D01*
X107307518Y-94335812D01*
X107432000Y-94348072D01*
X107546250Y-94345000D01*
X107705000Y-94186250D01*
X107705000Y-92837000D01*
X107959000Y-92837000D01*
X107959000Y-94186250D01*
X108117750Y-94345000D01*
X108232000Y-94348072D01*
X108356482Y-94335812D01*
X108476180Y-94299502D01*
X108586494Y-94240537D01*
X108683185Y-94161185D01*
X108762537Y-94064494D01*
X108821502Y-93954180D01*
X108857812Y-93834482D01*
X108870072Y-93710000D01*
X108867000Y-92995750D01*
X108708250Y-92837000D01*
X107959000Y-92837000D01*
X107705000Y-92837000D01*
X106955750Y-92837000D01*
X106797000Y-92995750D01*
X106793928Y-93710000D01*
X105429974Y-93710000D01*
X105429000Y-93700120D01*
X105429000Y-91710000D01*
X106793928Y-91710000D01*
X106797000Y-92424250D01*
X106955750Y-92583000D01*
X107705000Y-92583000D01*
X107705000Y-91233750D01*
X107959000Y-91233750D01*
X107959000Y-92583000D01*
X108708250Y-92583000D01*
X108867000Y-92424250D01*
X108870072Y-91710000D01*
X108857812Y-91585518D01*
X108821502Y-91465820D01*
X108762537Y-91355506D01*
X108683185Y-91258815D01*
X108586494Y-91179463D01*
X108476180Y-91120498D01*
X108356482Y-91084188D01*
X108232000Y-91071928D01*
X108117750Y-91075000D01*
X107959000Y-91233750D01*
X107705000Y-91233750D01*
X107546250Y-91075000D01*
X107432000Y-91071928D01*
X107307518Y-91084188D01*
X107187820Y-91120498D01*
X107077506Y-91179463D01*
X106980815Y-91258815D01*
X106901463Y-91355506D01*
X106842498Y-91465820D01*
X106806188Y-91585518D01*
X106793928Y-91710000D01*
X105429000Y-91710000D01*
X105429000Y-90560388D01*
X105450506Y-90578037D01*
X105560820Y-90637002D01*
X105680518Y-90673312D01*
X105805000Y-90685572D01*
X106394250Y-90682500D01*
X106553000Y-90523750D01*
X106553000Y-89462000D01*
X106807000Y-89462000D01*
X106807000Y-90523750D01*
X106965750Y-90682500D01*
X107555000Y-90685572D01*
X107679482Y-90673312D01*
X107799180Y-90637002D01*
X107909494Y-90578037D01*
X108006185Y-90498685D01*
X108085537Y-90401994D01*
X108144502Y-90291680D01*
X108180812Y-90171982D01*
X108193072Y-90047500D01*
X108190000Y-89620750D01*
X108031250Y-89462000D01*
X106807000Y-89462000D01*
X106553000Y-89462000D01*
X106533000Y-89462000D01*
X106533000Y-89208000D01*
X106553000Y-89208000D01*
X106553000Y-89188000D01*
X106807000Y-89188000D01*
X106807000Y-89208000D01*
X108031250Y-89208000D01*
X108190000Y-89049250D01*
X108193072Y-88622500D01*
X108180812Y-88498018D01*
X108144502Y-88378320D01*
X108085537Y-88268006D01*
X108006185Y-88171315D01*
X107909494Y-88091963D01*
X107799180Y-88032998D01*
X107679482Y-87996688D01*
X107555000Y-87984428D01*
X106965750Y-87987500D01*
X106807002Y-88146248D01*
X106807002Y-87994288D01*
X107034339Y-87766951D01*
X107054448Y-87750448D01*
X107120304Y-87670202D01*
X107169239Y-87578650D01*
X107199374Y-87479310D01*
X107207000Y-87401881D01*
X107207000Y-87401879D01*
X107207079Y-87401082D01*
X107305000Y-87401082D01*
X107417876Y-87389965D01*
X107526414Y-87357040D01*
X107626443Y-87303573D01*
X107714119Y-87231619D01*
X107786073Y-87143943D01*
X107839540Y-87043914D01*
X107872465Y-86935376D01*
X107883582Y-86822500D01*
X107883582Y-85897500D01*
X107872465Y-85784624D01*
X107839540Y-85676086D01*
X107786073Y-85576057D01*
X107714119Y-85488381D01*
X107626443Y-85416427D01*
X107526414Y-85362960D01*
X107417876Y-85330035D01*
X107305000Y-85318918D01*
X107207000Y-85318918D01*
X107207000Y-83845877D01*
X107209549Y-83819999D01*
X107207000Y-83794119D01*
X107199374Y-83716690D01*
X107169239Y-83617350D01*
X107120304Y-83525798D01*
X107054448Y-83445552D01*
X107034339Y-83429049D01*
X102873711Y-79268422D01*
X102857204Y-79248308D01*
X102776958Y-79182452D01*
X102685406Y-79133517D01*
X102586066Y-79103382D01*
X102508637Y-79095756D01*
X102482756Y-79093207D01*
X102456875Y-79095756D01*
X97736000Y-79095756D01*
X97736000Y-78413229D01*
X97784376Y-78408465D01*
X97892914Y-78375540D01*
X97992943Y-78322073D01*
X98080619Y-78250119D01*
X98152573Y-78162443D01*
X98206040Y-78062414D01*
X98238965Y-77953876D01*
X98250082Y-77841000D01*
X98250082Y-76591000D01*
X98238965Y-76478124D01*
X98206040Y-76369586D01*
X98152573Y-76269557D01*
X98080619Y-76181881D01*
X97992943Y-76109927D01*
X97892914Y-76056460D01*
X97784376Y-76023535D01*
X97736000Y-76018771D01*
X97736000Y-75136877D01*
X97738549Y-75110999D01*
X97734703Y-75071955D01*
X97728374Y-75007690D01*
X97698239Y-74908350D01*
X97649304Y-74816798D01*
X97583448Y-74736552D01*
X97563339Y-74720049D01*
X96793000Y-73949711D01*
X96793000Y-73145134D01*
X96830698Y-73107436D01*
X96910259Y-72988364D01*
X96965062Y-72856058D01*
X96993000Y-72715603D01*
X96993000Y-72572397D01*
X96965062Y-72431942D01*
X96910259Y-72299636D01*
X96830698Y-72180564D01*
X96729436Y-72079302D01*
X96610364Y-71999741D01*
X96478058Y-71944938D01*
X96337603Y-71917000D01*
X96194397Y-71917000D01*
X96053942Y-71944938D01*
X95921636Y-71999741D01*
X95802564Y-72079302D01*
X95701302Y-72180564D01*
X95621741Y-72299636D01*
X95566938Y-72431942D01*
X95539000Y-72572397D01*
X95539000Y-72715603D01*
X95566938Y-72856058D01*
X95621741Y-72988364D01*
X95701302Y-73107436D01*
X95739001Y-73145135D01*
X95739000Y-74142119D01*
X95736451Y-74168000D01*
X95739000Y-74193880D01*
X95746626Y-74271309D01*
X95776761Y-74370649D01*
X95825696Y-74462202D01*
X95891552Y-74542448D01*
X95911666Y-74558955D01*
X96682001Y-75329291D01*
X96682001Y-76018770D01*
X96633624Y-76023535D01*
X96525086Y-76056460D01*
X96425057Y-76109927D01*
X96337381Y-76181881D01*
X96265427Y-76269557D01*
X96211960Y-76369586D01*
X96179035Y-76478124D01*
X96167918Y-76591000D01*
X96167918Y-77841000D01*
X96179035Y-77953876D01*
X96211960Y-78062414D01*
X96265427Y-78162443D01*
X96337381Y-78250119D01*
X96425057Y-78322073D01*
X96525086Y-78375540D01*
X96633624Y-78408465D01*
X96682001Y-78413230D01*
X96682000Y-79404465D01*
X95368468Y-80717998D01*
X95331252Y-80717998D01*
X95490000Y-80559250D01*
X95493072Y-80132500D01*
X95480812Y-80008018D01*
X95444502Y-79888320D01*
X95385537Y-79778006D01*
X95306185Y-79681315D01*
X95209494Y-79601963D01*
X95099180Y-79542998D01*
X94979482Y-79506688D01*
X94855000Y-79494428D01*
X94265750Y-79497500D01*
X94107000Y-79656250D01*
X94107000Y-80718000D01*
X94127000Y-80718000D01*
X94127000Y-80972000D01*
X94107000Y-80972000D01*
X94107000Y-80992000D01*
X93853000Y-80992000D01*
X93853000Y-80972000D01*
X93833000Y-80972000D01*
X93833000Y-80718000D01*
X93853000Y-80718000D01*
X93853000Y-79656250D01*
X93694250Y-79497500D01*
X93231990Y-79495090D01*
X93231990Y-78046030D01*
X93236960Y-78062414D01*
X93290427Y-78162443D01*
X93362381Y-78250119D01*
X93450057Y-78322073D01*
X93550086Y-78375540D01*
X93658624Y-78408465D01*
X93771500Y-78419582D01*
X94696500Y-78419582D01*
X94809376Y-78408465D01*
X94917914Y-78375540D01*
X95017943Y-78322073D01*
X95105619Y-78250119D01*
X95177573Y-78162443D01*
X95231040Y-78062414D01*
X95263965Y-77953876D01*
X95275082Y-77841000D01*
X95275082Y-76591000D01*
X95263965Y-76478124D01*
X95231040Y-76369586D01*
X95177573Y-76269557D01*
X95105619Y-76181881D01*
X95017943Y-76109927D01*
X94917914Y-76056460D01*
X94809376Y-76023535D01*
X94696500Y-76012418D01*
X93771500Y-76012418D01*
X93658624Y-76023535D01*
X93550086Y-76056460D01*
X93450057Y-76109927D01*
X93362381Y-76181881D01*
X93290427Y-76269557D01*
X93236960Y-76369586D01*
X93231990Y-76385970D01*
X93231990Y-75203000D01*
X93544833Y-75203000D01*
X93651440Y-75362547D01*
X93801453Y-75512560D01*
X93977849Y-75630425D01*
X94173851Y-75711611D01*
X94381925Y-75753000D01*
X94594075Y-75753000D01*
X94802149Y-75711611D01*
X94998151Y-75630425D01*
X95174547Y-75512560D01*
X95324560Y-75362547D01*
X95442425Y-75186151D01*
X95523611Y-74990149D01*
X95565000Y-74782075D01*
X95565000Y-74569925D01*
X95523611Y-74361851D01*
X95442425Y-74165849D01*
X95324560Y-73989453D01*
X95174547Y-73839440D01*
X94998151Y-73721575D01*
X94802149Y-73640389D01*
X94594075Y-73599000D01*
X94381925Y-73599000D01*
X94173851Y-73640389D01*
X93977849Y-73721575D01*
X93801453Y-73839440D01*
X93651440Y-73989453D01*
X93544833Y-74149000D01*
X93231990Y-74149000D01*
X93231990Y-72613299D01*
X94240801Y-71604490D01*
X96790629Y-71604490D01*
X96816510Y-71607039D01*
X96842391Y-71604490D01*
X96919820Y-71596864D01*
X97019160Y-71566729D01*
X97110712Y-71517794D01*
X97190958Y-71451938D01*
X97207465Y-71431824D01*
X98794344Y-69844947D01*
X98814448Y-69828448D01*
X98880304Y-69748202D01*
X98929239Y-69656650D01*
X98959374Y-69557310D01*
X98967000Y-69479881D01*
X98969549Y-69454000D01*
X98967000Y-69428119D01*
X98967000Y-67141628D01*
X98990996Y-67148907D01*
X99042708Y-67154000D01*
X99042709Y-67154000D01*
X99060000Y-67155703D01*
X99077292Y-67154000D01*
X101582708Y-67154000D01*
X101600000Y-67155703D01*
X101617291Y-67154000D01*
X101617292Y-67154000D01*
X101669004Y-67148907D01*
X101735356Y-67128779D01*
X101796507Y-67096093D01*
X101850106Y-67052106D01*
X101894093Y-66998507D01*
X101926779Y-66937356D01*
X101946907Y-66871004D01*
X101953703Y-66802000D01*
X101952000Y-66784708D01*
X101952000Y-62590198D01*
X104671338Y-62590198D01*
X104671338Y-62885802D01*
X104729008Y-63175727D01*
X104842131Y-63448830D01*
X105006360Y-63694616D01*
X105215384Y-63903640D01*
X105461170Y-64067869D01*
X105734273Y-64180992D01*
X106024198Y-64238662D01*
X106319802Y-64238662D01*
X106609727Y-64180992D01*
X106882830Y-64067869D01*
X107128616Y-63903640D01*
X107337640Y-63694616D01*
X107501869Y-63448830D01*
X107614992Y-63175727D01*
X107672662Y-62885802D01*
X107672662Y-62590198D01*
X107614992Y-62300273D01*
X107501869Y-62027170D01*
X107337640Y-61781384D01*
X107128616Y-61572360D01*
X106882830Y-61408131D01*
X106609727Y-61295008D01*
X106319802Y-61237338D01*
X106024198Y-61237338D01*
X105734273Y-61295008D01*
X105461170Y-61408131D01*
X105215384Y-61572360D01*
X105006360Y-61781384D01*
X104842131Y-62027170D01*
X104729008Y-62300273D01*
X104671338Y-62590198D01*
X101952000Y-62590198D01*
X101952000Y-58264000D01*
X109884001Y-58264000D01*
X109884000Y-105078873D01*
G36*
X96310910Y-90734698D02*
G01*
X96429982Y-90814259D01*
X96562288Y-90869062D01*
X96702743Y-90897000D01*
X96845949Y-90897000D01*
X96986404Y-90869062D01*
X97118710Y-90814259D01*
X97237782Y-90734698D01*
X97263001Y-90709479D01*
X97263001Y-91864229D01*
X94895666Y-94231565D01*
X94875552Y-94248072D01*
X94809696Y-94328318D01*
X94788725Y-94367553D01*
X94760761Y-94419871D01*
X94730626Y-94519211D01*
X94720451Y-94622520D01*
X94723000Y-94648401D01*
X94723000Y-95951418D01*
X94714500Y-95951418D01*
X94601624Y-95962535D01*
X94493086Y-95995460D01*
X94393057Y-96048927D01*
X94305381Y-96120881D01*
X94233427Y-96208557D01*
X94179960Y-96308586D01*
X94147035Y-96417124D01*
X94135918Y-96530000D01*
X94135918Y-97780000D01*
X94147035Y-97892876D01*
X94179960Y-98001414D01*
X94233427Y-98101443D01*
X94305381Y-98189119D01*
X94393057Y-98261073D01*
X94493086Y-98314540D01*
X94601624Y-98347465D01*
X94714500Y-98358582D01*
X94723001Y-98358582D01*
X94723001Y-99476708D01*
X92990666Y-101209045D01*
X92970552Y-101225552D01*
X92904696Y-101305798D01*
X92872726Y-101365611D01*
X92855761Y-101397351D01*
X92825626Y-101496691D01*
X92815451Y-101600000D01*
X92818000Y-101625881D01*
X92818001Y-102309346D01*
X92802000Y-102307771D01*
X92802000Y-100536880D01*
X92804549Y-100511000D01*
X92802000Y-100485119D01*
X92802000Y-98339995D01*
X92885914Y-98314540D01*
X92985943Y-98261073D01*
X93073619Y-98189119D01*
X93145573Y-98101443D01*
X93199040Y-98001414D01*
X93231965Y-97892876D01*
X93243082Y-97780000D01*
X93243082Y-96530000D01*
X93231965Y-96417124D01*
X93199040Y-96308586D01*
X93145573Y-96208557D01*
X93073619Y-96120881D01*
X92985943Y-96048927D01*
X92885914Y-95995460D01*
X92777376Y-95962535D01*
X92664500Y-95951418D01*
X91739500Y-95951418D01*
X91626624Y-95962535D01*
X91518086Y-95995460D01*
X91418057Y-96048927D01*
X91330381Y-96120881D01*
X91258427Y-96208557D01*
X91204960Y-96308586D01*
X91172035Y-96417124D01*
X91160918Y-96530000D01*
X91160918Y-97780000D01*
X91172035Y-97892876D01*
X91204960Y-98001414D01*
X91258427Y-98101443D01*
X91330381Y-98189119D01*
X91418057Y-98261073D01*
X91518086Y-98314540D01*
X91626624Y-98347465D01*
X91739500Y-98358582D01*
X91748001Y-98358582D01*
X91748000Y-100020500D01*
X90732229Y-100020500D01*
X90727465Y-99972124D01*
X90694540Y-99863586D01*
X90641073Y-99763557D01*
X90569119Y-99675881D01*
X90481443Y-99603927D01*
X90381414Y-99550460D01*
X90272876Y-99517535D01*
X90160000Y-99506418D01*
X88910000Y-99506418D01*
X88797124Y-99517535D01*
X88688586Y-99550460D01*
X88588557Y-99603927D01*
X88500881Y-99675881D01*
X88428927Y-99763557D01*
X88375460Y-99863586D01*
X88342535Y-99972124D01*
X88337771Y-100020500D01*
X88065790Y-100020500D01*
X87556991Y-99511702D01*
X87556991Y-97827281D01*
X87656549Y-97926839D01*
X87673052Y-97946948D01*
X87753298Y-98012804D01*
X87844850Y-98061739D01*
X87944190Y-98091874D01*
X88047499Y-98102049D01*
X88073380Y-98099500D01*
X88337771Y-98099500D01*
X88342535Y-98147876D01*
X88375460Y-98256414D01*
X88428927Y-98356443D01*
X88500881Y-98444119D01*
X88588557Y-98516073D01*
X88688586Y-98569540D01*
X88797124Y-98602465D01*
X88910000Y-98613582D01*
X90160000Y-98613582D01*
X90272876Y-98602465D01*
X90381414Y-98569540D01*
X90481443Y-98516073D01*
X90569119Y-98444119D01*
X90641073Y-98356443D01*
X90694540Y-98256414D01*
X90727465Y-98147876D01*
X90738582Y-98035000D01*
X90738582Y-97110000D01*
X90727465Y-96997124D01*
X90694540Y-96888586D01*
X90641073Y-96788557D01*
X90569119Y-96700881D01*
X90481443Y-96628927D01*
X90381414Y-96575460D01*
X90272876Y-96542535D01*
X90160000Y-96531418D01*
X90062000Y-96531418D01*
X90062000Y-95849289D01*
X95214290Y-90697000D01*
X96273212Y-90697000D01*
X96310910Y-90734698D01*
G37*
X96310910Y-90734698D02*
X96429982Y-90814259D01*
X96562288Y-90869062D01*
X96702743Y-90897000D01*
X96845949Y-90897000D01*
X96986404Y-90869062D01*
X97118710Y-90814259D01*
X97237782Y-90734698D01*
X97263001Y-90709479D01*
X97263001Y-91864229D01*
X94895666Y-94231565D01*
X94875552Y-94248072D01*
X94809696Y-94328318D01*
X94788725Y-94367553D01*
X94760761Y-94419871D01*
X94730626Y-94519211D01*
X94720451Y-94622520D01*
X94723000Y-94648401D01*
X94723000Y-95951418D01*
X94714500Y-95951418D01*
X94601624Y-95962535D01*
X94493086Y-95995460D01*
X94393057Y-96048927D01*
X94305381Y-96120881D01*
X94233427Y-96208557D01*
X94179960Y-96308586D01*
X94147035Y-96417124D01*
X94135918Y-96530000D01*
X94135918Y-97780000D01*
X94147035Y-97892876D01*
X94179960Y-98001414D01*
X94233427Y-98101443D01*
X94305381Y-98189119D01*
X94393057Y-98261073D01*
X94493086Y-98314540D01*
X94601624Y-98347465D01*
X94714500Y-98358582D01*
X94723001Y-98358582D01*
X94723001Y-99476708D01*
X92990666Y-101209045D01*
X92970552Y-101225552D01*
X92904696Y-101305798D01*
X92872726Y-101365611D01*
X92855761Y-101397351D01*
X92825626Y-101496691D01*
X92815451Y-101600000D01*
X92818000Y-101625881D01*
X92818001Y-102309346D01*
X92802000Y-102307771D01*
X92802000Y-100536880D01*
X92804549Y-100511000D01*
X92802000Y-100485119D01*
X92802000Y-98339995D01*
X92885914Y-98314540D01*
X92985943Y-98261073D01*
X93073619Y-98189119D01*
X93145573Y-98101443D01*
X93199040Y-98001414D01*
X93231965Y-97892876D01*
X93243082Y-97780000D01*
X93243082Y-96530000D01*
X93231965Y-96417124D01*
X93199040Y-96308586D01*
X93145573Y-96208557D01*
X93073619Y-96120881D01*
X92985943Y-96048927D01*
X92885914Y-95995460D01*
X92777376Y-95962535D01*
X92664500Y-95951418D01*
X91739500Y-95951418D01*
X91626624Y-95962535D01*
X91518086Y-95995460D01*
X91418057Y-96048927D01*
X91330381Y-96120881D01*
X91258427Y-96208557D01*
X91204960Y-96308586D01*
X91172035Y-96417124D01*
X91160918Y-96530000D01*
X91160918Y-97780000D01*
X91172035Y-97892876D01*
X91204960Y-98001414D01*
X91258427Y-98101443D01*
X91330381Y-98189119D01*
X91418057Y-98261073D01*
X91518086Y-98314540D01*
X91626624Y-98347465D01*
X91739500Y-98358582D01*
X91748001Y-98358582D01*
X91748000Y-100020500D01*
X90732229Y-100020500D01*
X90727465Y-99972124D01*
X90694540Y-99863586D01*
X90641073Y-99763557D01*
X90569119Y-99675881D01*
X90481443Y-99603927D01*
X90381414Y-99550460D01*
X90272876Y-99517535D01*
X90160000Y-99506418D01*
X88910000Y-99506418D01*
X88797124Y-99517535D01*
X88688586Y-99550460D01*
X88588557Y-99603927D01*
X88500881Y-99675881D01*
X88428927Y-99763557D01*
X88375460Y-99863586D01*
X88342535Y-99972124D01*
X88337771Y-100020500D01*
X88065790Y-100020500D01*
X87556991Y-99511702D01*
X87556991Y-97827281D01*
X87656549Y-97926839D01*
X87673052Y-97946948D01*
X87753298Y-98012804D01*
X87844850Y-98061739D01*
X87944190Y-98091874D01*
X88047499Y-98102049D01*
X88073380Y-98099500D01*
X88337771Y-98099500D01*
X88342535Y-98147876D01*
X88375460Y-98256414D01*
X88428927Y-98356443D01*
X88500881Y-98444119D01*
X88588557Y-98516073D01*
X88688586Y-98569540D01*
X88797124Y-98602465D01*
X88910000Y-98613582D01*
X90160000Y-98613582D01*
X90272876Y-98602465D01*
X90381414Y-98569540D01*
X90481443Y-98516073D01*
X90569119Y-98444119D01*
X90641073Y-98356443D01*
X90694540Y-98256414D01*
X90727465Y-98147876D01*
X90738582Y-98035000D01*
X90738582Y-97110000D01*
X90727465Y-96997124D01*
X90694540Y-96888586D01*
X90641073Y-96788557D01*
X90569119Y-96700881D01*
X90481443Y-96628927D01*
X90381414Y-96575460D01*
X90272876Y-96542535D01*
X90160000Y-96531418D01*
X90062000Y-96531418D01*
X90062000Y-95849289D01*
X95214290Y-90697000D01*
X96273212Y-90697000D01*
X96310910Y-90734698D01*
G36*
X100735200Y-89462933D02*
G01*
X100816088Y-89558343D01*
X100914036Y-89636139D01*
X101025279Y-89693331D01*
X101043364Y-89698502D01*
X101035302Y-89706564D01*
X100955741Y-89825636D01*
X100900938Y-89957942D01*
X100873000Y-90098397D01*
X100873000Y-90241603D01*
X100900938Y-90382058D01*
X100955741Y-90514364D01*
X101035302Y-90633436D01*
X101136564Y-90734698D01*
X101255636Y-90814259D01*
X101387942Y-90869062D01*
X101528397Y-90897000D01*
X101671603Y-90897000D01*
X101812058Y-90869062D01*
X101944364Y-90814259D01*
X102063436Y-90734698D01*
X102101118Y-90697016D01*
X103105001Y-90697016D01*
X103105000Y-91497858D01*
X103058236Y-91536236D01*
X102992500Y-91616336D01*
X102943654Y-91707720D01*
X102913575Y-91806879D01*
X102903418Y-91910000D01*
X102903418Y-93510000D01*
X102913575Y-93613121D01*
X102943654Y-93712280D01*
X102992500Y-93803664D01*
X103058236Y-93883764D01*
X103138336Y-93949500D01*
X103229720Y-93998346D01*
X103328879Y-94028425D01*
X103432000Y-94038582D01*
X103832000Y-94038582D01*
X103845454Y-94037257D01*
X102950666Y-94932045D01*
X102930552Y-94948552D01*
X102864696Y-95028798D01*
X102828592Y-95096345D01*
X102815761Y-95120351D01*
X102785626Y-95219691D01*
X102775451Y-95323000D01*
X102778000Y-95348881D01*
X102778000Y-95957770D01*
X102729624Y-95962535D01*
X102621086Y-95995460D01*
X102521057Y-96048927D01*
X102433381Y-96120881D01*
X102381000Y-96184707D01*
X102381000Y-94513880D01*
X102383549Y-94487999D01*
X102373374Y-94384690D01*
X102343239Y-94285350D01*
X102328455Y-94257691D01*
X102294304Y-94193798D01*
X102228448Y-94113552D01*
X102208339Y-94097049D01*
X100717044Y-92605755D01*
X100717044Y-89430234D01*
X100735200Y-89462933D01*
G37*
X100735200Y-89462933D02*
X100816088Y-89558343D01*
X100914036Y-89636139D01*
X101025279Y-89693331D01*
X101043364Y-89698502D01*
X101035302Y-89706564D01*
X100955741Y-89825636D01*
X100900938Y-89957942D01*
X100873000Y-90098397D01*
X100873000Y-90241603D01*
X100900938Y-90382058D01*
X100955741Y-90514364D01*
X101035302Y-90633436D01*
X101136564Y-90734698D01*
X101255636Y-90814259D01*
X101387942Y-90869062D01*
X101528397Y-90897000D01*
X101671603Y-90897000D01*
X101812058Y-90869062D01*
X101944364Y-90814259D01*
X102063436Y-90734698D01*
X102101118Y-90697016D01*
X103105001Y-90697016D01*
X103105000Y-91497858D01*
X103058236Y-91536236D01*
X102992500Y-91616336D01*
X102943654Y-91707720D01*
X102913575Y-91806879D01*
X102903418Y-91910000D01*
X102903418Y-93510000D01*
X102913575Y-93613121D01*
X102943654Y-93712280D01*
X102992500Y-93803664D01*
X103058236Y-93883764D01*
X103138336Y-93949500D01*
X103229720Y-93998346D01*
X103328879Y-94028425D01*
X103432000Y-94038582D01*
X103832000Y-94038582D01*
X103845454Y-94037257D01*
X102950666Y-94932045D01*
X102930552Y-94948552D01*
X102864696Y-95028798D01*
X102828592Y-95096345D01*
X102815761Y-95120351D01*
X102785626Y-95219691D01*
X102775451Y-95323000D01*
X102778000Y-95348881D01*
X102778000Y-95957770D01*
X102729624Y-95962535D01*
X102621086Y-95995460D01*
X102521057Y-96048927D01*
X102433381Y-96120881D01*
X102381000Y-96184707D01*
X102381000Y-94513880D01*
X102383549Y-94487999D01*
X102373374Y-94384690D01*
X102343239Y-94285350D01*
X102328455Y-94257691D01*
X102294304Y-94193798D01*
X102228448Y-94113552D01*
X102208339Y-94097049D01*
X100717044Y-92605755D01*
X100717044Y-89430234D01*
X100735200Y-89462933D01*
G36*
X102062000Y-88827000D02*
G01*
X102082000Y-88827000D01*
X102082000Y-88973000D01*
X102062000Y-88973000D01*
X102062000Y-89047000D01*
X101808000Y-89047000D01*
X101808000Y-88973000D01*
X101788000Y-88973000D01*
X101788000Y-88827000D01*
X101808000Y-88827000D01*
X101808000Y-88778582D01*
X102062000Y-88778582D01*
X102062000Y-88827000D01*
G37*
X102062000Y-88827000D02*
X102082000Y-88827000D01*
X102082000Y-88973000D01*
X102062000Y-88973000D01*
X102062000Y-89047000D01*
X101808000Y-89047000D01*
X101808000Y-88973000D01*
X101788000Y-88973000D01*
X101788000Y-88827000D01*
X101808000Y-88827000D01*
X101808000Y-88778582D01*
X102062000Y-88778582D01*
X102062000Y-88827000D01*
G36*
X88991418Y-82765000D02*
G01*
X88997732Y-82829103D01*
X89016430Y-82890743D01*
X89046794Y-82947550D01*
X89087657Y-82997343D01*
X89137450Y-83038206D01*
X89194257Y-83068570D01*
X89255897Y-83087268D01*
X89320000Y-83093582D01*
X89587408Y-83093582D01*
X89538748Y-83110843D01*
X89288645Y-83259822D01*
X89072412Y-83454731D01*
X88898359Y-83688080D01*
X88773175Y-83950901D01*
X88728524Y-84098110D01*
X88849845Y-84328000D01*
X90043000Y-84328000D01*
X90043000Y-84308000D01*
X90297000Y-84308000D01*
X90297000Y-84328000D01*
X90317000Y-84328000D01*
X90317000Y-84582000D01*
X90297000Y-84582000D01*
X90297000Y-84602000D01*
X90043000Y-84602000D01*
X90043000Y-84582000D01*
X88849845Y-84582000D01*
X88728524Y-84811890D01*
X88773175Y-84959099D01*
X88898359Y-85221920D01*
X89072412Y-85455269D01*
X89288645Y-85650178D01*
X89538748Y-85799157D01*
X89777179Y-85883736D01*
X89612481Y-85951956D01*
X89419706Y-86080764D01*
X89255764Y-86244706D01*
X89126956Y-86437481D01*
X89114315Y-86468000D01*
X88798880Y-86468000D01*
X88772999Y-86465451D01*
X88669690Y-86475626D01*
X88570350Y-86505761D01*
X88478798Y-86554696D01*
X88398552Y-86620552D01*
X88382049Y-86640661D01*
X87556991Y-87465720D01*
X87556991Y-83622298D01*
X88737291Y-82442000D01*
X88991418Y-82442000D01*
X88991418Y-82765000D01*
G37*
X88991418Y-82765000D02*
X88997732Y-82829103D01*
X89016430Y-82890743D01*
X89046794Y-82947550D01*
X89087657Y-82997343D01*
X89137450Y-83038206D01*
X89194257Y-83068570D01*
X89255897Y-83087268D01*
X89320000Y-83093582D01*
X89587408Y-83093582D01*
X89538748Y-83110843D01*
X89288645Y-83259822D01*
X89072412Y-83454731D01*
X88898359Y-83688080D01*
X88773175Y-83950901D01*
X88728524Y-84098110D01*
X88849845Y-84328000D01*
X90043000Y-84328000D01*
X90043000Y-84308000D01*
X90297000Y-84308000D01*
X90297000Y-84328000D01*
X90317000Y-84328000D01*
X90317000Y-84582000D01*
X90297000Y-84582000D01*
X90297000Y-84602000D01*
X90043000Y-84602000D01*
X90043000Y-84582000D01*
X88849845Y-84582000D01*
X88728524Y-84811890D01*
X88773175Y-84959099D01*
X88898359Y-85221920D01*
X89072412Y-85455269D01*
X89288645Y-85650178D01*
X89538748Y-85799157D01*
X89777179Y-85883736D01*
X89612481Y-85951956D01*
X89419706Y-86080764D01*
X89255764Y-86244706D01*
X89126956Y-86437481D01*
X89114315Y-86468000D01*
X88798880Y-86468000D01*
X88772999Y-86465451D01*
X88669690Y-86475626D01*
X88570350Y-86505761D01*
X88478798Y-86554696D01*
X88398552Y-86620552D01*
X88382049Y-86640661D01*
X87556991Y-87465720D01*
X87556991Y-83622298D01*
X88737291Y-82442000D01*
X88991418Y-82442000D01*
X88991418Y-82765000D01*
G36*
X95181418Y-84550000D02*
G01*
X95187732Y-84614103D01*
X95206205Y-84675000D01*
X95187732Y-84735897D01*
X95181418Y-84800000D01*
X95181418Y-84904925D01*
X95164036Y-84913861D01*
X95066088Y-84991657D01*
X94985200Y-85087067D01*
X94924479Y-85196424D01*
X94886259Y-85315526D01*
X94875000Y-85418250D01*
X95033750Y-85577000D01*
X96058000Y-85577000D01*
X96058000Y-85528582D01*
X96312000Y-85528582D01*
X96312000Y-85577000D01*
X96332000Y-85577000D01*
X96332000Y-85723000D01*
X96312000Y-85723000D01*
X96312000Y-85771418D01*
X96058000Y-85771418D01*
X96058000Y-85723000D01*
X95033750Y-85723000D01*
X94983750Y-85773000D01*
X94646290Y-85773000D01*
X94253000Y-85379711D01*
X94253000Y-84861082D01*
X94605000Y-84861082D01*
X94717876Y-84849965D01*
X94826414Y-84817040D01*
X94926443Y-84763573D01*
X95014119Y-84691619D01*
X95086073Y-84603943D01*
X95139540Y-84503914D01*
X95172465Y-84395376D01*
X95181418Y-84304472D01*
X95181418Y-84550000D01*
G37*
X95181418Y-84550000D02*
X95187732Y-84614103D01*
X95206205Y-84675000D01*
X95187732Y-84735897D01*
X95181418Y-84800000D01*
X95181418Y-84904925D01*
X95164036Y-84913861D01*
X95066088Y-84991657D01*
X94985200Y-85087067D01*
X94924479Y-85196424D01*
X94886259Y-85315526D01*
X94875000Y-85418250D01*
X95033750Y-85577000D01*
X96058000Y-85577000D01*
X96058000Y-85528582D01*
X96312000Y-85528582D01*
X96312000Y-85577000D01*
X96332000Y-85577000D01*
X96332000Y-85723000D01*
X96312000Y-85723000D01*
X96312000Y-85771418D01*
X96058000Y-85771418D01*
X96058000Y-85723000D01*
X95033750Y-85723000D01*
X94983750Y-85773000D01*
X94646290Y-85773000D01*
X94253000Y-85379711D01*
X94253000Y-84861082D01*
X94605000Y-84861082D01*
X94717876Y-84849965D01*
X94826414Y-84817040D01*
X94926443Y-84763573D01*
X95014119Y-84691619D01*
X95086073Y-84603943D01*
X95139540Y-84503914D01*
X95172465Y-84395376D01*
X95181418Y-84304472D01*
X95181418Y-84550000D01*
G36*
X100486001Y-63203389D02*
G01*
X100475465Y-63182994D01*
X100397478Y-63085197D01*
X100301911Y-63004495D01*
X100192436Y-62943987D01*
X100073260Y-62905999D01*
X99971750Y-62895000D01*
X99813000Y-63053750D01*
X99813000Y-64215500D01*
X99887000Y-64215500D01*
X99887000Y-64469500D01*
X99813000Y-64469500D01*
X99813000Y-64489500D01*
X99667000Y-64489500D01*
X99667000Y-64469500D01*
X99618582Y-64469500D01*
X99618582Y-64215500D01*
X99667000Y-64215500D01*
X99667000Y-63053750D01*
X99508250Y-62895000D01*
X99406740Y-62905999D01*
X99287564Y-62943987D01*
X99178089Y-63004495D01*
X99082522Y-63085197D01*
X99004535Y-63182994D01*
X98995017Y-63201418D01*
X98990000Y-63201418D01*
X98906388Y-63209653D01*
X98825989Y-63234042D01*
X98765000Y-63266641D01*
X98704011Y-63234042D01*
X98623612Y-63209653D01*
X98540000Y-63201418D01*
X98340000Y-63201418D01*
X98256388Y-63209653D01*
X98175989Y-63234042D01*
X98115000Y-63266641D01*
X98054011Y-63234042D01*
X97973612Y-63209653D01*
X97890000Y-63201418D01*
X97690000Y-63201418D01*
X97606388Y-63209653D01*
X97525989Y-63234042D01*
X97451893Y-63273647D01*
X97386947Y-63326947D01*
X97333647Y-63391893D01*
X97294042Y-63465989D01*
X97269653Y-63546388D01*
X97261418Y-63630000D01*
X97261418Y-64004129D01*
X97164955Y-63907666D01*
X97148448Y-63887552D01*
X97068202Y-63821696D01*
X96976650Y-63772761D01*
X96877310Y-63742626D01*
X96799881Y-63735000D01*
X96774000Y-63732451D01*
X96748119Y-63735000D01*
X96701229Y-63735000D01*
X96696465Y-63686624D01*
X96663540Y-63578086D01*
X96610073Y-63478057D01*
X96538119Y-63390381D01*
X96450443Y-63318427D01*
X96350489Y-63265000D01*
X97002119Y-63265000D01*
X97028000Y-63267549D01*
X97053881Y-63265000D01*
X97131310Y-63257374D01*
X97230650Y-63227239D01*
X97322202Y-63178304D01*
X97402448Y-63112448D01*
X97418955Y-63092334D01*
X98144344Y-62366947D01*
X98164448Y-62350448D01*
X98230304Y-62270202D01*
X98279239Y-62178650D01*
X98309374Y-62079310D01*
X98317000Y-62001881D01*
X98317000Y-62001880D01*
X98319549Y-61976000D01*
X98317000Y-61950119D01*
X98317000Y-61456250D01*
X98367000Y-61406250D01*
X98367000Y-61292637D01*
X98432522Y-61374803D01*
X98528089Y-61455505D01*
X98604474Y-61497724D01*
X98671750Y-61565000D01*
X98765000Y-61554896D01*
X98858250Y-61565000D01*
X98925526Y-61497724D01*
X99001911Y-61455505D01*
X99090000Y-61381118D01*
X99178089Y-61455505D01*
X99254474Y-61497724D01*
X99321750Y-61565000D01*
X99415000Y-61554896D01*
X99508250Y-61565000D01*
X99575526Y-61497724D01*
X99651911Y-61455505D01*
X99747478Y-61374803D01*
X99813000Y-61292637D01*
X99813000Y-61406250D01*
X99971750Y-61565000D01*
X100073260Y-61554001D01*
X100192436Y-61516013D01*
X100301911Y-61455505D01*
X100397478Y-61374803D01*
X100475465Y-61277006D01*
X100486000Y-61256612D01*
X100486001Y-63203389D01*
G37*
X100486001Y-63203389D02*
X100475465Y-63182994D01*
X100397478Y-63085197D01*
X100301911Y-63004495D01*
X100192436Y-62943987D01*
X100073260Y-62905999D01*
X99971750Y-62895000D01*
X99813000Y-63053750D01*
X99813000Y-64215500D01*
X99887000Y-64215500D01*
X99887000Y-64469500D01*
X99813000Y-64469500D01*
X99813000Y-64489500D01*
X99667000Y-64489500D01*
X99667000Y-64469500D01*
X99618582Y-64469500D01*
X99618582Y-64215500D01*
X99667000Y-64215500D01*
X99667000Y-63053750D01*
X99508250Y-62895000D01*
X99406740Y-62905999D01*
X99287564Y-62943987D01*
X99178089Y-63004495D01*
X99082522Y-63085197D01*
X99004535Y-63182994D01*
X98995017Y-63201418D01*
X98990000Y-63201418D01*
X98906388Y-63209653D01*
X98825989Y-63234042D01*
X98765000Y-63266641D01*
X98704011Y-63234042D01*
X98623612Y-63209653D01*
X98540000Y-63201418D01*
X98340000Y-63201418D01*
X98256388Y-63209653D01*
X98175989Y-63234042D01*
X98115000Y-63266641D01*
X98054011Y-63234042D01*
X97973612Y-63209653D01*
X97890000Y-63201418D01*
X97690000Y-63201418D01*
X97606388Y-63209653D01*
X97525989Y-63234042D01*
X97451893Y-63273647D01*
X97386947Y-63326947D01*
X97333647Y-63391893D01*
X97294042Y-63465989D01*
X97269653Y-63546388D01*
X97261418Y-63630000D01*
X97261418Y-64004129D01*
X97164955Y-63907666D01*
X97148448Y-63887552D01*
X97068202Y-63821696D01*
X96976650Y-63772761D01*
X96877310Y-63742626D01*
X96799881Y-63735000D01*
X96774000Y-63732451D01*
X96748119Y-63735000D01*
X96701229Y-63735000D01*
X96696465Y-63686624D01*
X96663540Y-63578086D01*
X96610073Y-63478057D01*
X96538119Y-63390381D01*
X96450443Y-63318427D01*
X96350489Y-63265000D01*
X97002119Y-63265000D01*
X97028000Y-63267549D01*
X97053881Y-63265000D01*
X97131310Y-63257374D01*
X97230650Y-63227239D01*
X97322202Y-63178304D01*
X97402448Y-63112448D01*
X97418955Y-63092334D01*
X98144344Y-62366947D01*
X98164448Y-62350448D01*
X98230304Y-62270202D01*
X98279239Y-62178650D01*
X98309374Y-62079310D01*
X98317000Y-62001881D01*
X98317000Y-62001880D01*
X98319549Y-61976000D01*
X98317000Y-61950119D01*
X98317000Y-61456250D01*
X98367000Y-61406250D01*
X98367000Y-61292637D01*
X98432522Y-61374803D01*
X98528089Y-61455505D01*
X98604474Y-61497724D01*
X98671750Y-61565000D01*
X98765000Y-61554896D01*
X98858250Y-61565000D01*
X98925526Y-61497724D01*
X99001911Y-61455505D01*
X99090000Y-61381118D01*
X99178089Y-61455505D01*
X99254474Y-61497724D01*
X99321750Y-61565000D01*
X99415000Y-61554896D01*
X99508250Y-61565000D01*
X99575526Y-61497724D01*
X99651911Y-61455505D01*
X99747478Y-61374803D01*
X99813000Y-61292637D01*
X99813000Y-61406250D01*
X99971750Y-61565000D01*
X100073260Y-61554001D01*
X100192436Y-61516013D01*
X100301911Y-61455505D01*
X100397478Y-61374803D01*
X100475465Y-61277006D01*
X100486000Y-61256612D01*
X100486001Y-63203389D01*
G36*
X100486000Y-58978388D02*
G01*
X100475465Y-58957994D01*
X100397478Y-58860197D01*
X100301911Y-58779495D01*
X100192436Y-58718987D01*
X100073260Y-58680999D01*
X99971750Y-58670000D01*
X99813000Y-58828750D01*
X99813000Y-58942363D01*
X99747478Y-58860197D01*
X99651911Y-58779495D01*
X99575526Y-58737276D01*
X99508250Y-58670000D01*
X99415000Y-58680104D01*
X99321750Y-58670000D01*
X99254474Y-58737276D01*
X99178089Y-58779495D01*
X99090000Y-58853882D01*
X99001911Y-58779495D01*
X98925526Y-58737276D01*
X98858250Y-58670000D01*
X98765000Y-58680104D01*
X98671750Y-58670000D01*
X98604474Y-58737276D01*
X98528089Y-58779495D01*
X98432522Y-58860197D01*
X98367000Y-58942363D01*
X98367000Y-58828750D01*
X98208250Y-58670000D01*
X98106740Y-58680999D01*
X97987564Y-58718987D01*
X97878089Y-58779495D01*
X97782522Y-58860197D01*
X97704535Y-58957994D01*
X97695017Y-58976418D01*
X97690000Y-58976418D01*
X97606388Y-58984653D01*
X97525989Y-59009042D01*
X97451893Y-59048647D01*
X97386947Y-59101947D01*
X97333647Y-59166893D01*
X97294042Y-59240989D01*
X97269653Y-59321388D01*
X97261418Y-59405000D01*
X97261418Y-60830000D01*
X97263001Y-60846069D01*
X97263000Y-61757709D01*
X97016620Y-62004090D01*
X97017072Y-61999500D01*
X97014000Y-61572750D01*
X96855250Y-61414000D01*
X95631000Y-61414000D01*
X95631000Y-61434000D01*
X95377000Y-61434000D01*
X95377000Y-61414000D01*
X95357000Y-61414000D01*
X95357000Y-61160000D01*
X95377000Y-61160000D01*
X95377000Y-60098250D01*
X95631000Y-60098250D01*
X95631000Y-61160000D01*
X96855250Y-61160000D01*
X97014000Y-61001250D01*
X97017072Y-60574500D01*
X97004812Y-60450018D01*
X96968502Y-60330320D01*
X96909537Y-60220006D01*
X96830185Y-60123315D01*
X96733494Y-60043963D01*
X96623180Y-59984998D01*
X96503482Y-59948688D01*
X96379000Y-59936428D01*
X95789750Y-59939500D01*
X95631000Y-60098250D01*
X95377000Y-60098250D01*
X95218250Y-59939500D01*
X94629000Y-59936428D01*
X94504518Y-59948688D01*
X94384820Y-59984998D01*
X94332000Y-60013231D01*
X94332000Y-58264000D01*
X100486000Y-58264000D01*
X100486000Y-58978388D01*
G37*
X100486000Y-58978388D02*
X100475465Y-58957994D01*
X100397478Y-58860197D01*
X100301911Y-58779495D01*
X100192436Y-58718987D01*
X100073260Y-58680999D01*
X99971750Y-58670000D01*
X99813000Y-58828750D01*
X99813000Y-58942363D01*
X99747478Y-58860197D01*
X99651911Y-58779495D01*
X99575526Y-58737276D01*
X99508250Y-58670000D01*
X99415000Y-58680104D01*
X99321750Y-58670000D01*
X99254474Y-58737276D01*
X99178089Y-58779495D01*
X99090000Y-58853882D01*
X99001911Y-58779495D01*
X98925526Y-58737276D01*
X98858250Y-58670000D01*
X98765000Y-58680104D01*
X98671750Y-58670000D01*
X98604474Y-58737276D01*
X98528089Y-58779495D01*
X98432522Y-58860197D01*
X98367000Y-58942363D01*
X98367000Y-58828750D01*
X98208250Y-58670000D01*
X98106740Y-58680999D01*
X97987564Y-58718987D01*
X97878089Y-58779495D01*
X97782522Y-58860197D01*
X97704535Y-58957994D01*
X97695017Y-58976418D01*
X97690000Y-58976418D01*
X97606388Y-58984653D01*
X97525989Y-59009042D01*
X97451893Y-59048647D01*
X97386947Y-59101947D01*
X97333647Y-59166893D01*
X97294042Y-59240989D01*
X97269653Y-59321388D01*
X97261418Y-59405000D01*
X97261418Y-60830000D01*
X97263001Y-60846069D01*
X97263000Y-61757709D01*
X97016620Y-62004090D01*
X97017072Y-61999500D01*
X97014000Y-61572750D01*
X96855250Y-61414000D01*
X95631000Y-61414000D01*
X95631000Y-61434000D01*
X95377000Y-61434000D01*
X95377000Y-61414000D01*
X95357000Y-61414000D01*
X95357000Y-61160000D01*
X95377000Y-61160000D01*
X95377000Y-60098250D01*
X95631000Y-60098250D01*
X95631000Y-61160000D01*
X96855250Y-61160000D01*
X97014000Y-61001250D01*
X97017072Y-60574500D01*
X97004812Y-60450018D01*
X96968502Y-60330320D01*
X96909537Y-60220006D01*
X96830185Y-60123315D01*
X96733494Y-60043963D01*
X96623180Y-59984998D01*
X96503482Y-59948688D01*
X96379000Y-59936428D01*
X95789750Y-59939500D01*
X95631000Y-60098250D01*
X95377000Y-60098250D01*
X95218250Y-59939500D01*
X94629000Y-59936428D01*
X94504518Y-59948688D01*
X94384820Y-59984998D01*
X94332000Y-60013231D01*
X94332000Y-58264000D01*
X100486000Y-58264000D01*
X100486000Y-58978388D01*
G36*
X99813000Y-59990500D02*
G01*
X99887000Y-59990500D01*
X99887000Y-60244500D01*
X99813000Y-60244500D01*
X99813000Y-60291250D01*
X99766250Y-60244500D01*
X98943000Y-60244500D01*
X98943000Y-59990500D01*
X99766250Y-59990500D01*
X99813000Y-59943750D01*
X99813000Y-59990500D01*
G37*
X99813000Y-59990500D02*
X99887000Y-59990500D01*
X99887000Y-60244500D01*
X99813000Y-60244500D01*
X99813000Y-60291250D01*
X99766250Y-60244500D01*
X98943000Y-60244500D01*
X98943000Y-59990500D01*
X99766250Y-59990500D01*
X99813000Y-59943750D01*
X99813000Y-59990500D01*
%TD*%
M02*
