%TF.GenerationSoftware,KiCad,Pcbnew,5.1.6*%
%TF.CreationDate,2020-08-14T17:13:24+01:00*%
%TF.ProjectId,wireless-temperaure-sensor,77697265-6c65-4737-932d-74656d706572,0.2*%
%TF.SameCoordinates,Original*%
%TF.FileFunction,Copper,L2,Bot*%
%TF.FilePolarity,Positive*%
%FSLAX46Y46*%
G04 Gerber Fmt 4.6, Leading zero omitted, Abs format (unit mm)*
G04 Created by KiCad (PCBNEW 5.1.6) date 2020-08-14 17:13:24*
%MOMM*%
%LPD*%
G01*
G04 APERTURE LIST*
%TA.AperFunction,ComponentPad*%
%ADD10C,1.500000*%
%TD*%
%TA.AperFunction,ComponentPad*%
%ADD11C,1.524000*%
%TD*%
%TA.AperFunction,ComponentPad*%
%ADD12R,1.524000X1.524000*%
%TD*%
%TA.AperFunction,SMDPad,CuDef*%
%ADD13R,3.600000X2.600000*%
%TD*%
%TA.AperFunction,ComponentPad*%
%ADD14O,1.700000X1.700000*%
%TD*%
%TA.AperFunction,ComponentPad*%
%ADD15R,1.700000X1.700000*%
%TD*%
%TA.AperFunction,ViaPad*%
%ADD16C,0.800000*%
%TD*%
%TA.AperFunction,Conductor*%
%ADD17C,1.000000*%
%TD*%
%TA.AperFunction,Conductor*%
%ADD18C,0.400000*%
%TD*%
%TA.AperFunction,Conductor*%
%ADD19C,0.254000*%
%TD*%
G04 APERTURE END LIST*
D10*
%TO.P,TP7,1*%
%TO.N,/SCL*%
X94488000Y-74676000D03*
%TD*%
%TO.P,TP6,1*%
%TO.N,/SDA*%
X90424000Y-74676000D03*
%TD*%
%TO.P,TP5,1*%
%TO.N,/NRF_CE*%
X102870000Y-105918000D03*
%TD*%
%TO.P,TP4,1*%
%TO.N,/NCSN*%
X99822000Y-100330000D03*
%TD*%
%TO.P,TP3,1*%
%TO.N,/SPI_SCK*%
X98806000Y-94742000D03*
%TD*%
%TO.P,TP2,1*%
%TO.N,/MISO*%
X95250000Y-106680000D03*
%TD*%
%TO.P,TP1,1*%
%TO.N,/MOSI*%
X91694000Y-106680000D03*
%TD*%
D11*
%TO.P,U2,8*%
%TO.N,Net-(U2-Pad8)*%
X95250000Y-112395000D03*
%TO.P,U2,7*%
%TO.N,/MISO*%
X95250000Y-109855000D03*
%TO.P,U2,6*%
%TO.N,/MOSI*%
X97790000Y-112395000D03*
%TO.P,U2,5*%
%TO.N,/SPI_SCK*%
X97790000Y-109855000D03*
%TO.P,U2,4*%
%TO.N,/NCSN*%
X100330000Y-112395000D03*
%TO.P,U2,3*%
%TO.N,/NRF_CE*%
X100330000Y-109855000D03*
%TO.P,U2,2*%
%TO.N,VDD*%
X102870000Y-112395000D03*
D12*
%TO.P,U2,1*%
%TO.N,GND*%
X102870000Y-109855000D03*
%TD*%
%TO.P,C1,2*%
%TO.N,GND*%
%TA.AperFunction,SMDPad,CuDef*%
G36*
G01*
X101322500Y-71999000D02*
X101322500Y-70749000D01*
G75*
G02*
X101572500Y-70499000I250000J0D01*
G01*
X102497500Y-70499000D01*
G75*
G02*
X102747500Y-70749000I0J-250000D01*
G01*
X102747500Y-71999000D01*
G75*
G02*
X102497500Y-72249000I-250000J0D01*
G01*
X101572500Y-72249000D01*
G75*
G02*
X101322500Y-71999000I0J250000D01*
G01*
G37*
%TD.AperFunction*%
%TO.P,C1,1*%
%TO.N,VDD*%
%TA.AperFunction,SMDPad,CuDef*%
G36*
G01*
X98347500Y-71999000D02*
X98347500Y-70749000D01*
G75*
G02*
X98597500Y-70499000I250000J0D01*
G01*
X99522500Y-70499000D01*
G75*
G02*
X99772500Y-70749000I0J-250000D01*
G01*
X99772500Y-71999000D01*
G75*
G02*
X99522500Y-72249000I-250000J0D01*
G01*
X98597500Y-72249000D01*
G75*
G02*
X98347500Y-71999000I0J250000D01*
G01*
G37*
%TD.AperFunction*%
%TD*%
D13*
%TO.P,BT1,1*%
%TO.N,VDD*%
X99060000Y-75901000D03*
%TO.P,BT1,2*%
%TO.N,GND*%
X99060000Y-105201000D03*
%TD*%
D14*
%TO.P,J1,5*%
%TO.N,/SWCLK*%
X90170000Y-92075000D03*
%TO.P,J1,4*%
%TO.N,/SWDIO*%
X90170000Y-89535000D03*
%TO.P,J1,3*%
%TO.N,/NRST*%
X90170000Y-86995000D03*
%TO.P,J1,2*%
%TO.N,GND*%
X90170000Y-84455000D03*
D15*
%TO.P,J1,1*%
%TO.N,VDD*%
X90170000Y-81915000D03*
%TD*%
D16*
%TO.N,VDD*%
X96266000Y-72644000D03*
X89154000Y-72644000D03*
%TO.N,GND*%
X98806000Y-61976000D03*
X95250000Y-59436000D03*
X96520000Y-59436000D03*
X99822000Y-61976000D03*
X101600000Y-101600000D03*
X100584000Y-101600000D03*
X94742000Y-85344000D03*
X108458000Y-89916000D03*
X108458000Y-88900000D03*
X109220000Y-92202000D03*
X109220000Y-93218000D03*
X103886000Y-70866000D03*
X103886000Y-71882000D03*
X93726000Y-78994000D03*
X94742000Y-78994000D03*
X96774000Y-101854000D03*
X96520000Y-108712000D03*
X93218000Y-100330000D03*
X101600000Y-91186000D03*
X102616000Y-91186000D03*
%TO.N,/NRST*%
X101600000Y-90170000D03*
X97282000Y-90170000D03*
%TD*%
D17*
%TO.N,VDD*%
X99060000Y-75901000D02*
X99060000Y-71374000D01*
D18*
X99060000Y-71374000D02*
X97536000Y-71374000D01*
X97536000Y-71374000D02*
X96266000Y-72644000D01*
X96266000Y-72644000D02*
X89154000Y-72644000D01*
%TO.N,/NRST*%
X97282000Y-90170000D02*
X101600000Y-90170000D01*
%TD*%
D19*
%TO.N,GND*%
G36*
X92866000Y-66784708D02*
G01*
X92864297Y-66802000D01*
X92871093Y-66871004D01*
X92891221Y-66937356D01*
X92923907Y-66998507D01*
X92967894Y-67052106D01*
X93021493Y-67096093D01*
X93082644Y-67128779D01*
X93148996Y-67148907D01*
X93218000Y-67155703D01*
X93235291Y-67154000D01*
X96502709Y-67154000D01*
X96520000Y-67155703D01*
X96589004Y-67148907D01*
X96655356Y-67128779D01*
X96716507Y-67096093D01*
X96770106Y-67052106D01*
X96814093Y-66998507D01*
X96846779Y-66937356D01*
X96866907Y-66871004D01*
X96872000Y-66819292D01*
X96872000Y-66819291D01*
X96873703Y-66802000D01*
X96872000Y-66784708D01*
X96872000Y-65803291D01*
X96873703Y-65786000D01*
X96866907Y-65716996D01*
X96846779Y-65650644D01*
X96814093Y-65589493D01*
X96770106Y-65535894D01*
X96716507Y-65491907D01*
X96655356Y-65459221D01*
X96589004Y-65439093D01*
X96537292Y-65434000D01*
X96537291Y-65434000D01*
X96520000Y-65432297D01*
X96502708Y-65434000D01*
X94332000Y-65434000D01*
X94332000Y-58264000D01*
X100486000Y-58264000D01*
X100486001Y-65434000D01*
X99077291Y-65434000D01*
X99060000Y-65432297D01*
X99042708Y-65434000D01*
X98990996Y-65439093D01*
X98924644Y-65459221D01*
X98863493Y-65491907D01*
X98809894Y-65535894D01*
X98765907Y-65589493D01*
X98733221Y-65650644D01*
X98713093Y-65716996D01*
X98706297Y-65786000D01*
X98708000Y-65803291D01*
X98708001Y-66784699D01*
X98706297Y-66802000D01*
X98713093Y-66871004D01*
X98733221Y-66937356D01*
X98765907Y-66998507D01*
X98809894Y-67052106D01*
X98863493Y-67096093D01*
X98924644Y-67128779D01*
X98990996Y-67148907D01*
X99042708Y-67154000D01*
X99042709Y-67154000D01*
X99060000Y-67155703D01*
X99077292Y-67154000D01*
X101582708Y-67154000D01*
X101600000Y-67155703D01*
X101617291Y-67154000D01*
X101617292Y-67154000D01*
X101669004Y-67148907D01*
X101735356Y-67128779D01*
X101796507Y-67096093D01*
X101850106Y-67052106D01*
X101894093Y-66998507D01*
X101926779Y-66937356D01*
X101946907Y-66871004D01*
X101953703Y-66802000D01*
X101952000Y-66784708D01*
X101952000Y-58264000D01*
X109884001Y-58264000D01*
X109884000Y-114456000D01*
X86458000Y-114456000D01*
X86458000Y-112287743D01*
X94161000Y-112287743D01*
X94161000Y-112502257D01*
X94202850Y-112712650D01*
X94284941Y-112910835D01*
X94404119Y-113089197D01*
X94555803Y-113240881D01*
X94734165Y-113360059D01*
X94932350Y-113442150D01*
X95142743Y-113484000D01*
X95357257Y-113484000D01*
X95567650Y-113442150D01*
X95765835Y-113360059D01*
X95944197Y-113240881D01*
X96095881Y-113089197D01*
X96215059Y-112910835D01*
X96297150Y-112712650D01*
X96339000Y-112502257D01*
X96339000Y-112287743D01*
X96701000Y-112287743D01*
X96701000Y-112502257D01*
X96742850Y-112712650D01*
X96824941Y-112910835D01*
X96944119Y-113089197D01*
X97095803Y-113240881D01*
X97274165Y-113360059D01*
X97472350Y-113442150D01*
X97682743Y-113484000D01*
X97897257Y-113484000D01*
X98107650Y-113442150D01*
X98305835Y-113360059D01*
X98484197Y-113240881D01*
X98635881Y-113089197D01*
X98755059Y-112910835D01*
X98837150Y-112712650D01*
X98879000Y-112502257D01*
X98879000Y-112287743D01*
X99241000Y-112287743D01*
X99241000Y-112502257D01*
X99282850Y-112712650D01*
X99364941Y-112910835D01*
X99484119Y-113089197D01*
X99635803Y-113240881D01*
X99814165Y-113360059D01*
X100012350Y-113442150D01*
X100222743Y-113484000D01*
X100437257Y-113484000D01*
X100647650Y-113442150D01*
X100845835Y-113360059D01*
X101024197Y-113240881D01*
X101175881Y-113089197D01*
X101295059Y-112910835D01*
X101377150Y-112712650D01*
X101419000Y-112502257D01*
X101419000Y-112287743D01*
X101781000Y-112287743D01*
X101781000Y-112502257D01*
X101822850Y-112712650D01*
X101904941Y-112910835D01*
X102024119Y-113089197D01*
X102175803Y-113240881D01*
X102354165Y-113360059D01*
X102552350Y-113442150D01*
X102762743Y-113484000D01*
X102977257Y-113484000D01*
X103187650Y-113442150D01*
X103385835Y-113360059D01*
X103564197Y-113240881D01*
X103715881Y-113089197D01*
X103835059Y-112910835D01*
X103917150Y-112712650D01*
X103959000Y-112502257D01*
X103959000Y-112287743D01*
X103917150Y-112077350D01*
X103835059Y-111879165D01*
X103715881Y-111700803D01*
X103564197Y-111549119D01*
X103385835Y-111429941D01*
X103187650Y-111347850D01*
X102977257Y-111306000D01*
X102762743Y-111306000D01*
X102552350Y-111347850D01*
X102354165Y-111429941D01*
X102175803Y-111549119D01*
X102024119Y-111700803D01*
X101904941Y-111879165D01*
X101822850Y-112077350D01*
X101781000Y-112287743D01*
X101419000Y-112287743D01*
X101377150Y-112077350D01*
X101295059Y-111879165D01*
X101175881Y-111700803D01*
X101024197Y-111549119D01*
X100845835Y-111429941D01*
X100647650Y-111347850D01*
X100437257Y-111306000D01*
X100222743Y-111306000D01*
X100012350Y-111347850D01*
X99814165Y-111429941D01*
X99635803Y-111549119D01*
X99484119Y-111700803D01*
X99364941Y-111879165D01*
X99282850Y-112077350D01*
X99241000Y-112287743D01*
X98879000Y-112287743D01*
X98837150Y-112077350D01*
X98755059Y-111879165D01*
X98635881Y-111700803D01*
X98484197Y-111549119D01*
X98305835Y-111429941D01*
X98107650Y-111347850D01*
X97897257Y-111306000D01*
X97682743Y-111306000D01*
X97472350Y-111347850D01*
X97274165Y-111429941D01*
X97095803Y-111549119D01*
X96944119Y-111700803D01*
X96824941Y-111879165D01*
X96742850Y-112077350D01*
X96701000Y-112287743D01*
X96339000Y-112287743D01*
X96297150Y-112077350D01*
X96215059Y-111879165D01*
X96095881Y-111700803D01*
X95944197Y-111549119D01*
X95765835Y-111429941D01*
X95567650Y-111347850D01*
X95357257Y-111306000D01*
X95142743Y-111306000D01*
X94932350Y-111347850D01*
X94734165Y-111429941D01*
X94555803Y-111549119D01*
X94404119Y-111700803D01*
X94284941Y-111879165D01*
X94202850Y-112077350D01*
X94161000Y-112287743D01*
X86458000Y-112287743D01*
X86458000Y-109747743D01*
X94161000Y-109747743D01*
X94161000Y-109962257D01*
X94202850Y-110172650D01*
X94284941Y-110370835D01*
X94404119Y-110549197D01*
X94555803Y-110700881D01*
X94734165Y-110820059D01*
X94932350Y-110902150D01*
X95142743Y-110944000D01*
X95357257Y-110944000D01*
X95567650Y-110902150D01*
X95765835Y-110820059D01*
X95944197Y-110700881D01*
X96095881Y-110549197D01*
X96215059Y-110370835D01*
X96297150Y-110172650D01*
X96339000Y-109962257D01*
X96339000Y-109747743D01*
X96701000Y-109747743D01*
X96701000Y-109962257D01*
X96742850Y-110172650D01*
X96824941Y-110370835D01*
X96944119Y-110549197D01*
X97095803Y-110700881D01*
X97274165Y-110820059D01*
X97472350Y-110902150D01*
X97682743Y-110944000D01*
X97897257Y-110944000D01*
X98107650Y-110902150D01*
X98305835Y-110820059D01*
X98484197Y-110700881D01*
X98635881Y-110549197D01*
X98755059Y-110370835D01*
X98837150Y-110172650D01*
X98879000Y-109962257D01*
X98879000Y-109747743D01*
X99241000Y-109747743D01*
X99241000Y-109962257D01*
X99282850Y-110172650D01*
X99364941Y-110370835D01*
X99484119Y-110549197D01*
X99635803Y-110700881D01*
X99814165Y-110820059D01*
X100012350Y-110902150D01*
X100222743Y-110944000D01*
X100437257Y-110944000D01*
X100647650Y-110902150D01*
X100845835Y-110820059D01*
X101024197Y-110700881D01*
X101108078Y-110617000D01*
X101469928Y-110617000D01*
X101482188Y-110741482D01*
X101518498Y-110861180D01*
X101577463Y-110971494D01*
X101656815Y-111068185D01*
X101753506Y-111147537D01*
X101863820Y-111206502D01*
X101983518Y-111242812D01*
X102108000Y-111255072D01*
X102584250Y-111252000D01*
X102743000Y-111093250D01*
X102743000Y-109982000D01*
X102997000Y-109982000D01*
X102997000Y-111093250D01*
X103155750Y-111252000D01*
X103632000Y-111255072D01*
X103756482Y-111242812D01*
X103876180Y-111206502D01*
X103986494Y-111147537D01*
X104083185Y-111068185D01*
X104162537Y-110971494D01*
X104221502Y-110861180D01*
X104257812Y-110741482D01*
X104270072Y-110617000D01*
X104267000Y-110140750D01*
X104108250Y-109982000D01*
X102997000Y-109982000D01*
X102743000Y-109982000D01*
X101631750Y-109982000D01*
X101473000Y-110140750D01*
X101469928Y-110617000D01*
X101108078Y-110617000D01*
X101175881Y-110549197D01*
X101295059Y-110370835D01*
X101377150Y-110172650D01*
X101419000Y-109962257D01*
X101419000Y-109747743D01*
X101377150Y-109537350D01*
X101295059Y-109339165D01*
X101175881Y-109160803D01*
X101108078Y-109093000D01*
X101469928Y-109093000D01*
X101473000Y-109569250D01*
X101631750Y-109728000D01*
X102743000Y-109728000D01*
X102743000Y-108616750D01*
X102997000Y-108616750D01*
X102997000Y-109728000D01*
X104108250Y-109728000D01*
X104267000Y-109569250D01*
X104270072Y-109093000D01*
X104257812Y-108968518D01*
X104221502Y-108848820D01*
X104162537Y-108738506D01*
X104083185Y-108641815D01*
X103986494Y-108562463D01*
X103876180Y-108503498D01*
X103756482Y-108467188D01*
X103632000Y-108454928D01*
X103155750Y-108458000D01*
X102997000Y-108616750D01*
X102743000Y-108616750D01*
X102584250Y-108458000D01*
X102108000Y-108454928D01*
X101983518Y-108467188D01*
X101863820Y-108503498D01*
X101753506Y-108562463D01*
X101656815Y-108641815D01*
X101577463Y-108738506D01*
X101518498Y-108848820D01*
X101482188Y-108968518D01*
X101469928Y-109093000D01*
X101108078Y-109093000D01*
X101024197Y-109009119D01*
X100845835Y-108889941D01*
X100647650Y-108807850D01*
X100437257Y-108766000D01*
X100222743Y-108766000D01*
X100012350Y-108807850D01*
X99814165Y-108889941D01*
X99635803Y-109009119D01*
X99484119Y-109160803D01*
X99364941Y-109339165D01*
X99282850Y-109537350D01*
X99241000Y-109747743D01*
X98879000Y-109747743D01*
X98837150Y-109537350D01*
X98755059Y-109339165D01*
X98635881Y-109160803D01*
X98484197Y-109009119D01*
X98305835Y-108889941D01*
X98107650Y-108807850D01*
X97897257Y-108766000D01*
X97682743Y-108766000D01*
X97472350Y-108807850D01*
X97274165Y-108889941D01*
X97095803Y-109009119D01*
X96944119Y-109160803D01*
X96824941Y-109339165D01*
X96742850Y-109537350D01*
X96701000Y-109747743D01*
X96339000Y-109747743D01*
X96297150Y-109537350D01*
X96215059Y-109339165D01*
X96095881Y-109160803D01*
X95944197Y-109009119D01*
X95765835Y-108889941D01*
X95567650Y-108807850D01*
X95357257Y-108766000D01*
X95142743Y-108766000D01*
X94932350Y-108807850D01*
X94734165Y-108889941D01*
X94555803Y-109009119D01*
X94404119Y-109160803D01*
X94284941Y-109339165D01*
X94202850Y-109537350D01*
X94161000Y-109747743D01*
X86458000Y-109747743D01*
X86458000Y-106573925D01*
X90617000Y-106573925D01*
X90617000Y-106786075D01*
X90658389Y-106994149D01*
X90739575Y-107190151D01*
X90857440Y-107366547D01*
X91007453Y-107516560D01*
X91183849Y-107634425D01*
X91379851Y-107715611D01*
X91587925Y-107757000D01*
X91800075Y-107757000D01*
X92008149Y-107715611D01*
X92204151Y-107634425D01*
X92380547Y-107516560D01*
X92530560Y-107366547D01*
X92648425Y-107190151D01*
X92729611Y-106994149D01*
X92771000Y-106786075D01*
X92771000Y-106573925D01*
X94173000Y-106573925D01*
X94173000Y-106786075D01*
X94214389Y-106994149D01*
X94295575Y-107190151D01*
X94413440Y-107366547D01*
X94563453Y-107516560D01*
X94739849Y-107634425D01*
X94935851Y-107715611D01*
X95143925Y-107757000D01*
X95356075Y-107757000D01*
X95564149Y-107715611D01*
X95760151Y-107634425D01*
X95936547Y-107516560D01*
X96086560Y-107366547D01*
X96204425Y-107190151D01*
X96285611Y-106994149D01*
X96327000Y-106786075D01*
X96327000Y-106573925D01*
X96312495Y-106501000D01*
X96621928Y-106501000D01*
X96634188Y-106625482D01*
X96670498Y-106745180D01*
X96729463Y-106855494D01*
X96808815Y-106952185D01*
X96905506Y-107031537D01*
X97015820Y-107090502D01*
X97135518Y-107126812D01*
X97260000Y-107139072D01*
X98774250Y-107136000D01*
X98933000Y-106977250D01*
X98933000Y-105328000D01*
X99187000Y-105328000D01*
X99187000Y-106977250D01*
X99345750Y-107136000D01*
X100860000Y-107139072D01*
X100984482Y-107126812D01*
X101104180Y-107090502D01*
X101214494Y-107031537D01*
X101311185Y-106952185D01*
X101390537Y-106855494D01*
X101449502Y-106745180D01*
X101485812Y-106625482D01*
X101498072Y-106501000D01*
X101495985Y-105811925D01*
X101793000Y-105811925D01*
X101793000Y-106024075D01*
X101834389Y-106232149D01*
X101915575Y-106428151D01*
X102033440Y-106604547D01*
X102183453Y-106754560D01*
X102359849Y-106872425D01*
X102555851Y-106953611D01*
X102763925Y-106995000D01*
X102976075Y-106995000D01*
X103184149Y-106953611D01*
X103380151Y-106872425D01*
X103556547Y-106754560D01*
X103706560Y-106604547D01*
X103824425Y-106428151D01*
X103905611Y-106232149D01*
X103947000Y-106024075D01*
X103947000Y-105811925D01*
X103905611Y-105603851D01*
X103824425Y-105407849D01*
X103706560Y-105231453D01*
X103556547Y-105081440D01*
X103380151Y-104963575D01*
X103184149Y-104882389D01*
X102976075Y-104841000D01*
X102763925Y-104841000D01*
X102555851Y-104882389D01*
X102359849Y-104963575D01*
X102183453Y-105081440D01*
X102033440Y-105231453D01*
X101915575Y-105407849D01*
X101834389Y-105603851D01*
X101793000Y-105811925D01*
X101495985Y-105811925D01*
X101495000Y-105486750D01*
X101336250Y-105328000D01*
X99187000Y-105328000D01*
X98933000Y-105328000D01*
X96783750Y-105328000D01*
X96625000Y-105486750D01*
X96621928Y-106501000D01*
X96312495Y-106501000D01*
X96285611Y-106365851D01*
X96204425Y-106169849D01*
X96086560Y-105993453D01*
X95936547Y-105843440D01*
X95760151Y-105725575D01*
X95564149Y-105644389D01*
X95356075Y-105603000D01*
X95143925Y-105603000D01*
X94935851Y-105644389D01*
X94739849Y-105725575D01*
X94563453Y-105843440D01*
X94413440Y-105993453D01*
X94295575Y-106169849D01*
X94214389Y-106365851D01*
X94173000Y-106573925D01*
X92771000Y-106573925D01*
X92729611Y-106365851D01*
X92648425Y-106169849D01*
X92530560Y-105993453D01*
X92380547Y-105843440D01*
X92204151Y-105725575D01*
X92008149Y-105644389D01*
X91800075Y-105603000D01*
X91587925Y-105603000D01*
X91379851Y-105644389D01*
X91183849Y-105725575D01*
X91007453Y-105843440D01*
X90857440Y-105993453D01*
X90739575Y-106169849D01*
X90658389Y-106365851D01*
X90617000Y-106573925D01*
X86458000Y-106573925D01*
X86458000Y-103901000D01*
X96621928Y-103901000D01*
X96625000Y-104915250D01*
X96783750Y-105074000D01*
X98933000Y-105074000D01*
X98933000Y-103424750D01*
X99187000Y-103424750D01*
X99187000Y-105074000D01*
X101336250Y-105074000D01*
X101495000Y-104915250D01*
X101498072Y-103901000D01*
X101485812Y-103776518D01*
X101449502Y-103656820D01*
X101390537Y-103546506D01*
X101311185Y-103449815D01*
X101214494Y-103370463D01*
X101104180Y-103311498D01*
X100984482Y-103275188D01*
X100860000Y-103262928D01*
X99345750Y-103266000D01*
X99187000Y-103424750D01*
X98933000Y-103424750D01*
X98774250Y-103266000D01*
X97260000Y-103262928D01*
X97135518Y-103275188D01*
X97015820Y-103311498D01*
X96905506Y-103370463D01*
X96808815Y-103449815D01*
X96729463Y-103546506D01*
X96670498Y-103656820D01*
X96634188Y-103776518D01*
X96621928Y-103901000D01*
X86458000Y-103901000D01*
X86458000Y-100223925D01*
X98745000Y-100223925D01*
X98745000Y-100436075D01*
X98786389Y-100644149D01*
X98867575Y-100840151D01*
X98985440Y-101016547D01*
X99135453Y-101166560D01*
X99311849Y-101284425D01*
X99507851Y-101365611D01*
X99715925Y-101407000D01*
X99928075Y-101407000D01*
X100136149Y-101365611D01*
X100332151Y-101284425D01*
X100508547Y-101166560D01*
X100658560Y-101016547D01*
X100776425Y-100840151D01*
X100857611Y-100644149D01*
X100899000Y-100436075D01*
X100899000Y-100223925D01*
X100857611Y-100015851D01*
X100776425Y-99819849D01*
X100658560Y-99643453D01*
X100508547Y-99493440D01*
X100332151Y-99375575D01*
X100136149Y-99294389D01*
X99928075Y-99253000D01*
X99715925Y-99253000D01*
X99507851Y-99294389D01*
X99311849Y-99375575D01*
X99135453Y-99493440D01*
X98985440Y-99643453D01*
X98867575Y-99819849D01*
X98786389Y-100015851D01*
X98745000Y-100223925D01*
X86458000Y-100223925D01*
X86458000Y-94635925D01*
X97729000Y-94635925D01*
X97729000Y-94848075D01*
X97770389Y-95056149D01*
X97851575Y-95252151D01*
X97969440Y-95428547D01*
X98119453Y-95578560D01*
X98295849Y-95696425D01*
X98491851Y-95777611D01*
X98699925Y-95819000D01*
X98912075Y-95819000D01*
X99120149Y-95777611D01*
X99316151Y-95696425D01*
X99492547Y-95578560D01*
X99642560Y-95428547D01*
X99760425Y-95252151D01*
X99841611Y-95056149D01*
X99883000Y-94848075D01*
X99883000Y-94635925D01*
X99841611Y-94427851D01*
X99760425Y-94231849D01*
X99642560Y-94055453D01*
X99492547Y-93905440D01*
X99316151Y-93787575D01*
X99120149Y-93706389D01*
X98912075Y-93665000D01*
X98699925Y-93665000D01*
X98491851Y-93706389D01*
X98295849Y-93787575D01*
X98119453Y-93905440D01*
X97969440Y-94055453D01*
X97851575Y-94231849D01*
X97770389Y-94427851D01*
X97729000Y-94635925D01*
X86458000Y-94635925D01*
X86458000Y-91959076D01*
X88993000Y-91959076D01*
X88993000Y-92190924D01*
X89038231Y-92418318D01*
X89126956Y-92632519D01*
X89255764Y-92825294D01*
X89419706Y-92989236D01*
X89612481Y-93118044D01*
X89826682Y-93206769D01*
X90054076Y-93252000D01*
X90285924Y-93252000D01*
X90513318Y-93206769D01*
X90727519Y-93118044D01*
X90920294Y-92989236D01*
X91084236Y-92825294D01*
X91213044Y-92632519D01*
X91301769Y-92418318D01*
X91347000Y-92190924D01*
X91347000Y-91959076D01*
X91301769Y-91731682D01*
X91213044Y-91517481D01*
X91084236Y-91324706D01*
X90920294Y-91160764D01*
X90727519Y-91031956D01*
X90513318Y-90943231D01*
X90285924Y-90898000D01*
X90054076Y-90898000D01*
X89826682Y-90943231D01*
X89612481Y-91031956D01*
X89419706Y-91160764D01*
X89255764Y-91324706D01*
X89126956Y-91517481D01*
X89038231Y-91731682D01*
X88993000Y-91959076D01*
X86458000Y-91959076D01*
X86458000Y-89419076D01*
X88993000Y-89419076D01*
X88993000Y-89650924D01*
X89038231Y-89878318D01*
X89126956Y-90092519D01*
X89255764Y-90285294D01*
X89419706Y-90449236D01*
X89612481Y-90578044D01*
X89826682Y-90666769D01*
X90054076Y-90712000D01*
X90285924Y-90712000D01*
X90513318Y-90666769D01*
X90727519Y-90578044D01*
X90920294Y-90449236D01*
X91084236Y-90285294D01*
X91209116Y-90098397D01*
X96555000Y-90098397D01*
X96555000Y-90241603D01*
X96582938Y-90382058D01*
X96637741Y-90514364D01*
X96717302Y-90633436D01*
X96818564Y-90734698D01*
X96937636Y-90814259D01*
X97069942Y-90869062D01*
X97210397Y-90897000D01*
X97353603Y-90897000D01*
X97494058Y-90869062D01*
X97626364Y-90814259D01*
X97745436Y-90734698D01*
X97783134Y-90697000D01*
X101098866Y-90697000D01*
X101136564Y-90734698D01*
X101255636Y-90814259D01*
X101387942Y-90869062D01*
X101528397Y-90897000D01*
X101671603Y-90897000D01*
X101812058Y-90869062D01*
X101944364Y-90814259D01*
X102063436Y-90734698D01*
X102164698Y-90633436D01*
X102244259Y-90514364D01*
X102299062Y-90382058D01*
X102327000Y-90241603D01*
X102327000Y-90098397D01*
X102299062Y-89957942D01*
X102244259Y-89825636D01*
X102164698Y-89706564D01*
X102063436Y-89605302D01*
X101944364Y-89525741D01*
X101812058Y-89470938D01*
X101671603Y-89443000D01*
X101528397Y-89443000D01*
X101387942Y-89470938D01*
X101255636Y-89525741D01*
X101136564Y-89605302D01*
X101098866Y-89643000D01*
X97783134Y-89643000D01*
X97745436Y-89605302D01*
X97626364Y-89525741D01*
X97494058Y-89470938D01*
X97353603Y-89443000D01*
X97210397Y-89443000D01*
X97069942Y-89470938D01*
X96937636Y-89525741D01*
X96818564Y-89605302D01*
X96717302Y-89706564D01*
X96637741Y-89825636D01*
X96582938Y-89957942D01*
X96555000Y-90098397D01*
X91209116Y-90098397D01*
X91213044Y-90092519D01*
X91301769Y-89878318D01*
X91347000Y-89650924D01*
X91347000Y-89419076D01*
X91301769Y-89191682D01*
X91213044Y-88977481D01*
X91084236Y-88784706D01*
X90920294Y-88620764D01*
X90727519Y-88491956D01*
X90513318Y-88403231D01*
X90285924Y-88358000D01*
X90054076Y-88358000D01*
X89826682Y-88403231D01*
X89612481Y-88491956D01*
X89419706Y-88620764D01*
X89255764Y-88784706D01*
X89126956Y-88977481D01*
X89038231Y-89191682D01*
X88993000Y-89419076D01*
X86458000Y-89419076D01*
X86458000Y-84811890D01*
X88728524Y-84811890D01*
X88773175Y-84959099D01*
X88898359Y-85221920D01*
X89072412Y-85455269D01*
X89288645Y-85650178D01*
X89538748Y-85799157D01*
X89777179Y-85883736D01*
X89612481Y-85951956D01*
X89419706Y-86080764D01*
X89255764Y-86244706D01*
X89126956Y-86437481D01*
X89038231Y-86651682D01*
X88993000Y-86879076D01*
X88993000Y-87110924D01*
X89038231Y-87338318D01*
X89126956Y-87552519D01*
X89255764Y-87745294D01*
X89419706Y-87909236D01*
X89612481Y-88038044D01*
X89826682Y-88126769D01*
X90054076Y-88172000D01*
X90285924Y-88172000D01*
X90513318Y-88126769D01*
X90727519Y-88038044D01*
X90920294Y-87909236D01*
X91084236Y-87745294D01*
X91213044Y-87552519D01*
X91301769Y-87338318D01*
X91347000Y-87110924D01*
X91347000Y-86879076D01*
X91301769Y-86651682D01*
X91213044Y-86437481D01*
X91084236Y-86244706D01*
X90920294Y-86080764D01*
X90727519Y-85951956D01*
X90562821Y-85883736D01*
X90801252Y-85799157D01*
X91051355Y-85650178D01*
X91267588Y-85455269D01*
X91441641Y-85221920D01*
X91566825Y-84959099D01*
X91611476Y-84811890D01*
X91490155Y-84582000D01*
X90297000Y-84582000D01*
X90297000Y-84602000D01*
X90043000Y-84602000D01*
X90043000Y-84582000D01*
X88849845Y-84582000D01*
X88728524Y-84811890D01*
X86458000Y-84811890D01*
X86458000Y-84098110D01*
X88728524Y-84098110D01*
X88849845Y-84328000D01*
X90043000Y-84328000D01*
X90043000Y-84308000D01*
X90297000Y-84308000D01*
X90297000Y-84328000D01*
X91490155Y-84328000D01*
X91611476Y-84098110D01*
X91566825Y-83950901D01*
X91441641Y-83688080D01*
X91267588Y-83454731D01*
X91051355Y-83259822D01*
X90801252Y-83110843D01*
X90752592Y-83093582D01*
X91020000Y-83093582D01*
X91084103Y-83087268D01*
X91145743Y-83068570D01*
X91202550Y-83038206D01*
X91252343Y-82997343D01*
X91293206Y-82947550D01*
X91323570Y-82890743D01*
X91342268Y-82829103D01*
X91348582Y-82765000D01*
X91348582Y-81065000D01*
X91342268Y-81000897D01*
X91323570Y-80939257D01*
X91293206Y-80882450D01*
X91252343Y-80832657D01*
X91202550Y-80791794D01*
X91145743Y-80761430D01*
X91084103Y-80742732D01*
X91020000Y-80736418D01*
X89320000Y-80736418D01*
X89255897Y-80742732D01*
X89194257Y-80761430D01*
X89137450Y-80791794D01*
X89087657Y-80832657D01*
X89046794Y-80882450D01*
X89016430Y-80939257D01*
X88997732Y-81000897D01*
X88991418Y-81065000D01*
X88991418Y-82765000D01*
X88997732Y-82829103D01*
X89016430Y-82890743D01*
X89046794Y-82947550D01*
X89087657Y-82997343D01*
X89137450Y-83038206D01*
X89194257Y-83068570D01*
X89255897Y-83087268D01*
X89320000Y-83093582D01*
X89587408Y-83093582D01*
X89538748Y-83110843D01*
X89288645Y-83259822D01*
X89072412Y-83454731D01*
X88898359Y-83688080D01*
X88773175Y-83950901D01*
X88728524Y-84098110D01*
X86458000Y-84098110D01*
X86458000Y-74569925D01*
X89347000Y-74569925D01*
X89347000Y-74782075D01*
X89388389Y-74990149D01*
X89469575Y-75186151D01*
X89587440Y-75362547D01*
X89737453Y-75512560D01*
X89913849Y-75630425D01*
X90109851Y-75711611D01*
X90317925Y-75753000D01*
X90530075Y-75753000D01*
X90738149Y-75711611D01*
X90934151Y-75630425D01*
X91110547Y-75512560D01*
X91260560Y-75362547D01*
X91378425Y-75186151D01*
X91459611Y-74990149D01*
X91501000Y-74782075D01*
X91501000Y-74569925D01*
X93411000Y-74569925D01*
X93411000Y-74782075D01*
X93452389Y-74990149D01*
X93533575Y-75186151D01*
X93651440Y-75362547D01*
X93801453Y-75512560D01*
X93977849Y-75630425D01*
X94173851Y-75711611D01*
X94381925Y-75753000D01*
X94594075Y-75753000D01*
X94802149Y-75711611D01*
X94998151Y-75630425D01*
X95174547Y-75512560D01*
X95324560Y-75362547D01*
X95442425Y-75186151D01*
X95523611Y-74990149D01*
X95565000Y-74782075D01*
X95565000Y-74569925D01*
X95523611Y-74361851D01*
X95442425Y-74165849D01*
X95324560Y-73989453D01*
X95174547Y-73839440D01*
X94998151Y-73721575D01*
X94802149Y-73640389D01*
X94594075Y-73599000D01*
X94381925Y-73599000D01*
X94173851Y-73640389D01*
X93977849Y-73721575D01*
X93801453Y-73839440D01*
X93651440Y-73989453D01*
X93533575Y-74165849D01*
X93452389Y-74361851D01*
X93411000Y-74569925D01*
X91501000Y-74569925D01*
X91459611Y-74361851D01*
X91378425Y-74165849D01*
X91260560Y-73989453D01*
X91110547Y-73839440D01*
X90934151Y-73721575D01*
X90738149Y-73640389D01*
X90530075Y-73599000D01*
X90317925Y-73599000D01*
X90109851Y-73640389D01*
X89913849Y-73721575D01*
X89737453Y-73839440D01*
X89587440Y-73989453D01*
X89469575Y-74165849D01*
X89388389Y-74361851D01*
X89347000Y-74569925D01*
X86458000Y-74569925D01*
X86458000Y-72572397D01*
X88427000Y-72572397D01*
X88427000Y-72715603D01*
X88454938Y-72856058D01*
X88509741Y-72988364D01*
X88589302Y-73107436D01*
X88690564Y-73208698D01*
X88809636Y-73288259D01*
X88941942Y-73343062D01*
X89082397Y-73371000D01*
X89225603Y-73371000D01*
X89366058Y-73343062D01*
X89498364Y-73288259D01*
X89617436Y-73208698D01*
X89655134Y-73171000D01*
X95764866Y-73171000D01*
X95802564Y-73208698D01*
X95921636Y-73288259D01*
X96053942Y-73343062D01*
X96194397Y-73371000D01*
X96337603Y-73371000D01*
X96478058Y-73343062D01*
X96610364Y-73288259D01*
X96729436Y-73208698D01*
X96830698Y-73107436D01*
X96910259Y-72988364D01*
X96965062Y-72856058D01*
X96993000Y-72715603D01*
X96993000Y-72662289D01*
X97754290Y-71901000D01*
X98018918Y-71901000D01*
X98018918Y-71999000D01*
X98030035Y-72111876D01*
X98062960Y-72220414D01*
X98116427Y-72320443D01*
X98188381Y-72408119D01*
X98233001Y-72444738D01*
X98233000Y-74272418D01*
X97260000Y-74272418D01*
X97195897Y-74278732D01*
X97134257Y-74297430D01*
X97077450Y-74327794D01*
X97027657Y-74368657D01*
X96986794Y-74418450D01*
X96956430Y-74475257D01*
X96937732Y-74536897D01*
X96931418Y-74601000D01*
X96931418Y-77201000D01*
X96937732Y-77265103D01*
X96956430Y-77326743D01*
X96986794Y-77383550D01*
X97027657Y-77433343D01*
X97077450Y-77474206D01*
X97134257Y-77504570D01*
X97195897Y-77523268D01*
X97260000Y-77529582D01*
X100860000Y-77529582D01*
X100924103Y-77523268D01*
X100985743Y-77504570D01*
X101042550Y-77474206D01*
X101092343Y-77433343D01*
X101133206Y-77383550D01*
X101163570Y-77326743D01*
X101182268Y-77265103D01*
X101188582Y-77201000D01*
X101188582Y-74601000D01*
X101182268Y-74536897D01*
X101163570Y-74475257D01*
X101133206Y-74418450D01*
X101092343Y-74368657D01*
X101042550Y-74327794D01*
X100985743Y-74297430D01*
X100924103Y-74278732D01*
X100860000Y-74272418D01*
X99887000Y-74272418D01*
X99887000Y-72444737D01*
X99931619Y-72408119D01*
X100003573Y-72320443D01*
X100041760Y-72249000D01*
X100684428Y-72249000D01*
X100696688Y-72373482D01*
X100732998Y-72493180D01*
X100791963Y-72603494D01*
X100871315Y-72700185D01*
X100968006Y-72779537D01*
X101078320Y-72838502D01*
X101198018Y-72874812D01*
X101322500Y-72887072D01*
X101749250Y-72884000D01*
X101908000Y-72725250D01*
X101908000Y-71501000D01*
X102162000Y-71501000D01*
X102162000Y-72725250D01*
X102320750Y-72884000D01*
X102747500Y-72887072D01*
X102871982Y-72874812D01*
X102991680Y-72838502D01*
X103101994Y-72779537D01*
X103198685Y-72700185D01*
X103278037Y-72603494D01*
X103337002Y-72493180D01*
X103373312Y-72373482D01*
X103385572Y-72249000D01*
X103382500Y-71659750D01*
X103223750Y-71501000D01*
X102162000Y-71501000D01*
X101908000Y-71501000D01*
X100846250Y-71501000D01*
X100687500Y-71659750D01*
X100684428Y-72249000D01*
X100041760Y-72249000D01*
X100057040Y-72220414D01*
X100089965Y-72111876D01*
X100101082Y-71999000D01*
X100101082Y-70749000D01*
X100089965Y-70636124D01*
X100057040Y-70527586D01*
X100041761Y-70499000D01*
X100684428Y-70499000D01*
X100687500Y-71088250D01*
X100846250Y-71247000D01*
X101908000Y-71247000D01*
X101908000Y-70022750D01*
X102162000Y-70022750D01*
X102162000Y-71247000D01*
X103223750Y-71247000D01*
X103382500Y-71088250D01*
X103385572Y-70499000D01*
X103373312Y-70374518D01*
X103337002Y-70254820D01*
X103278037Y-70144506D01*
X103198685Y-70047815D01*
X103101994Y-69968463D01*
X102991680Y-69909498D01*
X102871982Y-69873188D01*
X102747500Y-69860928D01*
X102320750Y-69864000D01*
X102162000Y-70022750D01*
X101908000Y-70022750D01*
X101749250Y-69864000D01*
X101322500Y-69860928D01*
X101198018Y-69873188D01*
X101078320Y-69909498D01*
X100968006Y-69968463D01*
X100871315Y-70047815D01*
X100791963Y-70144506D01*
X100732998Y-70254820D01*
X100696688Y-70374518D01*
X100684428Y-70499000D01*
X100041761Y-70499000D01*
X100003573Y-70427557D01*
X99931619Y-70339881D01*
X99843943Y-70267927D01*
X99743914Y-70214460D01*
X99635376Y-70181535D01*
X99522500Y-70170418D01*
X98597500Y-70170418D01*
X98484624Y-70181535D01*
X98376086Y-70214460D01*
X98276057Y-70267927D01*
X98188381Y-70339881D01*
X98116427Y-70427557D01*
X98062960Y-70527586D01*
X98030035Y-70636124D01*
X98018918Y-70749000D01*
X98018918Y-70847000D01*
X97561880Y-70847000D01*
X97535999Y-70844451D01*
X97432690Y-70854626D01*
X97333350Y-70884761D01*
X97241798Y-70933696D01*
X97161552Y-70999552D01*
X97145049Y-71019661D01*
X96247711Y-71917000D01*
X96194397Y-71917000D01*
X96053942Y-71944938D01*
X95921636Y-71999741D01*
X95802564Y-72079302D01*
X95764866Y-72117000D01*
X89655134Y-72117000D01*
X89617436Y-72079302D01*
X89498364Y-71999741D01*
X89366058Y-71944938D01*
X89225603Y-71917000D01*
X89082397Y-71917000D01*
X88941942Y-71944938D01*
X88809636Y-71999741D01*
X88690564Y-72079302D01*
X88589302Y-72180564D01*
X88509741Y-72299636D01*
X88454938Y-72431942D01*
X88427000Y-72572397D01*
X86458000Y-72572397D01*
X86458000Y-58264000D01*
X92866001Y-58264000D01*
X92866000Y-66784708D01*
G37*
X92866000Y-66784708D02*
X92864297Y-66802000D01*
X92871093Y-66871004D01*
X92891221Y-66937356D01*
X92923907Y-66998507D01*
X92967894Y-67052106D01*
X93021493Y-67096093D01*
X93082644Y-67128779D01*
X93148996Y-67148907D01*
X93218000Y-67155703D01*
X93235291Y-67154000D01*
X96502709Y-67154000D01*
X96520000Y-67155703D01*
X96589004Y-67148907D01*
X96655356Y-67128779D01*
X96716507Y-67096093D01*
X96770106Y-67052106D01*
X96814093Y-66998507D01*
X96846779Y-66937356D01*
X96866907Y-66871004D01*
X96872000Y-66819292D01*
X96872000Y-66819291D01*
X96873703Y-66802000D01*
X96872000Y-66784708D01*
X96872000Y-65803291D01*
X96873703Y-65786000D01*
X96866907Y-65716996D01*
X96846779Y-65650644D01*
X96814093Y-65589493D01*
X96770106Y-65535894D01*
X96716507Y-65491907D01*
X96655356Y-65459221D01*
X96589004Y-65439093D01*
X96537292Y-65434000D01*
X96537291Y-65434000D01*
X96520000Y-65432297D01*
X96502708Y-65434000D01*
X94332000Y-65434000D01*
X94332000Y-58264000D01*
X100486000Y-58264000D01*
X100486001Y-65434000D01*
X99077291Y-65434000D01*
X99060000Y-65432297D01*
X99042708Y-65434000D01*
X98990996Y-65439093D01*
X98924644Y-65459221D01*
X98863493Y-65491907D01*
X98809894Y-65535894D01*
X98765907Y-65589493D01*
X98733221Y-65650644D01*
X98713093Y-65716996D01*
X98706297Y-65786000D01*
X98708000Y-65803291D01*
X98708001Y-66784699D01*
X98706297Y-66802000D01*
X98713093Y-66871004D01*
X98733221Y-66937356D01*
X98765907Y-66998507D01*
X98809894Y-67052106D01*
X98863493Y-67096093D01*
X98924644Y-67128779D01*
X98990996Y-67148907D01*
X99042708Y-67154000D01*
X99042709Y-67154000D01*
X99060000Y-67155703D01*
X99077292Y-67154000D01*
X101582708Y-67154000D01*
X101600000Y-67155703D01*
X101617291Y-67154000D01*
X101617292Y-67154000D01*
X101669004Y-67148907D01*
X101735356Y-67128779D01*
X101796507Y-67096093D01*
X101850106Y-67052106D01*
X101894093Y-66998507D01*
X101926779Y-66937356D01*
X101946907Y-66871004D01*
X101953703Y-66802000D01*
X101952000Y-66784708D01*
X101952000Y-58264000D01*
X109884001Y-58264000D01*
X109884000Y-114456000D01*
X86458000Y-114456000D01*
X86458000Y-112287743D01*
X94161000Y-112287743D01*
X94161000Y-112502257D01*
X94202850Y-112712650D01*
X94284941Y-112910835D01*
X94404119Y-113089197D01*
X94555803Y-113240881D01*
X94734165Y-113360059D01*
X94932350Y-113442150D01*
X95142743Y-113484000D01*
X95357257Y-113484000D01*
X95567650Y-113442150D01*
X95765835Y-113360059D01*
X95944197Y-113240881D01*
X96095881Y-113089197D01*
X96215059Y-112910835D01*
X96297150Y-112712650D01*
X96339000Y-112502257D01*
X96339000Y-112287743D01*
X96701000Y-112287743D01*
X96701000Y-112502257D01*
X96742850Y-112712650D01*
X96824941Y-112910835D01*
X96944119Y-113089197D01*
X97095803Y-113240881D01*
X97274165Y-113360059D01*
X97472350Y-113442150D01*
X97682743Y-113484000D01*
X97897257Y-113484000D01*
X98107650Y-113442150D01*
X98305835Y-113360059D01*
X98484197Y-113240881D01*
X98635881Y-113089197D01*
X98755059Y-112910835D01*
X98837150Y-112712650D01*
X98879000Y-112502257D01*
X98879000Y-112287743D01*
X99241000Y-112287743D01*
X99241000Y-112502257D01*
X99282850Y-112712650D01*
X99364941Y-112910835D01*
X99484119Y-113089197D01*
X99635803Y-113240881D01*
X99814165Y-113360059D01*
X100012350Y-113442150D01*
X100222743Y-113484000D01*
X100437257Y-113484000D01*
X100647650Y-113442150D01*
X100845835Y-113360059D01*
X101024197Y-113240881D01*
X101175881Y-113089197D01*
X101295059Y-112910835D01*
X101377150Y-112712650D01*
X101419000Y-112502257D01*
X101419000Y-112287743D01*
X101781000Y-112287743D01*
X101781000Y-112502257D01*
X101822850Y-112712650D01*
X101904941Y-112910835D01*
X102024119Y-113089197D01*
X102175803Y-113240881D01*
X102354165Y-113360059D01*
X102552350Y-113442150D01*
X102762743Y-113484000D01*
X102977257Y-113484000D01*
X103187650Y-113442150D01*
X103385835Y-113360059D01*
X103564197Y-113240881D01*
X103715881Y-113089197D01*
X103835059Y-112910835D01*
X103917150Y-112712650D01*
X103959000Y-112502257D01*
X103959000Y-112287743D01*
X103917150Y-112077350D01*
X103835059Y-111879165D01*
X103715881Y-111700803D01*
X103564197Y-111549119D01*
X103385835Y-111429941D01*
X103187650Y-111347850D01*
X102977257Y-111306000D01*
X102762743Y-111306000D01*
X102552350Y-111347850D01*
X102354165Y-111429941D01*
X102175803Y-111549119D01*
X102024119Y-111700803D01*
X101904941Y-111879165D01*
X101822850Y-112077350D01*
X101781000Y-112287743D01*
X101419000Y-112287743D01*
X101377150Y-112077350D01*
X101295059Y-111879165D01*
X101175881Y-111700803D01*
X101024197Y-111549119D01*
X100845835Y-111429941D01*
X100647650Y-111347850D01*
X100437257Y-111306000D01*
X100222743Y-111306000D01*
X100012350Y-111347850D01*
X99814165Y-111429941D01*
X99635803Y-111549119D01*
X99484119Y-111700803D01*
X99364941Y-111879165D01*
X99282850Y-112077350D01*
X99241000Y-112287743D01*
X98879000Y-112287743D01*
X98837150Y-112077350D01*
X98755059Y-111879165D01*
X98635881Y-111700803D01*
X98484197Y-111549119D01*
X98305835Y-111429941D01*
X98107650Y-111347850D01*
X97897257Y-111306000D01*
X97682743Y-111306000D01*
X97472350Y-111347850D01*
X97274165Y-111429941D01*
X97095803Y-111549119D01*
X96944119Y-111700803D01*
X96824941Y-111879165D01*
X96742850Y-112077350D01*
X96701000Y-112287743D01*
X96339000Y-112287743D01*
X96297150Y-112077350D01*
X96215059Y-111879165D01*
X96095881Y-111700803D01*
X95944197Y-111549119D01*
X95765835Y-111429941D01*
X95567650Y-111347850D01*
X95357257Y-111306000D01*
X95142743Y-111306000D01*
X94932350Y-111347850D01*
X94734165Y-111429941D01*
X94555803Y-111549119D01*
X94404119Y-111700803D01*
X94284941Y-111879165D01*
X94202850Y-112077350D01*
X94161000Y-112287743D01*
X86458000Y-112287743D01*
X86458000Y-109747743D01*
X94161000Y-109747743D01*
X94161000Y-109962257D01*
X94202850Y-110172650D01*
X94284941Y-110370835D01*
X94404119Y-110549197D01*
X94555803Y-110700881D01*
X94734165Y-110820059D01*
X94932350Y-110902150D01*
X95142743Y-110944000D01*
X95357257Y-110944000D01*
X95567650Y-110902150D01*
X95765835Y-110820059D01*
X95944197Y-110700881D01*
X96095881Y-110549197D01*
X96215059Y-110370835D01*
X96297150Y-110172650D01*
X96339000Y-109962257D01*
X96339000Y-109747743D01*
X96701000Y-109747743D01*
X96701000Y-109962257D01*
X96742850Y-110172650D01*
X96824941Y-110370835D01*
X96944119Y-110549197D01*
X97095803Y-110700881D01*
X97274165Y-110820059D01*
X97472350Y-110902150D01*
X97682743Y-110944000D01*
X97897257Y-110944000D01*
X98107650Y-110902150D01*
X98305835Y-110820059D01*
X98484197Y-110700881D01*
X98635881Y-110549197D01*
X98755059Y-110370835D01*
X98837150Y-110172650D01*
X98879000Y-109962257D01*
X98879000Y-109747743D01*
X99241000Y-109747743D01*
X99241000Y-109962257D01*
X99282850Y-110172650D01*
X99364941Y-110370835D01*
X99484119Y-110549197D01*
X99635803Y-110700881D01*
X99814165Y-110820059D01*
X100012350Y-110902150D01*
X100222743Y-110944000D01*
X100437257Y-110944000D01*
X100647650Y-110902150D01*
X100845835Y-110820059D01*
X101024197Y-110700881D01*
X101108078Y-110617000D01*
X101469928Y-110617000D01*
X101482188Y-110741482D01*
X101518498Y-110861180D01*
X101577463Y-110971494D01*
X101656815Y-111068185D01*
X101753506Y-111147537D01*
X101863820Y-111206502D01*
X101983518Y-111242812D01*
X102108000Y-111255072D01*
X102584250Y-111252000D01*
X102743000Y-111093250D01*
X102743000Y-109982000D01*
X102997000Y-109982000D01*
X102997000Y-111093250D01*
X103155750Y-111252000D01*
X103632000Y-111255072D01*
X103756482Y-111242812D01*
X103876180Y-111206502D01*
X103986494Y-111147537D01*
X104083185Y-111068185D01*
X104162537Y-110971494D01*
X104221502Y-110861180D01*
X104257812Y-110741482D01*
X104270072Y-110617000D01*
X104267000Y-110140750D01*
X104108250Y-109982000D01*
X102997000Y-109982000D01*
X102743000Y-109982000D01*
X101631750Y-109982000D01*
X101473000Y-110140750D01*
X101469928Y-110617000D01*
X101108078Y-110617000D01*
X101175881Y-110549197D01*
X101295059Y-110370835D01*
X101377150Y-110172650D01*
X101419000Y-109962257D01*
X101419000Y-109747743D01*
X101377150Y-109537350D01*
X101295059Y-109339165D01*
X101175881Y-109160803D01*
X101108078Y-109093000D01*
X101469928Y-109093000D01*
X101473000Y-109569250D01*
X101631750Y-109728000D01*
X102743000Y-109728000D01*
X102743000Y-108616750D01*
X102997000Y-108616750D01*
X102997000Y-109728000D01*
X104108250Y-109728000D01*
X104267000Y-109569250D01*
X104270072Y-109093000D01*
X104257812Y-108968518D01*
X104221502Y-108848820D01*
X104162537Y-108738506D01*
X104083185Y-108641815D01*
X103986494Y-108562463D01*
X103876180Y-108503498D01*
X103756482Y-108467188D01*
X103632000Y-108454928D01*
X103155750Y-108458000D01*
X102997000Y-108616750D01*
X102743000Y-108616750D01*
X102584250Y-108458000D01*
X102108000Y-108454928D01*
X101983518Y-108467188D01*
X101863820Y-108503498D01*
X101753506Y-108562463D01*
X101656815Y-108641815D01*
X101577463Y-108738506D01*
X101518498Y-108848820D01*
X101482188Y-108968518D01*
X101469928Y-109093000D01*
X101108078Y-109093000D01*
X101024197Y-109009119D01*
X100845835Y-108889941D01*
X100647650Y-108807850D01*
X100437257Y-108766000D01*
X100222743Y-108766000D01*
X100012350Y-108807850D01*
X99814165Y-108889941D01*
X99635803Y-109009119D01*
X99484119Y-109160803D01*
X99364941Y-109339165D01*
X99282850Y-109537350D01*
X99241000Y-109747743D01*
X98879000Y-109747743D01*
X98837150Y-109537350D01*
X98755059Y-109339165D01*
X98635881Y-109160803D01*
X98484197Y-109009119D01*
X98305835Y-108889941D01*
X98107650Y-108807850D01*
X97897257Y-108766000D01*
X97682743Y-108766000D01*
X97472350Y-108807850D01*
X97274165Y-108889941D01*
X97095803Y-109009119D01*
X96944119Y-109160803D01*
X96824941Y-109339165D01*
X96742850Y-109537350D01*
X96701000Y-109747743D01*
X96339000Y-109747743D01*
X96297150Y-109537350D01*
X96215059Y-109339165D01*
X96095881Y-109160803D01*
X95944197Y-109009119D01*
X95765835Y-108889941D01*
X95567650Y-108807850D01*
X95357257Y-108766000D01*
X95142743Y-108766000D01*
X94932350Y-108807850D01*
X94734165Y-108889941D01*
X94555803Y-109009119D01*
X94404119Y-109160803D01*
X94284941Y-109339165D01*
X94202850Y-109537350D01*
X94161000Y-109747743D01*
X86458000Y-109747743D01*
X86458000Y-106573925D01*
X90617000Y-106573925D01*
X90617000Y-106786075D01*
X90658389Y-106994149D01*
X90739575Y-107190151D01*
X90857440Y-107366547D01*
X91007453Y-107516560D01*
X91183849Y-107634425D01*
X91379851Y-107715611D01*
X91587925Y-107757000D01*
X91800075Y-107757000D01*
X92008149Y-107715611D01*
X92204151Y-107634425D01*
X92380547Y-107516560D01*
X92530560Y-107366547D01*
X92648425Y-107190151D01*
X92729611Y-106994149D01*
X92771000Y-106786075D01*
X92771000Y-106573925D01*
X94173000Y-106573925D01*
X94173000Y-106786075D01*
X94214389Y-106994149D01*
X94295575Y-107190151D01*
X94413440Y-107366547D01*
X94563453Y-107516560D01*
X94739849Y-107634425D01*
X94935851Y-107715611D01*
X95143925Y-107757000D01*
X95356075Y-107757000D01*
X95564149Y-107715611D01*
X95760151Y-107634425D01*
X95936547Y-107516560D01*
X96086560Y-107366547D01*
X96204425Y-107190151D01*
X96285611Y-106994149D01*
X96327000Y-106786075D01*
X96327000Y-106573925D01*
X96312495Y-106501000D01*
X96621928Y-106501000D01*
X96634188Y-106625482D01*
X96670498Y-106745180D01*
X96729463Y-106855494D01*
X96808815Y-106952185D01*
X96905506Y-107031537D01*
X97015820Y-107090502D01*
X97135518Y-107126812D01*
X97260000Y-107139072D01*
X98774250Y-107136000D01*
X98933000Y-106977250D01*
X98933000Y-105328000D01*
X99187000Y-105328000D01*
X99187000Y-106977250D01*
X99345750Y-107136000D01*
X100860000Y-107139072D01*
X100984482Y-107126812D01*
X101104180Y-107090502D01*
X101214494Y-107031537D01*
X101311185Y-106952185D01*
X101390537Y-106855494D01*
X101449502Y-106745180D01*
X101485812Y-106625482D01*
X101498072Y-106501000D01*
X101495985Y-105811925D01*
X101793000Y-105811925D01*
X101793000Y-106024075D01*
X101834389Y-106232149D01*
X101915575Y-106428151D01*
X102033440Y-106604547D01*
X102183453Y-106754560D01*
X102359849Y-106872425D01*
X102555851Y-106953611D01*
X102763925Y-106995000D01*
X102976075Y-106995000D01*
X103184149Y-106953611D01*
X103380151Y-106872425D01*
X103556547Y-106754560D01*
X103706560Y-106604547D01*
X103824425Y-106428151D01*
X103905611Y-106232149D01*
X103947000Y-106024075D01*
X103947000Y-105811925D01*
X103905611Y-105603851D01*
X103824425Y-105407849D01*
X103706560Y-105231453D01*
X103556547Y-105081440D01*
X103380151Y-104963575D01*
X103184149Y-104882389D01*
X102976075Y-104841000D01*
X102763925Y-104841000D01*
X102555851Y-104882389D01*
X102359849Y-104963575D01*
X102183453Y-105081440D01*
X102033440Y-105231453D01*
X101915575Y-105407849D01*
X101834389Y-105603851D01*
X101793000Y-105811925D01*
X101495985Y-105811925D01*
X101495000Y-105486750D01*
X101336250Y-105328000D01*
X99187000Y-105328000D01*
X98933000Y-105328000D01*
X96783750Y-105328000D01*
X96625000Y-105486750D01*
X96621928Y-106501000D01*
X96312495Y-106501000D01*
X96285611Y-106365851D01*
X96204425Y-106169849D01*
X96086560Y-105993453D01*
X95936547Y-105843440D01*
X95760151Y-105725575D01*
X95564149Y-105644389D01*
X95356075Y-105603000D01*
X95143925Y-105603000D01*
X94935851Y-105644389D01*
X94739849Y-105725575D01*
X94563453Y-105843440D01*
X94413440Y-105993453D01*
X94295575Y-106169849D01*
X94214389Y-106365851D01*
X94173000Y-106573925D01*
X92771000Y-106573925D01*
X92729611Y-106365851D01*
X92648425Y-106169849D01*
X92530560Y-105993453D01*
X92380547Y-105843440D01*
X92204151Y-105725575D01*
X92008149Y-105644389D01*
X91800075Y-105603000D01*
X91587925Y-105603000D01*
X91379851Y-105644389D01*
X91183849Y-105725575D01*
X91007453Y-105843440D01*
X90857440Y-105993453D01*
X90739575Y-106169849D01*
X90658389Y-106365851D01*
X90617000Y-106573925D01*
X86458000Y-106573925D01*
X86458000Y-103901000D01*
X96621928Y-103901000D01*
X96625000Y-104915250D01*
X96783750Y-105074000D01*
X98933000Y-105074000D01*
X98933000Y-103424750D01*
X99187000Y-103424750D01*
X99187000Y-105074000D01*
X101336250Y-105074000D01*
X101495000Y-104915250D01*
X101498072Y-103901000D01*
X101485812Y-103776518D01*
X101449502Y-103656820D01*
X101390537Y-103546506D01*
X101311185Y-103449815D01*
X101214494Y-103370463D01*
X101104180Y-103311498D01*
X100984482Y-103275188D01*
X100860000Y-103262928D01*
X99345750Y-103266000D01*
X99187000Y-103424750D01*
X98933000Y-103424750D01*
X98774250Y-103266000D01*
X97260000Y-103262928D01*
X97135518Y-103275188D01*
X97015820Y-103311498D01*
X96905506Y-103370463D01*
X96808815Y-103449815D01*
X96729463Y-103546506D01*
X96670498Y-103656820D01*
X96634188Y-103776518D01*
X96621928Y-103901000D01*
X86458000Y-103901000D01*
X86458000Y-100223925D01*
X98745000Y-100223925D01*
X98745000Y-100436075D01*
X98786389Y-100644149D01*
X98867575Y-100840151D01*
X98985440Y-101016547D01*
X99135453Y-101166560D01*
X99311849Y-101284425D01*
X99507851Y-101365611D01*
X99715925Y-101407000D01*
X99928075Y-101407000D01*
X100136149Y-101365611D01*
X100332151Y-101284425D01*
X100508547Y-101166560D01*
X100658560Y-101016547D01*
X100776425Y-100840151D01*
X100857611Y-100644149D01*
X100899000Y-100436075D01*
X100899000Y-100223925D01*
X100857611Y-100015851D01*
X100776425Y-99819849D01*
X100658560Y-99643453D01*
X100508547Y-99493440D01*
X100332151Y-99375575D01*
X100136149Y-99294389D01*
X99928075Y-99253000D01*
X99715925Y-99253000D01*
X99507851Y-99294389D01*
X99311849Y-99375575D01*
X99135453Y-99493440D01*
X98985440Y-99643453D01*
X98867575Y-99819849D01*
X98786389Y-100015851D01*
X98745000Y-100223925D01*
X86458000Y-100223925D01*
X86458000Y-94635925D01*
X97729000Y-94635925D01*
X97729000Y-94848075D01*
X97770389Y-95056149D01*
X97851575Y-95252151D01*
X97969440Y-95428547D01*
X98119453Y-95578560D01*
X98295849Y-95696425D01*
X98491851Y-95777611D01*
X98699925Y-95819000D01*
X98912075Y-95819000D01*
X99120149Y-95777611D01*
X99316151Y-95696425D01*
X99492547Y-95578560D01*
X99642560Y-95428547D01*
X99760425Y-95252151D01*
X99841611Y-95056149D01*
X99883000Y-94848075D01*
X99883000Y-94635925D01*
X99841611Y-94427851D01*
X99760425Y-94231849D01*
X99642560Y-94055453D01*
X99492547Y-93905440D01*
X99316151Y-93787575D01*
X99120149Y-93706389D01*
X98912075Y-93665000D01*
X98699925Y-93665000D01*
X98491851Y-93706389D01*
X98295849Y-93787575D01*
X98119453Y-93905440D01*
X97969440Y-94055453D01*
X97851575Y-94231849D01*
X97770389Y-94427851D01*
X97729000Y-94635925D01*
X86458000Y-94635925D01*
X86458000Y-91959076D01*
X88993000Y-91959076D01*
X88993000Y-92190924D01*
X89038231Y-92418318D01*
X89126956Y-92632519D01*
X89255764Y-92825294D01*
X89419706Y-92989236D01*
X89612481Y-93118044D01*
X89826682Y-93206769D01*
X90054076Y-93252000D01*
X90285924Y-93252000D01*
X90513318Y-93206769D01*
X90727519Y-93118044D01*
X90920294Y-92989236D01*
X91084236Y-92825294D01*
X91213044Y-92632519D01*
X91301769Y-92418318D01*
X91347000Y-92190924D01*
X91347000Y-91959076D01*
X91301769Y-91731682D01*
X91213044Y-91517481D01*
X91084236Y-91324706D01*
X90920294Y-91160764D01*
X90727519Y-91031956D01*
X90513318Y-90943231D01*
X90285924Y-90898000D01*
X90054076Y-90898000D01*
X89826682Y-90943231D01*
X89612481Y-91031956D01*
X89419706Y-91160764D01*
X89255764Y-91324706D01*
X89126956Y-91517481D01*
X89038231Y-91731682D01*
X88993000Y-91959076D01*
X86458000Y-91959076D01*
X86458000Y-89419076D01*
X88993000Y-89419076D01*
X88993000Y-89650924D01*
X89038231Y-89878318D01*
X89126956Y-90092519D01*
X89255764Y-90285294D01*
X89419706Y-90449236D01*
X89612481Y-90578044D01*
X89826682Y-90666769D01*
X90054076Y-90712000D01*
X90285924Y-90712000D01*
X90513318Y-90666769D01*
X90727519Y-90578044D01*
X90920294Y-90449236D01*
X91084236Y-90285294D01*
X91209116Y-90098397D01*
X96555000Y-90098397D01*
X96555000Y-90241603D01*
X96582938Y-90382058D01*
X96637741Y-90514364D01*
X96717302Y-90633436D01*
X96818564Y-90734698D01*
X96937636Y-90814259D01*
X97069942Y-90869062D01*
X97210397Y-90897000D01*
X97353603Y-90897000D01*
X97494058Y-90869062D01*
X97626364Y-90814259D01*
X97745436Y-90734698D01*
X97783134Y-90697000D01*
X101098866Y-90697000D01*
X101136564Y-90734698D01*
X101255636Y-90814259D01*
X101387942Y-90869062D01*
X101528397Y-90897000D01*
X101671603Y-90897000D01*
X101812058Y-90869062D01*
X101944364Y-90814259D01*
X102063436Y-90734698D01*
X102164698Y-90633436D01*
X102244259Y-90514364D01*
X102299062Y-90382058D01*
X102327000Y-90241603D01*
X102327000Y-90098397D01*
X102299062Y-89957942D01*
X102244259Y-89825636D01*
X102164698Y-89706564D01*
X102063436Y-89605302D01*
X101944364Y-89525741D01*
X101812058Y-89470938D01*
X101671603Y-89443000D01*
X101528397Y-89443000D01*
X101387942Y-89470938D01*
X101255636Y-89525741D01*
X101136564Y-89605302D01*
X101098866Y-89643000D01*
X97783134Y-89643000D01*
X97745436Y-89605302D01*
X97626364Y-89525741D01*
X97494058Y-89470938D01*
X97353603Y-89443000D01*
X97210397Y-89443000D01*
X97069942Y-89470938D01*
X96937636Y-89525741D01*
X96818564Y-89605302D01*
X96717302Y-89706564D01*
X96637741Y-89825636D01*
X96582938Y-89957942D01*
X96555000Y-90098397D01*
X91209116Y-90098397D01*
X91213044Y-90092519D01*
X91301769Y-89878318D01*
X91347000Y-89650924D01*
X91347000Y-89419076D01*
X91301769Y-89191682D01*
X91213044Y-88977481D01*
X91084236Y-88784706D01*
X90920294Y-88620764D01*
X90727519Y-88491956D01*
X90513318Y-88403231D01*
X90285924Y-88358000D01*
X90054076Y-88358000D01*
X89826682Y-88403231D01*
X89612481Y-88491956D01*
X89419706Y-88620764D01*
X89255764Y-88784706D01*
X89126956Y-88977481D01*
X89038231Y-89191682D01*
X88993000Y-89419076D01*
X86458000Y-89419076D01*
X86458000Y-84811890D01*
X88728524Y-84811890D01*
X88773175Y-84959099D01*
X88898359Y-85221920D01*
X89072412Y-85455269D01*
X89288645Y-85650178D01*
X89538748Y-85799157D01*
X89777179Y-85883736D01*
X89612481Y-85951956D01*
X89419706Y-86080764D01*
X89255764Y-86244706D01*
X89126956Y-86437481D01*
X89038231Y-86651682D01*
X88993000Y-86879076D01*
X88993000Y-87110924D01*
X89038231Y-87338318D01*
X89126956Y-87552519D01*
X89255764Y-87745294D01*
X89419706Y-87909236D01*
X89612481Y-88038044D01*
X89826682Y-88126769D01*
X90054076Y-88172000D01*
X90285924Y-88172000D01*
X90513318Y-88126769D01*
X90727519Y-88038044D01*
X90920294Y-87909236D01*
X91084236Y-87745294D01*
X91213044Y-87552519D01*
X91301769Y-87338318D01*
X91347000Y-87110924D01*
X91347000Y-86879076D01*
X91301769Y-86651682D01*
X91213044Y-86437481D01*
X91084236Y-86244706D01*
X90920294Y-86080764D01*
X90727519Y-85951956D01*
X90562821Y-85883736D01*
X90801252Y-85799157D01*
X91051355Y-85650178D01*
X91267588Y-85455269D01*
X91441641Y-85221920D01*
X91566825Y-84959099D01*
X91611476Y-84811890D01*
X91490155Y-84582000D01*
X90297000Y-84582000D01*
X90297000Y-84602000D01*
X90043000Y-84602000D01*
X90043000Y-84582000D01*
X88849845Y-84582000D01*
X88728524Y-84811890D01*
X86458000Y-84811890D01*
X86458000Y-84098110D01*
X88728524Y-84098110D01*
X88849845Y-84328000D01*
X90043000Y-84328000D01*
X90043000Y-84308000D01*
X90297000Y-84308000D01*
X90297000Y-84328000D01*
X91490155Y-84328000D01*
X91611476Y-84098110D01*
X91566825Y-83950901D01*
X91441641Y-83688080D01*
X91267588Y-83454731D01*
X91051355Y-83259822D01*
X90801252Y-83110843D01*
X90752592Y-83093582D01*
X91020000Y-83093582D01*
X91084103Y-83087268D01*
X91145743Y-83068570D01*
X91202550Y-83038206D01*
X91252343Y-82997343D01*
X91293206Y-82947550D01*
X91323570Y-82890743D01*
X91342268Y-82829103D01*
X91348582Y-82765000D01*
X91348582Y-81065000D01*
X91342268Y-81000897D01*
X91323570Y-80939257D01*
X91293206Y-80882450D01*
X91252343Y-80832657D01*
X91202550Y-80791794D01*
X91145743Y-80761430D01*
X91084103Y-80742732D01*
X91020000Y-80736418D01*
X89320000Y-80736418D01*
X89255897Y-80742732D01*
X89194257Y-80761430D01*
X89137450Y-80791794D01*
X89087657Y-80832657D01*
X89046794Y-80882450D01*
X89016430Y-80939257D01*
X88997732Y-81000897D01*
X88991418Y-81065000D01*
X88991418Y-82765000D01*
X88997732Y-82829103D01*
X89016430Y-82890743D01*
X89046794Y-82947550D01*
X89087657Y-82997343D01*
X89137450Y-83038206D01*
X89194257Y-83068570D01*
X89255897Y-83087268D01*
X89320000Y-83093582D01*
X89587408Y-83093582D01*
X89538748Y-83110843D01*
X89288645Y-83259822D01*
X89072412Y-83454731D01*
X88898359Y-83688080D01*
X88773175Y-83950901D01*
X88728524Y-84098110D01*
X86458000Y-84098110D01*
X86458000Y-74569925D01*
X89347000Y-74569925D01*
X89347000Y-74782075D01*
X89388389Y-74990149D01*
X89469575Y-75186151D01*
X89587440Y-75362547D01*
X89737453Y-75512560D01*
X89913849Y-75630425D01*
X90109851Y-75711611D01*
X90317925Y-75753000D01*
X90530075Y-75753000D01*
X90738149Y-75711611D01*
X90934151Y-75630425D01*
X91110547Y-75512560D01*
X91260560Y-75362547D01*
X91378425Y-75186151D01*
X91459611Y-74990149D01*
X91501000Y-74782075D01*
X91501000Y-74569925D01*
X93411000Y-74569925D01*
X93411000Y-74782075D01*
X93452389Y-74990149D01*
X93533575Y-75186151D01*
X93651440Y-75362547D01*
X93801453Y-75512560D01*
X93977849Y-75630425D01*
X94173851Y-75711611D01*
X94381925Y-75753000D01*
X94594075Y-75753000D01*
X94802149Y-75711611D01*
X94998151Y-75630425D01*
X95174547Y-75512560D01*
X95324560Y-75362547D01*
X95442425Y-75186151D01*
X95523611Y-74990149D01*
X95565000Y-74782075D01*
X95565000Y-74569925D01*
X95523611Y-74361851D01*
X95442425Y-74165849D01*
X95324560Y-73989453D01*
X95174547Y-73839440D01*
X94998151Y-73721575D01*
X94802149Y-73640389D01*
X94594075Y-73599000D01*
X94381925Y-73599000D01*
X94173851Y-73640389D01*
X93977849Y-73721575D01*
X93801453Y-73839440D01*
X93651440Y-73989453D01*
X93533575Y-74165849D01*
X93452389Y-74361851D01*
X93411000Y-74569925D01*
X91501000Y-74569925D01*
X91459611Y-74361851D01*
X91378425Y-74165849D01*
X91260560Y-73989453D01*
X91110547Y-73839440D01*
X90934151Y-73721575D01*
X90738149Y-73640389D01*
X90530075Y-73599000D01*
X90317925Y-73599000D01*
X90109851Y-73640389D01*
X89913849Y-73721575D01*
X89737453Y-73839440D01*
X89587440Y-73989453D01*
X89469575Y-74165849D01*
X89388389Y-74361851D01*
X89347000Y-74569925D01*
X86458000Y-74569925D01*
X86458000Y-72572397D01*
X88427000Y-72572397D01*
X88427000Y-72715603D01*
X88454938Y-72856058D01*
X88509741Y-72988364D01*
X88589302Y-73107436D01*
X88690564Y-73208698D01*
X88809636Y-73288259D01*
X88941942Y-73343062D01*
X89082397Y-73371000D01*
X89225603Y-73371000D01*
X89366058Y-73343062D01*
X89498364Y-73288259D01*
X89617436Y-73208698D01*
X89655134Y-73171000D01*
X95764866Y-73171000D01*
X95802564Y-73208698D01*
X95921636Y-73288259D01*
X96053942Y-73343062D01*
X96194397Y-73371000D01*
X96337603Y-73371000D01*
X96478058Y-73343062D01*
X96610364Y-73288259D01*
X96729436Y-73208698D01*
X96830698Y-73107436D01*
X96910259Y-72988364D01*
X96965062Y-72856058D01*
X96993000Y-72715603D01*
X96993000Y-72662289D01*
X97754290Y-71901000D01*
X98018918Y-71901000D01*
X98018918Y-71999000D01*
X98030035Y-72111876D01*
X98062960Y-72220414D01*
X98116427Y-72320443D01*
X98188381Y-72408119D01*
X98233001Y-72444738D01*
X98233000Y-74272418D01*
X97260000Y-74272418D01*
X97195897Y-74278732D01*
X97134257Y-74297430D01*
X97077450Y-74327794D01*
X97027657Y-74368657D01*
X96986794Y-74418450D01*
X96956430Y-74475257D01*
X96937732Y-74536897D01*
X96931418Y-74601000D01*
X96931418Y-77201000D01*
X96937732Y-77265103D01*
X96956430Y-77326743D01*
X96986794Y-77383550D01*
X97027657Y-77433343D01*
X97077450Y-77474206D01*
X97134257Y-77504570D01*
X97195897Y-77523268D01*
X97260000Y-77529582D01*
X100860000Y-77529582D01*
X100924103Y-77523268D01*
X100985743Y-77504570D01*
X101042550Y-77474206D01*
X101092343Y-77433343D01*
X101133206Y-77383550D01*
X101163570Y-77326743D01*
X101182268Y-77265103D01*
X101188582Y-77201000D01*
X101188582Y-74601000D01*
X101182268Y-74536897D01*
X101163570Y-74475257D01*
X101133206Y-74418450D01*
X101092343Y-74368657D01*
X101042550Y-74327794D01*
X100985743Y-74297430D01*
X100924103Y-74278732D01*
X100860000Y-74272418D01*
X99887000Y-74272418D01*
X99887000Y-72444737D01*
X99931619Y-72408119D01*
X100003573Y-72320443D01*
X100041760Y-72249000D01*
X100684428Y-72249000D01*
X100696688Y-72373482D01*
X100732998Y-72493180D01*
X100791963Y-72603494D01*
X100871315Y-72700185D01*
X100968006Y-72779537D01*
X101078320Y-72838502D01*
X101198018Y-72874812D01*
X101322500Y-72887072D01*
X101749250Y-72884000D01*
X101908000Y-72725250D01*
X101908000Y-71501000D01*
X102162000Y-71501000D01*
X102162000Y-72725250D01*
X102320750Y-72884000D01*
X102747500Y-72887072D01*
X102871982Y-72874812D01*
X102991680Y-72838502D01*
X103101994Y-72779537D01*
X103198685Y-72700185D01*
X103278037Y-72603494D01*
X103337002Y-72493180D01*
X103373312Y-72373482D01*
X103385572Y-72249000D01*
X103382500Y-71659750D01*
X103223750Y-71501000D01*
X102162000Y-71501000D01*
X101908000Y-71501000D01*
X100846250Y-71501000D01*
X100687500Y-71659750D01*
X100684428Y-72249000D01*
X100041760Y-72249000D01*
X100057040Y-72220414D01*
X100089965Y-72111876D01*
X100101082Y-71999000D01*
X100101082Y-70749000D01*
X100089965Y-70636124D01*
X100057040Y-70527586D01*
X100041761Y-70499000D01*
X100684428Y-70499000D01*
X100687500Y-71088250D01*
X100846250Y-71247000D01*
X101908000Y-71247000D01*
X101908000Y-70022750D01*
X102162000Y-70022750D01*
X102162000Y-71247000D01*
X103223750Y-71247000D01*
X103382500Y-71088250D01*
X103385572Y-70499000D01*
X103373312Y-70374518D01*
X103337002Y-70254820D01*
X103278037Y-70144506D01*
X103198685Y-70047815D01*
X103101994Y-69968463D01*
X102991680Y-69909498D01*
X102871982Y-69873188D01*
X102747500Y-69860928D01*
X102320750Y-69864000D01*
X102162000Y-70022750D01*
X101908000Y-70022750D01*
X101749250Y-69864000D01*
X101322500Y-69860928D01*
X101198018Y-69873188D01*
X101078320Y-69909498D01*
X100968006Y-69968463D01*
X100871315Y-70047815D01*
X100791963Y-70144506D01*
X100732998Y-70254820D01*
X100696688Y-70374518D01*
X100684428Y-70499000D01*
X100041761Y-70499000D01*
X100003573Y-70427557D01*
X99931619Y-70339881D01*
X99843943Y-70267927D01*
X99743914Y-70214460D01*
X99635376Y-70181535D01*
X99522500Y-70170418D01*
X98597500Y-70170418D01*
X98484624Y-70181535D01*
X98376086Y-70214460D01*
X98276057Y-70267927D01*
X98188381Y-70339881D01*
X98116427Y-70427557D01*
X98062960Y-70527586D01*
X98030035Y-70636124D01*
X98018918Y-70749000D01*
X98018918Y-70847000D01*
X97561880Y-70847000D01*
X97535999Y-70844451D01*
X97432690Y-70854626D01*
X97333350Y-70884761D01*
X97241798Y-70933696D01*
X97161552Y-70999552D01*
X97145049Y-71019661D01*
X96247711Y-71917000D01*
X96194397Y-71917000D01*
X96053942Y-71944938D01*
X95921636Y-71999741D01*
X95802564Y-72079302D01*
X95764866Y-72117000D01*
X89655134Y-72117000D01*
X89617436Y-72079302D01*
X89498364Y-71999741D01*
X89366058Y-71944938D01*
X89225603Y-71917000D01*
X89082397Y-71917000D01*
X88941942Y-71944938D01*
X88809636Y-71999741D01*
X88690564Y-72079302D01*
X88589302Y-72180564D01*
X88509741Y-72299636D01*
X88454938Y-72431942D01*
X88427000Y-72572397D01*
X86458000Y-72572397D01*
X86458000Y-58264000D01*
X92866001Y-58264000D01*
X92866000Y-66784708D01*
%TD*%
M02*
