%TF.GenerationSoftware,KiCad,Pcbnew,5.1.6*%
%TF.CreationDate,2020-08-27T20:26:27+01:00*%
%TF.ProjectId,wireless-temperaure-sensor,77697265-6c65-4737-932d-74656d706572,0.2*%
%TF.SameCoordinates,Original*%
%TF.FileFunction,Soldermask,Top*%
%TF.FilePolarity,Negative*%
%FSLAX46Y46*%
G04 Gerber Fmt 4.6, Leading zero omitted, Abs format (unit mm)*
G04 Created by KiCad (PCBNEW 5.1.6) date 2020-08-27 20:26:27*
%MOMM*%
%LPD*%
G01*
G04 APERTURE LIST*
%ADD10C,1.600000*%
%ADD11C,1.624000*%
%ADD12R,1.624000X1.624000*%
%ADD13R,1.450000X0.500000*%
%ADD14O,1.800000X1.800000*%
%ADD15R,1.800000X1.800000*%
G04 APERTURE END LIST*
%TO.C,SW1*%
G36*
G01*
X103182000Y-93535000D02*
X103182000Y-91885000D01*
G75*
G02*
X103407000Y-91660000I225000J0D01*
G01*
X103857000Y-91660000D01*
G75*
G02*
X104082000Y-91885000I0J-225000D01*
G01*
X104082000Y-93535000D01*
G75*
G02*
X103857000Y-93760000I-225000J0D01*
G01*
X103407000Y-93760000D01*
G75*
G02*
X103182000Y-93535000I0J225000D01*
G01*
G37*
G36*
G01*
X107382000Y-93535000D02*
X107382000Y-91885000D01*
G75*
G02*
X107607000Y-91660000I225000J0D01*
G01*
X108057000Y-91660000D01*
G75*
G02*
X108282000Y-91885000I0J-225000D01*
G01*
X108282000Y-93535000D01*
G75*
G02*
X108057000Y-93760000I-225000J0D01*
G01*
X107607000Y-93760000D01*
G75*
G02*
X107382000Y-93535000I0J225000D01*
G01*
G37*
%TD*%
D10*
%TO.C,TP7*%
X94488000Y-74676000D03*
%TD*%
%TO.C,TP6*%
X90424000Y-74676000D03*
%TD*%
%TO.C,CE*%
X102870000Y-105918000D03*
%TD*%
%TO.C,CSN*%
X99822000Y-100330000D03*
%TD*%
%TO.C,SCK*%
X98806000Y-94742000D03*
%TD*%
%TO.C,MISO*%
X95250000Y-106680000D03*
%TD*%
%TO.C,MOSI*%
X91694000Y-106680000D03*
%TD*%
D11*
%TO.C,U2*%
X95250000Y-112395000D03*
X95250000Y-109855000D03*
X97790000Y-112395000D03*
X97790000Y-109855000D03*
X100330000Y-112395000D03*
X100330000Y-109855000D03*
X102870000Y-112395000D03*
D12*
X102870000Y-109855000D03*
%TD*%
D13*
%TO.C,U1*%
X101935000Y-83050000D03*
X96185000Y-83050000D03*
X101935000Y-83700000D03*
X96185000Y-83700000D03*
X101935000Y-84350000D03*
X96185000Y-84350000D03*
X101935000Y-85000000D03*
X96185000Y-85000000D03*
X101935000Y-85650000D03*
X96185000Y-85650000D03*
X101935000Y-86300000D03*
X96185000Y-86300000D03*
X101935000Y-86950000D03*
X96185000Y-86950000D03*
X101935000Y-87600000D03*
X96185000Y-87600000D03*
X101935000Y-88250000D03*
X96185000Y-88250000D03*
X101935000Y-88900000D03*
X96185000Y-88900000D03*
%TD*%
%TO.C,R8*%
G36*
G01*
X100002500Y-104162456D02*
X100002500Y-102847544D01*
G75*
G02*
X100270044Y-102580000I267544J0D01*
G01*
X101259956Y-102580000D01*
G75*
G02*
X101527500Y-102847544I0J-267544D01*
G01*
X101527500Y-104162456D01*
G75*
G02*
X101259956Y-104430000I-267544J0D01*
G01*
X100270044Y-104430000D01*
G75*
G02*
X100002500Y-104162456I0J267544D01*
G01*
G37*
G36*
G01*
X97027500Y-104162456D02*
X97027500Y-102847544D01*
G75*
G02*
X97295044Y-102580000I267544J0D01*
G01*
X98284956Y-102580000D01*
G75*
G02*
X98552500Y-102847544I0J-267544D01*
G01*
X98552500Y-104162456D01*
G75*
G02*
X98284956Y-104430000I-267544J0D01*
G01*
X97295044Y-104430000D01*
G75*
G02*
X97027500Y-104162456I0J267544D01*
G01*
G37*
%TD*%
%TO.C,R7*%
G36*
G01*
X94414500Y-97812456D02*
X94414500Y-96497544D01*
G75*
G02*
X94682044Y-96230000I267544J0D01*
G01*
X95671956Y-96230000D01*
G75*
G02*
X95939500Y-96497544I0J-267544D01*
G01*
X95939500Y-97812456D01*
G75*
G02*
X95671956Y-98080000I-267544J0D01*
G01*
X94682044Y-98080000D01*
G75*
G02*
X94414500Y-97812456I0J267544D01*
G01*
G37*
G36*
G01*
X91439500Y-97812456D02*
X91439500Y-96497544D01*
G75*
G02*
X91707044Y-96230000I267544J0D01*
G01*
X92696956Y-96230000D01*
G75*
G02*
X92964500Y-96497544I0J-267544D01*
G01*
X92964500Y-97812456D01*
G75*
G02*
X92696956Y-98080000I-267544J0D01*
G01*
X91707044Y-98080000D01*
G75*
G02*
X91439500Y-97812456I0J267544D01*
G01*
G37*
%TD*%
%TO.C,R6*%
G36*
G01*
X94487500Y-104162456D02*
X94487500Y-102847544D01*
G75*
G02*
X94755044Y-102580000I267544J0D01*
G01*
X95744956Y-102580000D01*
G75*
G02*
X96012500Y-102847544I0J-267544D01*
G01*
X96012500Y-104162456D01*
G75*
G02*
X95744956Y-104430000I-267544J0D01*
G01*
X94755044Y-104430000D01*
G75*
G02*
X94487500Y-104162456I0J267544D01*
G01*
G37*
G36*
G01*
X91512500Y-104162456D02*
X91512500Y-102847544D01*
G75*
G02*
X91780044Y-102580000I267544J0D01*
G01*
X92769956Y-102580000D01*
G75*
G02*
X93037500Y-102847544I0J-267544D01*
G01*
X93037500Y-104162456D01*
G75*
G02*
X92769956Y-104430000I-267544J0D01*
G01*
X91780044Y-104430000D01*
G75*
G02*
X91512500Y-104162456I0J267544D01*
G01*
G37*
%TD*%
%TO.C,R5*%
G36*
G01*
X101092500Y-96497544D02*
X101092500Y-97812456D01*
G75*
G02*
X100824956Y-98080000I-267544J0D01*
G01*
X99835044Y-98080000D01*
G75*
G02*
X99567500Y-97812456I0J267544D01*
G01*
X99567500Y-96497544D01*
G75*
G02*
X99835044Y-96230000I267544J0D01*
G01*
X100824956Y-96230000D01*
G75*
G02*
X101092500Y-96497544I0J-267544D01*
G01*
G37*
G36*
G01*
X104067500Y-96497544D02*
X104067500Y-97812456D01*
G75*
G02*
X103799956Y-98080000I-267544J0D01*
G01*
X102810044Y-98080000D01*
G75*
G02*
X102542500Y-97812456I0J267544D01*
G01*
X102542500Y-96497544D01*
G75*
G02*
X102810044Y-96230000I267544J0D01*
G01*
X103799956Y-96230000D01*
G75*
G02*
X104067500Y-96497544I0J-267544D01*
G01*
G37*
%TD*%
%TO.C,R4*%
G36*
G01*
X103632500Y-102847544D02*
X103632500Y-104162456D01*
G75*
G02*
X103364956Y-104430000I-267544J0D01*
G01*
X102375044Y-104430000D01*
G75*
G02*
X102107500Y-104162456I0J267544D01*
G01*
X102107500Y-102847544D01*
G75*
G02*
X102375044Y-102580000I267544J0D01*
G01*
X103364956Y-102580000D01*
G75*
G02*
X103632500Y-102847544I0J-267544D01*
G01*
G37*
G36*
G01*
X106607500Y-102847544D02*
X106607500Y-104162456D01*
G75*
G02*
X106339956Y-104430000I-267544J0D01*
G01*
X105350044Y-104430000D01*
G75*
G02*
X105082500Y-104162456I0J267544D01*
G01*
X105082500Y-102847544D01*
G75*
G02*
X105350044Y-102580000I267544J0D01*
G01*
X106339956Y-102580000D01*
G75*
G02*
X106607500Y-102847544I0J-267544D01*
G01*
G37*
%TD*%
%TO.C,R3*%
G36*
G01*
X89915500Y-77873456D02*
X89915500Y-76558544D01*
G75*
G02*
X90183044Y-76291000I267544J0D01*
G01*
X91172956Y-76291000D01*
G75*
G02*
X91440500Y-76558544I0J-267544D01*
G01*
X91440500Y-77873456D01*
G75*
G02*
X91172956Y-78141000I-267544J0D01*
G01*
X90183044Y-78141000D01*
G75*
G02*
X89915500Y-77873456I0J267544D01*
G01*
G37*
G36*
G01*
X86940500Y-77873456D02*
X86940500Y-76558544D01*
G75*
G02*
X87208044Y-76291000I267544J0D01*
G01*
X88197956Y-76291000D01*
G75*
G02*
X88465500Y-76558544I0J-267544D01*
G01*
X88465500Y-77873456D01*
G75*
G02*
X88197956Y-78141000I-267544J0D01*
G01*
X87208044Y-78141000D01*
G75*
G02*
X86940500Y-77873456I0J267544D01*
G01*
G37*
%TD*%
%TO.C,R2*%
G36*
G01*
X94996500Y-76558544D02*
X94996500Y-77873456D01*
G75*
G02*
X94728956Y-78141000I-267544J0D01*
G01*
X93739044Y-78141000D01*
G75*
G02*
X93471500Y-77873456I0J267544D01*
G01*
X93471500Y-76558544D01*
G75*
G02*
X93739044Y-76291000I267544J0D01*
G01*
X94728956Y-76291000D01*
G75*
G02*
X94996500Y-76558544I0J-267544D01*
G01*
G37*
G36*
G01*
X97971500Y-76558544D02*
X97971500Y-77873456D01*
G75*
G02*
X97703956Y-78141000I-267544J0D01*
G01*
X96714044Y-78141000D01*
G75*
G02*
X96446500Y-77873456I0J267544D01*
G01*
X96446500Y-76558544D01*
G75*
G02*
X96714044Y-76291000I267544J0D01*
G01*
X97703956Y-76291000D01*
G75*
G02*
X97971500Y-76558544I0J-267544D01*
G01*
G37*
%TD*%
%TO.C,R1*%
G36*
G01*
X90192456Y-98335000D02*
X88877544Y-98335000D01*
G75*
G02*
X88610000Y-98067456I0J267544D01*
G01*
X88610000Y-97077544D01*
G75*
G02*
X88877544Y-96810000I267544J0D01*
G01*
X90192456Y-96810000D01*
G75*
G02*
X90460000Y-97077544I0J-267544D01*
G01*
X90460000Y-98067456D01*
G75*
G02*
X90192456Y-98335000I-267544J0D01*
G01*
G37*
G36*
G01*
X90192456Y-101310000D02*
X88877544Y-101310000D01*
G75*
G02*
X88610000Y-101042456I0J267544D01*
G01*
X88610000Y-100052544D01*
G75*
G02*
X88877544Y-99785000I267544J0D01*
G01*
X90192456Y-99785000D01*
G75*
G02*
X90460000Y-100052544I0J-267544D01*
G01*
X90460000Y-101042456D01*
G75*
G02*
X90192456Y-101310000I-267544J0D01*
G01*
G37*
%TD*%
%TO.C,C5*%
G36*
G01*
X96161456Y-62049500D02*
X94846544Y-62049500D01*
G75*
G02*
X94579000Y-61781956I0J267544D01*
G01*
X94579000Y-60792044D01*
G75*
G02*
X94846544Y-60524500I267544J0D01*
G01*
X96161456Y-60524500D01*
G75*
G02*
X96429000Y-60792044I0J-267544D01*
G01*
X96429000Y-61781956D01*
G75*
G02*
X96161456Y-62049500I-267544J0D01*
G01*
G37*
G36*
G01*
X96161456Y-65024500D02*
X94846544Y-65024500D01*
G75*
G02*
X94579000Y-64756956I0J267544D01*
G01*
X94579000Y-63767044D01*
G75*
G02*
X94846544Y-63499500I267544J0D01*
G01*
X96161456Y-63499500D01*
G75*
G02*
X96429000Y-63767044I0J-267544D01*
G01*
X96429000Y-64756956D01*
G75*
G02*
X96161456Y-65024500I-267544J0D01*
G01*
G37*
%TD*%
%TO.C,C4*%
G36*
G01*
X107337456Y-110400000D02*
X106022544Y-110400000D01*
G75*
G02*
X105755000Y-110132456I0J267544D01*
G01*
X105755000Y-109142544D01*
G75*
G02*
X106022544Y-108875000I267544J0D01*
G01*
X107337456Y-108875000D01*
G75*
G02*
X107605000Y-109142544I0J-267544D01*
G01*
X107605000Y-110132456D01*
G75*
G02*
X107337456Y-110400000I-267544J0D01*
G01*
G37*
G36*
G01*
X107337456Y-113375000D02*
X106022544Y-113375000D01*
G75*
G02*
X105755000Y-113107456I0J267544D01*
G01*
X105755000Y-112117544D01*
G75*
G02*
X106022544Y-111850000I267544J0D01*
G01*
X107337456Y-111850000D01*
G75*
G02*
X107605000Y-112117544I0J-267544D01*
G01*
X107605000Y-113107456D01*
G75*
G02*
X107337456Y-113375000I-267544J0D01*
G01*
G37*
%TD*%
%TO.C,C3*%
G36*
G01*
X94637456Y-81607500D02*
X93322544Y-81607500D01*
G75*
G02*
X93055000Y-81339956I0J267544D01*
G01*
X93055000Y-80350044D01*
G75*
G02*
X93322544Y-80082500I267544J0D01*
G01*
X94637456Y-80082500D01*
G75*
G02*
X94905000Y-80350044I0J-267544D01*
G01*
X94905000Y-81339956D01*
G75*
G02*
X94637456Y-81607500I-267544J0D01*
G01*
G37*
G36*
G01*
X94637456Y-84582500D02*
X93322544Y-84582500D01*
G75*
G02*
X93055000Y-84314956I0J267544D01*
G01*
X93055000Y-83325044D01*
G75*
G02*
X93322544Y-83057500I267544J0D01*
G01*
X94637456Y-83057500D01*
G75*
G02*
X94905000Y-83325044I0J-267544D01*
G01*
X94905000Y-84314956D01*
G75*
G02*
X94637456Y-84582500I-267544J0D01*
G01*
G37*
%TD*%
%TO.C,C2*%
G36*
G01*
X106022544Y-88572500D02*
X107337456Y-88572500D01*
G75*
G02*
X107605000Y-88840044I0J-267544D01*
G01*
X107605000Y-89829956D01*
G75*
G02*
X107337456Y-90097500I-267544J0D01*
G01*
X106022544Y-90097500D01*
G75*
G02*
X105755000Y-89829956I0J267544D01*
G01*
X105755000Y-88840044D01*
G75*
G02*
X106022544Y-88572500I267544J0D01*
G01*
G37*
G36*
G01*
X106022544Y-85597500D02*
X107337456Y-85597500D01*
G75*
G02*
X107605000Y-85865044I0J-267544D01*
G01*
X107605000Y-86854956D01*
G75*
G02*
X107337456Y-87122500I-267544J0D01*
G01*
X106022544Y-87122500D01*
G75*
G02*
X105755000Y-86854956I0J267544D01*
G01*
X105755000Y-85865044D01*
G75*
G02*
X106022544Y-85597500I267544J0D01*
G01*
G37*
%TD*%
D14*
%TO.C,J1*%
X90170000Y-92075000D03*
X90170000Y-89535000D03*
X90170000Y-86995000D03*
X90170000Y-84455000D03*
D15*
X90170000Y-81915000D03*
%TD*%
%TO.C,U3*%
G36*
G01*
X97915000Y-60980000D02*
X97665000Y-60980000D01*
G75*
G02*
X97540000Y-60855000I0J125000D01*
G01*
X97540000Y-59380000D01*
G75*
G02*
X97665000Y-59255000I125000J0D01*
G01*
X97915000Y-59255000D01*
G75*
G02*
X98040000Y-59380000I0J-125000D01*
G01*
X98040000Y-60855000D01*
G75*
G02*
X97915000Y-60980000I-125000J0D01*
G01*
G37*
G36*
G01*
X98565000Y-60980000D02*
X98315000Y-60980000D01*
G75*
G02*
X98190000Y-60855000I0J125000D01*
G01*
X98190000Y-59380000D01*
G75*
G02*
X98315000Y-59255000I125000J0D01*
G01*
X98565000Y-59255000D01*
G75*
G02*
X98690000Y-59380000I0J-125000D01*
G01*
X98690000Y-60855000D01*
G75*
G02*
X98565000Y-60980000I-125000J0D01*
G01*
G37*
G36*
G01*
X99215000Y-60980000D02*
X98965000Y-60980000D01*
G75*
G02*
X98840000Y-60855000I0J125000D01*
G01*
X98840000Y-59380000D01*
G75*
G02*
X98965000Y-59255000I125000J0D01*
G01*
X99215000Y-59255000D01*
G75*
G02*
X99340000Y-59380000I0J-125000D01*
G01*
X99340000Y-60855000D01*
G75*
G02*
X99215000Y-60980000I-125000J0D01*
G01*
G37*
G36*
G01*
X99865000Y-60980000D02*
X99615000Y-60980000D01*
G75*
G02*
X99490000Y-60855000I0J125000D01*
G01*
X99490000Y-59380000D01*
G75*
G02*
X99615000Y-59255000I125000J0D01*
G01*
X99865000Y-59255000D01*
G75*
G02*
X99990000Y-59380000I0J-125000D01*
G01*
X99990000Y-60855000D01*
G75*
G02*
X99865000Y-60980000I-125000J0D01*
G01*
G37*
G36*
G01*
X99865000Y-65205000D02*
X99615000Y-65205000D01*
G75*
G02*
X99490000Y-65080000I0J125000D01*
G01*
X99490000Y-63605000D01*
G75*
G02*
X99615000Y-63480000I125000J0D01*
G01*
X99865000Y-63480000D01*
G75*
G02*
X99990000Y-63605000I0J-125000D01*
G01*
X99990000Y-65080000D01*
G75*
G02*
X99865000Y-65205000I-125000J0D01*
G01*
G37*
G36*
G01*
X99215000Y-65205000D02*
X98965000Y-65205000D01*
G75*
G02*
X98840000Y-65080000I0J125000D01*
G01*
X98840000Y-63605000D01*
G75*
G02*
X98965000Y-63480000I125000J0D01*
G01*
X99215000Y-63480000D01*
G75*
G02*
X99340000Y-63605000I0J-125000D01*
G01*
X99340000Y-65080000D01*
G75*
G02*
X99215000Y-65205000I-125000J0D01*
G01*
G37*
G36*
G01*
X98565000Y-65205000D02*
X98315000Y-65205000D01*
G75*
G02*
X98190000Y-65080000I0J125000D01*
G01*
X98190000Y-63605000D01*
G75*
G02*
X98315000Y-63480000I125000J0D01*
G01*
X98565000Y-63480000D01*
G75*
G02*
X98690000Y-63605000I0J-125000D01*
G01*
X98690000Y-65080000D01*
G75*
G02*
X98565000Y-65205000I-125000J0D01*
G01*
G37*
G36*
G01*
X97915000Y-65205000D02*
X97665000Y-65205000D01*
G75*
G02*
X97540000Y-65080000I0J125000D01*
G01*
X97540000Y-63605000D01*
G75*
G02*
X97665000Y-63480000I125000J0D01*
G01*
X97915000Y-63480000D01*
G75*
G02*
X98040000Y-63605000I0J-125000D01*
G01*
X98040000Y-65080000D01*
G75*
G02*
X97915000Y-65205000I-125000J0D01*
G01*
G37*
%TD*%
M02*
