%TF.GenerationSoftware,KiCad,Pcbnew,5.1.6*%
%TF.CreationDate,2020-08-14T17:13:24+01:00*%
%TF.ProjectId,wireless-temperaure-sensor,77697265-6c65-4737-932d-74656d706572,0.2*%
%TF.SameCoordinates,Original*%
%TF.FileFunction,Paste,Top*%
%TF.FilePolarity,Positive*%
%FSLAX46Y46*%
G04 Gerber Fmt 4.6, Leading zero omitted, Abs format (unit mm)*
G04 Created by KiCad (PCBNEW 5.1.6) date 2020-08-14 17:13:24*
%MOMM*%
%LPD*%
G01*
G04 APERTURE LIST*
%ADD10R,1.350000X0.400000*%
G04 APERTURE END LIST*
%TO.C,SW1*%
G36*
G01*
X103232000Y-93510000D02*
X103232000Y-91910000D01*
G75*
G02*
X103432000Y-91710000I200000J0D01*
G01*
X103832000Y-91710000D01*
G75*
G02*
X104032000Y-91910000I0J-200000D01*
G01*
X104032000Y-93510000D01*
G75*
G02*
X103832000Y-93710000I-200000J0D01*
G01*
X103432000Y-93710000D01*
G75*
G02*
X103232000Y-93510000I0J200000D01*
G01*
G37*
G36*
G01*
X107432000Y-93510000D02*
X107432000Y-91910000D01*
G75*
G02*
X107632000Y-91710000I200000J0D01*
G01*
X108032000Y-91710000D01*
G75*
G02*
X108232000Y-91910000I0J-200000D01*
G01*
X108232000Y-93510000D01*
G75*
G02*
X108032000Y-93710000I-200000J0D01*
G01*
X107632000Y-93710000D01*
G75*
G02*
X107432000Y-93510000I0J200000D01*
G01*
G37*
%TD*%
D10*
%TO.C,U1*%
X101935000Y-83050000D03*
X96185000Y-83050000D03*
X101935000Y-83700000D03*
X96185000Y-83700000D03*
X101935000Y-84350000D03*
X96185000Y-84350000D03*
X101935000Y-85000000D03*
X96185000Y-85000000D03*
X101935000Y-85650000D03*
X96185000Y-85650000D03*
X101935000Y-86300000D03*
X96185000Y-86300000D03*
X101935000Y-86950000D03*
X96185000Y-86950000D03*
X101935000Y-87600000D03*
X96185000Y-87600000D03*
X101935000Y-88250000D03*
X96185000Y-88250000D03*
X101935000Y-88900000D03*
X96185000Y-88900000D03*
%TD*%
%TO.C,R8*%
G36*
G01*
X100052500Y-104130000D02*
X100052500Y-102880000D01*
G75*
G02*
X100302500Y-102630000I250000J0D01*
G01*
X101227500Y-102630000D01*
G75*
G02*
X101477500Y-102880000I0J-250000D01*
G01*
X101477500Y-104130000D01*
G75*
G02*
X101227500Y-104380000I-250000J0D01*
G01*
X100302500Y-104380000D01*
G75*
G02*
X100052500Y-104130000I0J250000D01*
G01*
G37*
G36*
G01*
X97077500Y-104130000D02*
X97077500Y-102880000D01*
G75*
G02*
X97327500Y-102630000I250000J0D01*
G01*
X98252500Y-102630000D01*
G75*
G02*
X98502500Y-102880000I0J-250000D01*
G01*
X98502500Y-104130000D01*
G75*
G02*
X98252500Y-104380000I-250000J0D01*
G01*
X97327500Y-104380000D01*
G75*
G02*
X97077500Y-104130000I0J250000D01*
G01*
G37*
%TD*%
%TO.C,R7*%
G36*
G01*
X94464500Y-97780000D02*
X94464500Y-96530000D01*
G75*
G02*
X94714500Y-96280000I250000J0D01*
G01*
X95639500Y-96280000D01*
G75*
G02*
X95889500Y-96530000I0J-250000D01*
G01*
X95889500Y-97780000D01*
G75*
G02*
X95639500Y-98030000I-250000J0D01*
G01*
X94714500Y-98030000D01*
G75*
G02*
X94464500Y-97780000I0J250000D01*
G01*
G37*
G36*
G01*
X91489500Y-97780000D02*
X91489500Y-96530000D01*
G75*
G02*
X91739500Y-96280000I250000J0D01*
G01*
X92664500Y-96280000D01*
G75*
G02*
X92914500Y-96530000I0J-250000D01*
G01*
X92914500Y-97780000D01*
G75*
G02*
X92664500Y-98030000I-250000J0D01*
G01*
X91739500Y-98030000D01*
G75*
G02*
X91489500Y-97780000I0J250000D01*
G01*
G37*
%TD*%
%TO.C,R6*%
G36*
G01*
X94537500Y-104130000D02*
X94537500Y-102880000D01*
G75*
G02*
X94787500Y-102630000I250000J0D01*
G01*
X95712500Y-102630000D01*
G75*
G02*
X95962500Y-102880000I0J-250000D01*
G01*
X95962500Y-104130000D01*
G75*
G02*
X95712500Y-104380000I-250000J0D01*
G01*
X94787500Y-104380000D01*
G75*
G02*
X94537500Y-104130000I0J250000D01*
G01*
G37*
G36*
G01*
X91562500Y-104130000D02*
X91562500Y-102880000D01*
G75*
G02*
X91812500Y-102630000I250000J0D01*
G01*
X92737500Y-102630000D01*
G75*
G02*
X92987500Y-102880000I0J-250000D01*
G01*
X92987500Y-104130000D01*
G75*
G02*
X92737500Y-104380000I-250000J0D01*
G01*
X91812500Y-104380000D01*
G75*
G02*
X91562500Y-104130000I0J250000D01*
G01*
G37*
%TD*%
%TO.C,R5*%
G36*
G01*
X101042500Y-96530000D02*
X101042500Y-97780000D01*
G75*
G02*
X100792500Y-98030000I-250000J0D01*
G01*
X99867500Y-98030000D01*
G75*
G02*
X99617500Y-97780000I0J250000D01*
G01*
X99617500Y-96530000D01*
G75*
G02*
X99867500Y-96280000I250000J0D01*
G01*
X100792500Y-96280000D01*
G75*
G02*
X101042500Y-96530000I0J-250000D01*
G01*
G37*
G36*
G01*
X104017500Y-96530000D02*
X104017500Y-97780000D01*
G75*
G02*
X103767500Y-98030000I-250000J0D01*
G01*
X102842500Y-98030000D01*
G75*
G02*
X102592500Y-97780000I0J250000D01*
G01*
X102592500Y-96530000D01*
G75*
G02*
X102842500Y-96280000I250000J0D01*
G01*
X103767500Y-96280000D01*
G75*
G02*
X104017500Y-96530000I0J-250000D01*
G01*
G37*
%TD*%
%TO.C,R4*%
G36*
G01*
X103582500Y-102880000D02*
X103582500Y-104130000D01*
G75*
G02*
X103332500Y-104380000I-250000J0D01*
G01*
X102407500Y-104380000D01*
G75*
G02*
X102157500Y-104130000I0J250000D01*
G01*
X102157500Y-102880000D01*
G75*
G02*
X102407500Y-102630000I250000J0D01*
G01*
X103332500Y-102630000D01*
G75*
G02*
X103582500Y-102880000I0J-250000D01*
G01*
G37*
G36*
G01*
X106557500Y-102880000D02*
X106557500Y-104130000D01*
G75*
G02*
X106307500Y-104380000I-250000J0D01*
G01*
X105382500Y-104380000D01*
G75*
G02*
X105132500Y-104130000I0J250000D01*
G01*
X105132500Y-102880000D01*
G75*
G02*
X105382500Y-102630000I250000J0D01*
G01*
X106307500Y-102630000D01*
G75*
G02*
X106557500Y-102880000I0J-250000D01*
G01*
G37*
%TD*%
%TO.C,R3*%
G36*
G01*
X89965500Y-77841000D02*
X89965500Y-76591000D01*
G75*
G02*
X90215500Y-76341000I250000J0D01*
G01*
X91140500Y-76341000D01*
G75*
G02*
X91390500Y-76591000I0J-250000D01*
G01*
X91390500Y-77841000D01*
G75*
G02*
X91140500Y-78091000I-250000J0D01*
G01*
X90215500Y-78091000D01*
G75*
G02*
X89965500Y-77841000I0J250000D01*
G01*
G37*
G36*
G01*
X86990500Y-77841000D02*
X86990500Y-76591000D01*
G75*
G02*
X87240500Y-76341000I250000J0D01*
G01*
X88165500Y-76341000D01*
G75*
G02*
X88415500Y-76591000I0J-250000D01*
G01*
X88415500Y-77841000D01*
G75*
G02*
X88165500Y-78091000I-250000J0D01*
G01*
X87240500Y-78091000D01*
G75*
G02*
X86990500Y-77841000I0J250000D01*
G01*
G37*
%TD*%
%TO.C,R2*%
G36*
G01*
X94946500Y-76591000D02*
X94946500Y-77841000D01*
G75*
G02*
X94696500Y-78091000I-250000J0D01*
G01*
X93771500Y-78091000D01*
G75*
G02*
X93521500Y-77841000I0J250000D01*
G01*
X93521500Y-76591000D01*
G75*
G02*
X93771500Y-76341000I250000J0D01*
G01*
X94696500Y-76341000D01*
G75*
G02*
X94946500Y-76591000I0J-250000D01*
G01*
G37*
G36*
G01*
X97921500Y-76591000D02*
X97921500Y-77841000D01*
G75*
G02*
X97671500Y-78091000I-250000J0D01*
G01*
X96746500Y-78091000D01*
G75*
G02*
X96496500Y-77841000I0J250000D01*
G01*
X96496500Y-76591000D01*
G75*
G02*
X96746500Y-76341000I250000J0D01*
G01*
X97671500Y-76341000D01*
G75*
G02*
X97921500Y-76591000I0J-250000D01*
G01*
G37*
%TD*%
%TO.C,R1*%
G36*
G01*
X90160000Y-98285000D02*
X88910000Y-98285000D01*
G75*
G02*
X88660000Y-98035000I0J250000D01*
G01*
X88660000Y-97110000D01*
G75*
G02*
X88910000Y-96860000I250000J0D01*
G01*
X90160000Y-96860000D01*
G75*
G02*
X90410000Y-97110000I0J-250000D01*
G01*
X90410000Y-98035000D01*
G75*
G02*
X90160000Y-98285000I-250000J0D01*
G01*
G37*
G36*
G01*
X90160000Y-101260000D02*
X88910000Y-101260000D01*
G75*
G02*
X88660000Y-101010000I0J250000D01*
G01*
X88660000Y-100085000D01*
G75*
G02*
X88910000Y-99835000I250000J0D01*
G01*
X90160000Y-99835000D01*
G75*
G02*
X90410000Y-100085000I0J-250000D01*
G01*
X90410000Y-101010000D01*
G75*
G02*
X90160000Y-101260000I-250000J0D01*
G01*
G37*
%TD*%
%TO.C,C5*%
G36*
G01*
X96129000Y-61999500D02*
X94879000Y-61999500D01*
G75*
G02*
X94629000Y-61749500I0J250000D01*
G01*
X94629000Y-60824500D01*
G75*
G02*
X94879000Y-60574500I250000J0D01*
G01*
X96129000Y-60574500D01*
G75*
G02*
X96379000Y-60824500I0J-250000D01*
G01*
X96379000Y-61749500D01*
G75*
G02*
X96129000Y-61999500I-250000J0D01*
G01*
G37*
G36*
G01*
X96129000Y-64974500D02*
X94879000Y-64974500D01*
G75*
G02*
X94629000Y-64724500I0J250000D01*
G01*
X94629000Y-63799500D01*
G75*
G02*
X94879000Y-63549500I250000J0D01*
G01*
X96129000Y-63549500D01*
G75*
G02*
X96379000Y-63799500I0J-250000D01*
G01*
X96379000Y-64724500D01*
G75*
G02*
X96129000Y-64974500I-250000J0D01*
G01*
G37*
%TD*%
%TO.C,C4*%
G36*
G01*
X107305000Y-110350000D02*
X106055000Y-110350000D01*
G75*
G02*
X105805000Y-110100000I0J250000D01*
G01*
X105805000Y-109175000D01*
G75*
G02*
X106055000Y-108925000I250000J0D01*
G01*
X107305000Y-108925000D01*
G75*
G02*
X107555000Y-109175000I0J-250000D01*
G01*
X107555000Y-110100000D01*
G75*
G02*
X107305000Y-110350000I-250000J0D01*
G01*
G37*
G36*
G01*
X107305000Y-113325000D02*
X106055000Y-113325000D01*
G75*
G02*
X105805000Y-113075000I0J250000D01*
G01*
X105805000Y-112150000D01*
G75*
G02*
X106055000Y-111900000I250000J0D01*
G01*
X107305000Y-111900000D01*
G75*
G02*
X107555000Y-112150000I0J-250000D01*
G01*
X107555000Y-113075000D01*
G75*
G02*
X107305000Y-113325000I-250000J0D01*
G01*
G37*
%TD*%
%TO.C,C3*%
G36*
G01*
X94605000Y-81557500D02*
X93355000Y-81557500D01*
G75*
G02*
X93105000Y-81307500I0J250000D01*
G01*
X93105000Y-80382500D01*
G75*
G02*
X93355000Y-80132500I250000J0D01*
G01*
X94605000Y-80132500D01*
G75*
G02*
X94855000Y-80382500I0J-250000D01*
G01*
X94855000Y-81307500D01*
G75*
G02*
X94605000Y-81557500I-250000J0D01*
G01*
G37*
G36*
G01*
X94605000Y-84532500D02*
X93355000Y-84532500D01*
G75*
G02*
X93105000Y-84282500I0J250000D01*
G01*
X93105000Y-83357500D01*
G75*
G02*
X93355000Y-83107500I250000J0D01*
G01*
X94605000Y-83107500D01*
G75*
G02*
X94855000Y-83357500I0J-250000D01*
G01*
X94855000Y-84282500D01*
G75*
G02*
X94605000Y-84532500I-250000J0D01*
G01*
G37*
%TD*%
%TO.C,C2*%
G36*
G01*
X106055000Y-88622500D02*
X107305000Y-88622500D01*
G75*
G02*
X107555000Y-88872500I0J-250000D01*
G01*
X107555000Y-89797500D01*
G75*
G02*
X107305000Y-90047500I-250000J0D01*
G01*
X106055000Y-90047500D01*
G75*
G02*
X105805000Y-89797500I0J250000D01*
G01*
X105805000Y-88872500D01*
G75*
G02*
X106055000Y-88622500I250000J0D01*
G01*
G37*
G36*
G01*
X106055000Y-85647500D02*
X107305000Y-85647500D01*
G75*
G02*
X107555000Y-85897500I0J-250000D01*
G01*
X107555000Y-86822500D01*
G75*
G02*
X107305000Y-87072500I-250000J0D01*
G01*
X106055000Y-87072500D01*
G75*
G02*
X105805000Y-86822500I0J250000D01*
G01*
X105805000Y-85897500D01*
G75*
G02*
X106055000Y-85647500I250000J0D01*
G01*
G37*
%TD*%
%TO.C,U3*%
G36*
G01*
X97890000Y-60930000D02*
X97690000Y-60930000D01*
G75*
G02*
X97590000Y-60830000I0J100000D01*
G01*
X97590000Y-59405000D01*
G75*
G02*
X97690000Y-59305000I100000J0D01*
G01*
X97890000Y-59305000D01*
G75*
G02*
X97990000Y-59405000I0J-100000D01*
G01*
X97990000Y-60830000D01*
G75*
G02*
X97890000Y-60930000I-100000J0D01*
G01*
G37*
G36*
G01*
X98540000Y-60930000D02*
X98340000Y-60930000D01*
G75*
G02*
X98240000Y-60830000I0J100000D01*
G01*
X98240000Y-59405000D01*
G75*
G02*
X98340000Y-59305000I100000J0D01*
G01*
X98540000Y-59305000D01*
G75*
G02*
X98640000Y-59405000I0J-100000D01*
G01*
X98640000Y-60830000D01*
G75*
G02*
X98540000Y-60930000I-100000J0D01*
G01*
G37*
G36*
G01*
X99190000Y-60930000D02*
X98990000Y-60930000D01*
G75*
G02*
X98890000Y-60830000I0J100000D01*
G01*
X98890000Y-59405000D01*
G75*
G02*
X98990000Y-59305000I100000J0D01*
G01*
X99190000Y-59305000D01*
G75*
G02*
X99290000Y-59405000I0J-100000D01*
G01*
X99290000Y-60830000D01*
G75*
G02*
X99190000Y-60930000I-100000J0D01*
G01*
G37*
G36*
G01*
X99840000Y-60930000D02*
X99640000Y-60930000D01*
G75*
G02*
X99540000Y-60830000I0J100000D01*
G01*
X99540000Y-59405000D01*
G75*
G02*
X99640000Y-59305000I100000J0D01*
G01*
X99840000Y-59305000D01*
G75*
G02*
X99940000Y-59405000I0J-100000D01*
G01*
X99940000Y-60830000D01*
G75*
G02*
X99840000Y-60930000I-100000J0D01*
G01*
G37*
G36*
G01*
X99840000Y-65155000D02*
X99640000Y-65155000D01*
G75*
G02*
X99540000Y-65055000I0J100000D01*
G01*
X99540000Y-63630000D01*
G75*
G02*
X99640000Y-63530000I100000J0D01*
G01*
X99840000Y-63530000D01*
G75*
G02*
X99940000Y-63630000I0J-100000D01*
G01*
X99940000Y-65055000D01*
G75*
G02*
X99840000Y-65155000I-100000J0D01*
G01*
G37*
G36*
G01*
X99190000Y-65155000D02*
X98990000Y-65155000D01*
G75*
G02*
X98890000Y-65055000I0J100000D01*
G01*
X98890000Y-63630000D01*
G75*
G02*
X98990000Y-63530000I100000J0D01*
G01*
X99190000Y-63530000D01*
G75*
G02*
X99290000Y-63630000I0J-100000D01*
G01*
X99290000Y-65055000D01*
G75*
G02*
X99190000Y-65155000I-100000J0D01*
G01*
G37*
G36*
G01*
X98540000Y-65155000D02*
X98340000Y-65155000D01*
G75*
G02*
X98240000Y-65055000I0J100000D01*
G01*
X98240000Y-63630000D01*
G75*
G02*
X98340000Y-63530000I100000J0D01*
G01*
X98540000Y-63530000D01*
G75*
G02*
X98640000Y-63630000I0J-100000D01*
G01*
X98640000Y-65055000D01*
G75*
G02*
X98540000Y-65155000I-100000J0D01*
G01*
G37*
G36*
G01*
X97890000Y-65155000D02*
X97690000Y-65155000D01*
G75*
G02*
X97590000Y-65055000I0J100000D01*
G01*
X97590000Y-63630000D01*
G75*
G02*
X97690000Y-63530000I100000J0D01*
G01*
X97890000Y-63530000D01*
G75*
G02*
X97990000Y-63630000I0J-100000D01*
G01*
X97990000Y-65055000D01*
G75*
G02*
X97890000Y-65155000I-100000J0D01*
G01*
G37*
%TD*%
M02*
