%TF.GenerationSoftware,KiCad,Pcbnew,5.1.6*%
%TF.CreationDate,2020-08-27T20:26:27+01:00*%
%TF.ProjectId,wireless-temperaure-sensor,77697265-6c65-4737-932d-74656d706572,0.2*%
%TF.SameCoordinates,Original*%
%TF.FileFunction,Copper,L2,Bot*%
%TF.FilePolarity,Positive*%
%FSLAX46Y46*%
G04 Gerber Fmt 4.6, Leading zero omitted, Abs format (unit mm)*
G04 Created by KiCad (PCBNEW 5.1.6) date 2020-08-27 20:26:27*
%MOMM*%
%LPD*%
G01*
G04 APERTURE LIST*
%TA.AperFunction,ComponentPad*%
%ADD10C,1.500000*%
%TD*%
%TA.AperFunction,ComponentPad*%
%ADD11C,1.524000*%
%TD*%
%TA.AperFunction,ComponentPad*%
%ADD12R,1.524000X1.524000*%
%TD*%
%TA.AperFunction,SMDPad,CuDef*%
%ADD13R,3.600000X2.600000*%
%TD*%
%TA.AperFunction,ComponentPad*%
%ADD14O,1.700000X1.700000*%
%TD*%
%TA.AperFunction,ComponentPad*%
%ADD15R,1.700000X1.700000*%
%TD*%
%TA.AperFunction,ViaPad*%
%ADD16C,0.800000*%
%TD*%
%TA.AperFunction,Conductor*%
%ADD17C,1.000000*%
%TD*%
%TA.AperFunction,Conductor*%
%ADD18C,0.400000*%
%TD*%
%TA.AperFunction,Conductor*%
%ADD19C,0.254000*%
%TD*%
G04 APERTURE END LIST*
D10*
%TO.P,TP7,1*%
%TO.N,/SCL*%
X94488000Y-74676000D03*
%TD*%
%TO.P,TP6,1*%
%TO.N,/SDA*%
X90424000Y-74676000D03*
%TD*%
%TO.P,CE,1*%
%TO.N,/NRF_CE*%
X102870000Y-105918000D03*
%TD*%
%TO.P,CSN,1*%
%TO.N,/NCSN*%
X99822000Y-100330000D03*
%TD*%
%TO.P,SCK,1*%
%TO.N,/SPI_SCK*%
X98806000Y-94742000D03*
%TD*%
%TO.P,MISO,1*%
%TO.N,/MISO*%
X95250000Y-106680000D03*
%TD*%
%TO.P,MOSI,1*%
%TO.N,/MOSI*%
X91694000Y-106680000D03*
%TD*%
D11*
%TO.P,U2,8*%
%TO.N,Net-(U2-Pad8)*%
X95250000Y-112395000D03*
%TO.P,U2,7*%
%TO.N,/MISO*%
X95250000Y-109855000D03*
%TO.P,U2,6*%
%TO.N,/MOSI*%
X97790000Y-112395000D03*
%TO.P,U2,5*%
%TO.N,/SPI_SCK*%
X97790000Y-109855000D03*
%TO.P,U2,4*%
%TO.N,/NCSN*%
X100330000Y-112395000D03*
%TO.P,U2,3*%
%TO.N,/NRF_CE*%
X100330000Y-109855000D03*
%TO.P,U2,2*%
%TO.N,VDD*%
X102870000Y-112395000D03*
D12*
%TO.P,U2,1*%
%TO.N,GND*%
X102870000Y-109855000D03*
%TD*%
%TO.P,C1,2*%
%TO.N,GND*%
%TA.AperFunction,SMDPad,CuDef*%
G36*
G01*
X101322500Y-71999000D02*
X101322500Y-70749000D01*
G75*
G02*
X101572500Y-70499000I250000J0D01*
G01*
X102497500Y-70499000D01*
G75*
G02*
X102747500Y-70749000I0J-250000D01*
G01*
X102747500Y-71999000D01*
G75*
G02*
X102497500Y-72249000I-250000J0D01*
G01*
X101572500Y-72249000D01*
G75*
G02*
X101322500Y-71999000I0J250000D01*
G01*
G37*
%TD.AperFunction*%
%TO.P,C1,1*%
%TO.N,VDD*%
%TA.AperFunction,SMDPad,CuDef*%
G36*
G01*
X98347500Y-71999000D02*
X98347500Y-70749000D01*
G75*
G02*
X98597500Y-70499000I250000J0D01*
G01*
X99522500Y-70499000D01*
G75*
G02*
X99772500Y-70749000I0J-250000D01*
G01*
X99772500Y-71999000D01*
G75*
G02*
X99522500Y-72249000I-250000J0D01*
G01*
X98597500Y-72249000D01*
G75*
G02*
X98347500Y-71999000I0J250000D01*
G01*
G37*
%TD.AperFunction*%
%TD*%
D13*
%TO.P,BT1,1*%
%TO.N,VDD*%
X99060000Y-75901000D03*
%TO.P,BT1,2*%
%TO.N,GND*%
X99060000Y-105201000D03*
%TD*%
D14*
%TO.P,J1,5*%
%TO.N,/SWCLK*%
X90170000Y-92075000D03*
%TO.P,J1,4*%
%TO.N,/SWDIO*%
X90170000Y-89535000D03*
%TO.P,J1,3*%
%TO.N,/NRST*%
X90170000Y-86995000D03*
%TO.P,J1,2*%
%TO.N,GND*%
X90170000Y-84455000D03*
D15*
%TO.P,J1,1*%
%TO.N,VDD*%
X90170000Y-81915000D03*
%TD*%
D16*
%TO.N,VDD*%
X96266000Y-72644000D03*
X89154000Y-72644000D03*
%TO.N,GND*%
X100076000Y-107442000D03*
X98806000Y-61976000D03*
X95250000Y-59436000D03*
X96520000Y-59436000D03*
X99822000Y-61976000D03*
X101600000Y-101600000D03*
X100584000Y-101600000D03*
X94589600Y-85191600D03*
X108508800Y-89992200D03*
X108534200Y-88773000D03*
X106426000Y-92710000D03*
X109220000Y-92735400D03*
X103886000Y-70866000D03*
X103886000Y-71882000D03*
X93726000Y-78994000D03*
X94742000Y-78994000D03*
X96774000Y-101854000D03*
X96520000Y-108712000D03*
X93218000Y-100330000D03*
X101523800Y-91363800D03*
X102616000Y-91363800D03*
X88061800Y-98933000D03*
X96774000Y-91313000D03*
X95631000Y-91313000D03*
X88036400Y-86182200D03*
X88087200Y-83820000D03*
X86944200Y-81965800D03*
X93599000Y-67818000D03*
X94488000Y-67818000D03*
X95377000Y-67818000D03*
X96266000Y-67818000D03*
X99441000Y-67818000D03*
X100330000Y-67818000D03*
X101219000Y-67818000D03*
%TO.N,/NRST*%
X101600000Y-90170000D03*
X96774346Y-90170000D03*
%TD*%
D17*
%TO.N,VDD*%
X99060000Y-75901000D02*
X99060000Y-71374000D01*
D18*
X99060000Y-71374000D02*
X97536000Y-71374000D01*
X97536000Y-71374000D02*
X96266000Y-72644000D01*
X96266000Y-72644000D02*
X89154000Y-72644000D01*
%TO.N,/NRST*%
X101600000Y-90170000D02*
X96774346Y-90170000D01*
%TD*%
D19*
%TO.N,GND*%
G36*
X92812000Y-66782059D02*
G01*
X92810036Y-66802000D01*
X92817875Y-66881590D01*
X92841090Y-66958121D01*
X92878790Y-67028653D01*
X92929526Y-67090474D01*
X92991347Y-67141210D01*
X93061879Y-67178910D01*
X93138410Y-67202125D01*
X93218000Y-67209964D01*
X93237940Y-67208000D01*
X96500060Y-67208000D01*
X96520000Y-67209964D01*
X96599590Y-67202125D01*
X96676121Y-67178910D01*
X96746653Y-67141210D01*
X96808474Y-67090474D01*
X96859210Y-67028653D01*
X96896910Y-66958121D01*
X96920125Y-66881590D01*
X96926000Y-66821941D01*
X96926000Y-66821940D01*
X96927964Y-66802000D01*
X96926000Y-66782059D01*
X96926000Y-65805940D01*
X96927964Y-65786000D01*
X96920125Y-65706410D01*
X96896910Y-65629879D01*
X96859210Y-65559347D01*
X96808474Y-65497526D01*
X96746653Y-65446790D01*
X96676121Y-65409090D01*
X96599590Y-65385875D01*
X96539941Y-65380000D01*
X96539940Y-65380000D01*
X96520000Y-65378036D01*
X96500059Y-65380000D01*
X94386000Y-65380000D01*
X94386000Y-58318000D01*
X100432000Y-58318000D01*
X100432001Y-65380000D01*
X99079940Y-65380000D01*
X99060000Y-65378036D01*
X99040059Y-65380000D01*
X98980410Y-65385875D01*
X98903879Y-65409090D01*
X98833347Y-65446790D01*
X98771526Y-65497526D01*
X98720790Y-65559347D01*
X98683090Y-65629879D01*
X98659875Y-65706410D01*
X98652036Y-65786000D01*
X98654000Y-65805940D01*
X98654001Y-66782050D01*
X98652036Y-66802000D01*
X98659875Y-66881590D01*
X98683090Y-66958121D01*
X98720790Y-67028653D01*
X98771526Y-67090474D01*
X98833347Y-67141210D01*
X98903879Y-67178910D01*
X98980410Y-67202125D01*
X99040059Y-67208000D01*
X99040060Y-67208000D01*
X99060000Y-67209964D01*
X99079941Y-67208000D01*
X101580059Y-67208000D01*
X101600000Y-67209964D01*
X101619940Y-67208000D01*
X101619941Y-67208000D01*
X101679590Y-67202125D01*
X101756121Y-67178910D01*
X101826653Y-67141210D01*
X101888474Y-67090474D01*
X101939210Y-67028653D01*
X101976910Y-66958121D01*
X102000125Y-66881590D01*
X102007964Y-66802000D01*
X102006000Y-66782059D01*
X102006000Y-62584905D01*
X104617598Y-62584905D01*
X104617598Y-62891095D01*
X104677333Y-63191402D01*
X104794507Y-63474285D01*
X104964617Y-63728873D01*
X105181127Y-63945383D01*
X105435715Y-64115493D01*
X105718598Y-64232667D01*
X106018905Y-64292402D01*
X106325095Y-64292402D01*
X106625402Y-64232667D01*
X106908285Y-64115493D01*
X107162873Y-63945383D01*
X107379383Y-63728873D01*
X107549493Y-63474285D01*
X107666667Y-63191402D01*
X107726402Y-62891095D01*
X107726402Y-62584905D01*
X107666667Y-62284598D01*
X107549493Y-62001715D01*
X107379383Y-61747127D01*
X107162873Y-61530617D01*
X106908285Y-61360507D01*
X106625402Y-61243333D01*
X106325095Y-61183598D01*
X106018905Y-61183598D01*
X105718598Y-61243333D01*
X105435715Y-61360507D01*
X105181127Y-61530617D01*
X104964617Y-61747127D01*
X104794507Y-62001715D01*
X104677333Y-62284598D01*
X104617598Y-62584905D01*
X102006000Y-62584905D01*
X102006000Y-58318000D01*
X109830001Y-58318000D01*
X109830000Y-114402000D01*
X86512000Y-114402000D01*
X86512000Y-112282424D01*
X94107000Y-112282424D01*
X94107000Y-112507576D01*
X94150925Y-112728401D01*
X94237087Y-112936413D01*
X94362174Y-113123620D01*
X94521380Y-113282826D01*
X94708587Y-113407913D01*
X94916599Y-113494075D01*
X95137424Y-113538000D01*
X95362576Y-113538000D01*
X95583401Y-113494075D01*
X95791413Y-113407913D01*
X95978620Y-113282826D01*
X96137826Y-113123620D01*
X96262913Y-112936413D01*
X96349075Y-112728401D01*
X96393000Y-112507576D01*
X96393000Y-112282424D01*
X96647000Y-112282424D01*
X96647000Y-112507576D01*
X96690925Y-112728401D01*
X96777087Y-112936413D01*
X96902174Y-113123620D01*
X97061380Y-113282826D01*
X97248587Y-113407913D01*
X97456599Y-113494075D01*
X97677424Y-113538000D01*
X97902576Y-113538000D01*
X98123401Y-113494075D01*
X98331413Y-113407913D01*
X98518620Y-113282826D01*
X98677826Y-113123620D01*
X98802913Y-112936413D01*
X98889075Y-112728401D01*
X98933000Y-112507576D01*
X98933000Y-112282424D01*
X99187000Y-112282424D01*
X99187000Y-112507576D01*
X99230925Y-112728401D01*
X99317087Y-112936413D01*
X99442174Y-113123620D01*
X99601380Y-113282826D01*
X99788587Y-113407913D01*
X99996599Y-113494075D01*
X100217424Y-113538000D01*
X100442576Y-113538000D01*
X100663401Y-113494075D01*
X100871413Y-113407913D01*
X101058620Y-113282826D01*
X101217826Y-113123620D01*
X101342913Y-112936413D01*
X101429075Y-112728401D01*
X101473000Y-112507576D01*
X101473000Y-112282424D01*
X101727000Y-112282424D01*
X101727000Y-112507576D01*
X101770925Y-112728401D01*
X101857087Y-112936413D01*
X101982174Y-113123620D01*
X102141380Y-113282826D01*
X102328587Y-113407913D01*
X102536599Y-113494075D01*
X102757424Y-113538000D01*
X102982576Y-113538000D01*
X103203401Y-113494075D01*
X103411413Y-113407913D01*
X103598620Y-113282826D01*
X103757826Y-113123620D01*
X103882913Y-112936413D01*
X103969075Y-112728401D01*
X104013000Y-112507576D01*
X104013000Y-112282424D01*
X103969075Y-112061599D01*
X103882913Y-111853587D01*
X103757826Y-111666380D01*
X103598620Y-111507174D01*
X103411413Y-111382087D01*
X103203401Y-111295925D01*
X102982576Y-111252000D01*
X102757424Y-111252000D01*
X102536599Y-111295925D01*
X102328587Y-111382087D01*
X102141380Y-111507174D01*
X101982174Y-111666380D01*
X101857087Y-111853587D01*
X101770925Y-112061599D01*
X101727000Y-112282424D01*
X101473000Y-112282424D01*
X101429075Y-112061599D01*
X101342913Y-111853587D01*
X101217826Y-111666380D01*
X101058620Y-111507174D01*
X100871413Y-111382087D01*
X100663401Y-111295925D01*
X100442576Y-111252000D01*
X100217424Y-111252000D01*
X99996599Y-111295925D01*
X99788587Y-111382087D01*
X99601380Y-111507174D01*
X99442174Y-111666380D01*
X99317087Y-111853587D01*
X99230925Y-112061599D01*
X99187000Y-112282424D01*
X98933000Y-112282424D01*
X98889075Y-112061599D01*
X98802913Y-111853587D01*
X98677826Y-111666380D01*
X98518620Y-111507174D01*
X98331413Y-111382087D01*
X98123401Y-111295925D01*
X97902576Y-111252000D01*
X97677424Y-111252000D01*
X97456599Y-111295925D01*
X97248587Y-111382087D01*
X97061380Y-111507174D01*
X96902174Y-111666380D01*
X96777087Y-111853587D01*
X96690925Y-112061599D01*
X96647000Y-112282424D01*
X96393000Y-112282424D01*
X96349075Y-112061599D01*
X96262913Y-111853587D01*
X96137826Y-111666380D01*
X95978620Y-111507174D01*
X95791413Y-111382087D01*
X95583401Y-111295925D01*
X95362576Y-111252000D01*
X95137424Y-111252000D01*
X94916599Y-111295925D01*
X94708587Y-111382087D01*
X94521380Y-111507174D01*
X94362174Y-111666380D01*
X94237087Y-111853587D01*
X94150925Y-112061599D01*
X94107000Y-112282424D01*
X86512000Y-112282424D01*
X86512000Y-109742424D01*
X94107000Y-109742424D01*
X94107000Y-109967576D01*
X94150925Y-110188401D01*
X94237087Y-110396413D01*
X94362174Y-110583620D01*
X94521380Y-110742826D01*
X94708587Y-110867913D01*
X94916599Y-110954075D01*
X95137424Y-110998000D01*
X95362576Y-110998000D01*
X95583401Y-110954075D01*
X95791413Y-110867913D01*
X95978620Y-110742826D01*
X96137826Y-110583620D01*
X96262913Y-110396413D01*
X96349075Y-110188401D01*
X96393000Y-109967576D01*
X96393000Y-109742424D01*
X96647000Y-109742424D01*
X96647000Y-109967576D01*
X96690925Y-110188401D01*
X96777087Y-110396413D01*
X96902174Y-110583620D01*
X97061380Y-110742826D01*
X97248587Y-110867913D01*
X97456599Y-110954075D01*
X97677424Y-110998000D01*
X97902576Y-110998000D01*
X98123401Y-110954075D01*
X98331413Y-110867913D01*
X98518620Y-110742826D01*
X98677826Y-110583620D01*
X98802913Y-110396413D01*
X98889075Y-110188401D01*
X98933000Y-109967576D01*
X98933000Y-109742424D01*
X99187000Y-109742424D01*
X99187000Y-109967576D01*
X99230925Y-110188401D01*
X99317087Y-110396413D01*
X99442174Y-110583620D01*
X99601380Y-110742826D01*
X99788587Y-110867913D01*
X99996599Y-110954075D01*
X100217424Y-110998000D01*
X100442576Y-110998000D01*
X100663401Y-110954075D01*
X100871413Y-110867913D01*
X101058620Y-110742826D01*
X101184446Y-110617000D01*
X101469928Y-110617000D01*
X101482188Y-110741482D01*
X101518498Y-110861180D01*
X101577463Y-110971494D01*
X101656815Y-111068185D01*
X101753506Y-111147537D01*
X101863820Y-111206502D01*
X101983518Y-111242812D01*
X102108000Y-111255072D01*
X102584250Y-111252000D01*
X102743000Y-111093250D01*
X102743000Y-109982000D01*
X102997000Y-109982000D01*
X102997000Y-111093250D01*
X103155750Y-111252000D01*
X103632000Y-111255072D01*
X103756482Y-111242812D01*
X103876180Y-111206502D01*
X103986494Y-111147537D01*
X104083185Y-111068185D01*
X104162537Y-110971494D01*
X104221502Y-110861180D01*
X104257812Y-110741482D01*
X104270072Y-110617000D01*
X104267000Y-110140750D01*
X104108250Y-109982000D01*
X102997000Y-109982000D01*
X102743000Y-109982000D01*
X101631750Y-109982000D01*
X101473000Y-110140750D01*
X101469928Y-110617000D01*
X101184446Y-110617000D01*
X101217826Y-110583620D01*
X101342913Y-110396413D01*
X101429075Y-110188401D01*
X101473000Y-109967576D01*
X101473000Y-109742424D01*
X101429075Y-109521599D01*
X101342913Y-109313587D01*
X101217826Y-109126380D01*
X101184446Y-109093000D01*
X101469928Y-109093000D01*
X101473000Y-109569250D01*
X101631750Y-109728000D01*
X102743000Y-109728000D01*
X102743000Y-108616750D01*
X102997000Y-108616750D01*
X102997000Y-109728000D01*
X104108250Y-109728000D01*
X104267000Y-109569250D01*
X104270072Y-109093000D01*
X104257812Y-108968518D01*
X104221502Y-108848820D01*
X104162537Y-108738506D01*
X104083185Y-108641815D01*
X103986494Y-108562463D01*
X103876180Y-108503498D01*
X103756482Y-108467188D01*
X103632000Y-108454928D01*
X103155750Y-108458000D01*
X102997000Y-108616750D01*
X102743000Y-108616750D01*
X102584250Y-108458000D01*
X102108000Y-108454928D01*
X101983518Y-108467188D01*
X101863820Y-108503498D01*
X101753506Y-108562463D01*
X101656815Y-108641815D01*
X101577463Y-108738506D01*
X101518498Y-108848820D01*
X101482188Y-108968518D01*
X101469928Y-109093000D01*
X101184446Y-109093000D01*
X101058620Y-108967174D01*
X100871413Y-108842087D01*
X100663401Y-108755925D01*
X100442576Y-108712000D01*
X100217424Y-108712000D01*
X99996599Y-108755925D01*
X99788587Y-108842087D01*
X99601380Y-108967174D01*
X99442174Y-109126380D01*
X99317087Y-109313587D01*
X99230925Y-109521599D01*
X99187000Y-109742424D01*
X98933000Y-109742424D01*
X98889075Y-109521599D01*
X98802913Y-109313587D01*
X98677826Y-109126380D01*
X98518620Y-108967174D01*
X98331413Y-108842087D01*
X98123401Y-108755925D01*
X97902576Y-108712000D01*
X97677424Y-108712000D01*
X97456599Y-108755925D01*
X97248587Y-108842087D01*
X97061380Y-108967174D01*
X96902174Y-109126380D01*
X96777087Y-109313587D01*
X96690925Y-109521599D01*
X96647000Y-109742424D01*
X96393000Y-109742424D01*
X96349075Y-109521599D01*
X96262913Y-109313587D01*
X96137826Y-109126380D01*
X95978620Y-108967174D01*
X95791413Y-108842087D01*
X95583401Y-108755925D01*
X95362576Y-108712000D01*
X95137424Y-108712000D01*
X94916599Y-108755925D01*
X94708587Y-108842087D01*
X94521380Y-108967174D01*
X94362174Y-109126380D01*
X94237087Y-109313587D01*
X94150925Y-109521599D01*
X94107000Y-109742424D01*
X86512000Y-109742424D01*
X86512000Y-106568606D01*
X90563000Y-106568606D01*
X90563000Y-106791394D01*
X90606464Y-107009900D01*
X90691721Y-107215729D01*
X90815495Y-107400970D01*
X90973030Y-107558505D01*
X91158271Y-107682279D01*
X91364100Y-107767536D01*
X91582606Y-107811000D01*
X91805394Y-107811000D01*
X92023900Y-107767536D01*
X92229729Y-107682279D01*
X92414970Y-107558505D01*
X92572505Y-107400970D01*
X92696279Y-107215729D01*
X92781536Y-107009900D01*
X92825000Y-106791394D01*
X92825000Y-106568606D01*
X94119000Y-106568606D01*
X94119000Y-106791394D01*
X94162464Y-107009900D01*
X94247721Y-107215729D01*
X94371495Y-107400970D01*
X94529030Y-107558505D01*
X94714271Y-107682279D01*
X94920100Y-107767536D01*
X95138606Y-107811000D01*
X95361394Y-107811000D01*
X95579900Y-107767536D01*
X95785729Y-107682279D01*
X95970970Y-107558505D01*
X96128505Y-107400970D01*
X96252279Y-107215729D01*
X96337536Y-107009900D01*
X96381000Y-106791394D01*
X96381000Y-106568606D01*
X96367553Y-106501000D01*
X96621928Y-106501000D01*
X96634188Y-106625482D01*
X96670498Y-106745180D01*
X96729463Y-106855494D01*
X96808815Y-106952185D01*
X96905506Y-107031537D01*
X97015820Y-107090502D01*
X97135518Y-107126812D01*
X97260000Y-107139072D01*
X98774250Y-107136000D01*
X98933000Y-106977250D01*
X98933000Y-105328000D01*
X99187000Y-105328000D01*
X99187000Y-106977250D01*
X99345750Y-107136000D01*
X100860000Y-107139072D01*
X100984482Y-107126812D01*
X101104180Y-107090502D01*
X101214494Y-107031537D01*
X101311185Y-106952185D01*
X101390537Y-106855494D01*
X101449502Y-106745180D01*
X101485812Y-106625482D01*
X101498072Y-106501000D01*
X101495969Y-105806606D01*
X101739000Y-105806606D01*
X101739000Y-106029394D01*
X101782464Y-106247900D01*
X101867721Y-106453729D01*
X101991495Y-106638970D01*
X102149030Y-106796505D01*
X102334271Y-106920279D01*
X102540100Y-107005536D01*
X102758606Y-107049000D01*
X102981394Y-107049000D01*
X103199900Y-107005536D01*
X103405729Y-106920279D01*
X103590970Y-106796505D01*
X103612376Y-106775099D01*
X105574655Y-106775099D01*
X105574655Y-107092901D01*
X105636655Y-107404595D01*
X105758272Y-107698205D01*
X105934833Y-107962447D01*
X106159553Y-108187167D01*
X106423795Y-108363728D01*
X106717405Y-108485345D01*
X107029099Y-108547345D01*
X107346901Y-108547345D01*
X107658595Y-108485345D01*
X107952205Y-108363728D01*
X108216447Y-108187167D01*
X108441167Y-107962447D01*
X108617728Y-107698205D01*
X108739345Y-107404595D01*
X108801345Y-107092901D01*
X108801345Y-106775099D01*
X108739345Y-106463405D01*
X108617728Y-106169795D01*
X108441167Y-105905553D01*
X108216447Y-105680833D01*
X107952205Y-105504272D01*
X107658595Y-105382655D01*
X107346901Y-105320655D01*
X107029099Y-105320655D01*
X106717405Y-105382655D01*
X106423795Y-105504272D01*
X106159553Y-105680833D01*
X105934833Y-105905553D01*
X105758272Y-106169795D01*
X105636655Y-106463405D01*
X105574655Y-106775099D01*
X103612376Y-106775099D01*
X103748505Y-106638970D01*
X103872279Y-106453729D01*
X103957536Y-106247900D01*
X104001000Y-106029394D01*
X104001000Y-105806606D01*
X103957536Y-105588100D01*
X103872279Y-105382271D01*
X103748505Y-105197030D01*
X103590970Y-105039495D01*
X103405729Y-104915721D01*
X103199900Y-104830464D01*
X102981394Y-104787000D01*
X102758606Y-104787000D01*
X102540100Y-104830464D01*
X102334271Y-104915721D01*
X102149030Y-105039495D01*
X101991495Y-105197030D01*
X101867721Y-105382271D01*
X101782464Y-105588100D01*
X101739000Y-105806606D01*
X101495969Y-105806606D01*
X101495000Y-105486750D01*
X101336250Y-105328000D01*
X99187000Y-105328000D01*
X98933000Y-105328000D01*
X96783750Y-105328000D01*
X96625000Y-105486750D01*
X96621928Y-106501000D01*
X96367553Y-106501000D01*
X96337536Y-106350100D01*
X96252279Y-106144271D01*
X96128505Y-105959030D01*
X95970970Y-105801495D01*
X95785729Y-105677721D01*
X95579900Y-105592464D01*
X95361394Y-105549000D01*
X95138606Y-105549000D01*
X94920100Y-105592464D01*
X94714271Y-105677721D01*
X94529030Y-105801495D01*
X94371495Y-105959030D01*
X94247721Y-106144271D01*
X94162464Y-106350100D01*
X94119000Y-106568606D01*
X92825000Y-106568606D01*
X92781536Y-106350100D01*
X92696279Y-106144271D01*
X92572505Y-105959030D01*
X92414970Y-105801495D01*
X92229729Y-105677721D01*
X92023900Y-105592464D01*
X91805394Y-105549000D01*
X91582606Y-105549000D01*
X91364100Y-105592464D01*
X91158271Y-105677721D01*
X90973030Y-105801495D01*
X90815495Y-105959030D01*
X90691721Y-106144271D01*
X90606464Y-106350100D01*
X90563000Y-106568606D01*
X86512000Y-106568606D01*
X86512000Y-104244426D01*
X87381348Y-104244426D01*
X87381348Y-104543574D01*
X87439709Y-104836974D01*
X87554188Y-105113351D01*
X87720386Y-105362084D01*
X87931916Y-105573614D01*
X88180649Y-105739812D01*
X88457026Y-105854291D01*
X88750426Y-105912652D01*
X89049574Y-105912652D01*
X89342974Y-105854291D01*
X89619351Y-105739812D01*
X89868084Y-105573614D01*
X90079614Y-105362084D01*
X90245812Y-105113351D01*
X90360291Y-104836974D01*
X90418652Y-104543574D01*
X90418652Y-104244426D01*
X90360291Y-103951026D01*
X90339570Y-103901000D01*
X96621928Y-103901000D01*
X96625000Y-104915250D01*
X96783750Y-105074000D01*
X98933000Y-105074000D01*
X98933000Y-103424750D01*
X99187000Y-103424750D01*
X99187000Y-105074000D01*
X101336250Y-105074000D01*
X101495000Y-104915250D01*
X101498072Y-103901000D01*
X101485812Y-103776518D01*
X101449502Y-103656820D01*
X101390537Y-103546506D01*
X101311185Y-103449815D01*
X101214494Y-103370463D01*
X101104180Y-103311498D01*
X100984482Y-103275188D01*
X100860000Y-103262928D01*
X99345750Y-103266000D01*
X99187000Y-103424750D01*
X98933000Y-103424750D01*
X98774250Y-103266000D01*
X97260000Y-103262928D01*
X97135518Y-103275188D01*
X97015820Y-103311498D01*
X96905506Y-103370463D01*
X96808815Y-103449815D01*
X96729463Y-103546506D01*
X96670498Y-103656820D01*
X96634188Y-103776518D01*
X96621928Y-103901000D01*
X90339570Y-103901000D01*
X90245812Y-103674649D01*
X90079614Y-103425916D01*
X89868084Y-103214386D01*
X89619351Y-103048188D01*
X89342974Y-102933709D01*
X89049574Y-102875348D01*
X88750426Y-102875348D01*
X88457026Y-102933709D01*
X88180649Y-103048188D01*
X87931916Y-103214386D01*
X87720386Y-103425916D01*
X87554188Y-103674649D01*
X87439709Y-103951026D01*
X87381348Y-104244426D01*
X86512000Y-104244426D01*
X86512000Y-100218606D01*
X98691000Y-100218606D01*
X98691000Y-100441394D01*
X98734464Y-100659900D01*
X98819721Y-100865729D01*
X98943495Y-101050970D01*
X99101030Y-101208505D01*
X99286271Y-101332279D01*
X99492100Y-101417536D01*
X99710606Y-101461000D01*
X99933394Y-101461000D01*
X100151900Y-101417536D01*
X100357729Y-101332279D01*
X100542970Y-101208505D01*
X100700505Y-101050970D01*
X100824279Y-100865729D01*
X100909536Y-100659900D01*
X100953000Y-100441394D01*
X100953000Y-100218606D01*
X100909536Y-100000100D01*
X100824279Y-99794271D01*
X100700505Y-99609030D01*
X100542970Y-99451495D01*
X100357729Y-99327721D01*
X100151900Y-99242464D01*
X99933394Y-99199000D01*
X99710606Y-99199000D01*
X99492100Y-99242464D01*
X99286271Y-99327721D01*
X99101030Y-99451495D01*
X98943495Y-99609030D01*
X98819721Y-99794271D01*
X98734464Y-100000100D01*
X98691000Y-100218606D01*
X86512000Y-100218606D01*
X86512000Y-94630606D01*
X97675000Y-94630606D01*
X97675000Y-94853394D01*
X97718464Y-95071900D01*
X97803721Y-95277729D01*
X97927495Y-95462970D01*
X98085030Y-95620505D01*
X98270271Y-95744279D01*
X98476100Y-95829536D01*
X98694606Y-95873000D01*
X98917394Y-95873000D01*
X99135900Y-95829536D01*
X99341729Y-95744279D01*
X99526970Y-95620505D01*
X99684505Y-95462970D01*
X99808279Y-95277729D01*
X99893536Y-95071900D01*
X99937000Y-94853394D01*
X99937000Y-94630606D01*
X99893536Y-94412100D01*
X99808279Y-94206271D01*
X99684505Y-94021030D01*
X99526970Y-93863495D01*
X99341729Y-93739721D01*
X99135900Y-93654464D01*
X98917394Y-93611000D01*
X98694606Y-93611000D01*
X98476100Y-93654464D01*
X98270271Y-93739721D01*
X98085030Y-93863495D01*
X97927495Y-94021030D01*
X97803721Y-94206271D01*
X97718464Y-94412100D01*
X97675000Y-94630606D01*
X86512000Y-94630606D01*
X86512000Y-91953757D01*
X88939000Y-91953757D01*
X88939000Y-92196243D01*
X88986307Y-92434069D01*
X89079102Y-92658097D01*
X89213820Y-92859717D01*
X89385283Y-93031180D01*
X89586903Y-93165898D01*
X89810931Y-93258693D01*
X90048757Y-93306000D01*
X90291243Y-93306000D01*
X90529069Y-93258693D01*
X90753097Y-93165898D01*
X90954717Y-93031180D01*
X91126180Y-92859717D01*
X91260898Y-92658097D01*
X91353693Y-92434069D01*
X91401000Y-92196243D01*
X91401000Y-91953757D01*
X91353693Y-91715931D01*
X91260898Y-91491903D01*
X91126180Y-91290283D01*
X90954717Y-91118820D01*
X90753097Y-90984102D01*
X90529069Y-90891307D01*
X90291243Y-90844000D01*
X90048757Y-90844000D01*
X89810931Y-90891307D01*
X89586903Y-90984102D01*
X89385283Y-91118820D01*
X89213820Y-91290283D01*
X89079102Y-91491903D01*
X88986307Y-91715931D01*
X88939000Y-91953757D01*
X86512000Y-91953757D01*
X86512000Y-89413757D01*
X88939000Y-89413757D01*
X88939000Y-89656243D01*
X88986307Y-89894069D01*
X89079102Y-90118097D01*
X89213820Y-90319717D01*
X89385283Y-90491180D01*
X89586903Y-90625898D01*
X89810931Y-90718693D01*
X90048757Y-90766000D01*
X90291243Y-90766000D01*
X90529069Y-90718693D01*
X90753097Y-90625898D01*
X90954717Y-90491180D01*
X91126180Y-90319717D01*
X91260898Y-90118097D01*
X91271261Y-90093078D01*
X95993346Y-90093078D01*
X95993346Y-90246922D01*
X96023359Y-90397809D01*
X96082233Y-90539942D01*
X96167704Y-90667859D01*
X96276487Y-90776642D01*
X96404404Y-90862113D01*
X96546537Y-90920987D01*
X96697424Y-90951000D01*
X96851268Y-90951000D01*
X97002155Y-90920987D01*
X97144288Y-90862113D01*
X97272205Y-90776642D01*
X97297847Y-90751000D01*
X101076499Y-90751000D01*
X101102141Y-90776642D01*
X101230058Y-90862113D01*
X101372191Y-90920987D01*
X101523078Y-90951000D01*
X101676922Y-90951000D01*
X101827809Y-90920987D01*
X101969942Y-90862113D01*
X102097859Y-90776642D01*
X102206642Y-90667859D01*
X102292113Y-90539942D01*
X102350987Y-90397809D01*
X102381000Y-90246922D01*
X102381000Y-90093078D01*
X102350987Y-89942191D01*
X102292113Y-89800058D01*
X102206642Y-89672141D01*
X102097859Y-89563358D01*
X101969942Y-89477887D01*
X101827809Y-89419013D01*
X101676922Y-89389000D01*
X101523078Y-89389000D01*
X101372191Y-89419013D01*
X101230058Y-89477887D01*
X101102141Y-89563358D01*
X101076499Y-89589000D01*
X97297847Y-89589000D01*
X97272205Y-89563358D01*
X97144288Y-89477887D01*
X97002155Y-89419013D01*
X96851268Y-89389000D01*
X96697424Y-89389000D01*
X96546537Y-89419013D01*
X96404404Y-89477887D01*
X96276487Y-89563358D01*
X96167704Y-89672141D01*
X96082233Y-89800058D01*
X96023359Y-89942191D01*
X95993346Y-90093078D01*
X91271261Y-90093078D01*
X91353693Y-89894069D01*
X91401000Y-89656243D01*
X91401000Y-89413757D01*
X91353693Y-89175931D01*
X91260898Y-88951903D01*
X91126180Y-88750283D01*
X90954717Y-88578820D01*
X90753097Y-88444102D01*
X90529069Y-88351307D01*
X90291243Y-88304000D01*
X90048757Y-88304000D01*
X89810931Y-88351307D01*
X89586903Y-88444102D01*
X89385283Y-88578820D01*
X89213820Y-88750283D01*
X89079102Y-88951903D01*
X88986307Y-89175931D01*
X88939000Y-89413757D01*
X86512000Y-89413757D01*
X86512000Y-84811890D01*
X88728524Y-84811890D01*
X88773175Y-84959099D01*
X88898359Y-85221920D01*
X89072412Y-85455269D01*
X89288645Y-85650178D01*
X89538748Y-85799157D01*
X89701168Y-85856772D01*
X89586903Y-85904102D01*
X89385283Y-86038820D01*
X89213820Y-86210283D01*
X89079102Y-86411903D01*
X88986307Y-86635931D01*
X88939000Y-86873757D01*
X88939000Y-87116243D01*
X88986307Y-87354069D01*
X89079102Y-87578097D01*
X89213820Y-87779717D01*
X89385283Y-87951180D01*
X89586903Y-88085898D01*
X89810931Y-88178693D01*
X90048757Y-88226000D01*
X90291243Y-88226000D01*
X90529069Y-88178693D01*
X90753097Y-88085898D01*
X90954717Y-87951180D01*
X91126180Y-87779717D01*
X91260898Y-87578097D01*
X91353693Y-87354069D01*
X91401000Y-87116243D01*
X91401000Y-86873757D01*
X91353693Y-86635931D01*
X91260898Y-86411903D01*
X91126180Y-86210283D01*
X90954717Y-86038820D01*
X90753097Y-85904102D01*
X90638832Y-85856772D01*
X90801252Y-85799157D01*
X91051355Y-85650178D01*
X91267588Y-85455269D01*
X91441641Y-85221920D01*
X91566825Y-84959099D01*
X91611476Y-84811890D01*
X91490155Y-84582000D01*
X90297000Y-84582000D01*
X90297000Y-84602000D01*
X90043000Y-84602000D01*
X90043000Y-84582000D01*
X88849845Y-84582000D01*
X88728524Y-84811890D01*
X86512000Y-84811890D01*
X86512000Y-84098110D01*
X88728524Y-84098110D01*
X88849845Y-84328000D01*
X90043000Y-84328000D01*
X90043000Y-84308000D01*
X90297000Y-84308000D01*
X90297000Y-84328000D01*
X91490155Y-84328000D01*
X91611476Y-84098110D01*
X91566825Y-83950901D01*
X91441641Y-83688080D01*
X91267588Y-83454731D01*
X91051355Y-83259822D01*
X90863367Y-83147843D01*
X91020000Y-83147843D01*
X91094689Y-83140487D01*
X91166508Y-83118701D01*
X91232696Y-83083322D01*
X91290711Y-83035711D01*
X91338322Y-82977696D01*
X91373701Y-82911508D01*
X91395487Y-82839689D01*
X91402843Y-82765000D01*
X91402843Y-81065000D01*
X91395487Y-80990311D01*
X91373701Y-80918492D01*
X91338322Y-80852304D01*
X91290711Y-80794289D01*
X91232696Y-80746678D01*
X91166508Y-80711299D01*
X91094689Y-80689513D01*
X91020000Y-80682157D01*
X89320000Y-80682157D01*
X89245311Y-80689513D01*
X89173492Y-80711299D01*
X89107304Y-80746678D01*
X89049289Y-80794289D01*
X89001678Y-80852304D01*
X88966299Y-80918492D01*
X88944513Y-80990311D01*
X88937157Y-81065000D01*
X88937157Y-82765000D01*
X88944513Y-82839689D01*
X88966299Y-82911508D01*
X89001678Y-82977696D01*
X89049289Y-83035711D01*
X89107304Y-83083322D01*
X89173492Y-83118701D01*
X89245311Y-83140487D01*
X89320000Y-83147843D01*
X89476633Y-83147843D01*
X89288645Y-83259822D01*
X89072412Y-83454731D01*
X88898359Y-83688080D01*
X88773175Y-83950901D01*
X88728524Y-84098110D01*
X86512000Y-84098110D01*
X86512000Y-74564606D01*
X89293000Y-74564606D01*
X89293000Y-74787394D01*
X89336464Y-75005900D01*
X89421721Y-75211729D01*
X89545495Y-75396970D01*
X89703030Y-75554505D01*
X89888271Y-75678279D01*
X90094100Y-75763536D01*
X90312606Y-75807000D01*
X90535394Y-75807000D01*
X90753900Y-75763536D01*
X90959729Y-75678279D01*
X91144970Y-75554505D01*
X91302505Y-75396970D01*
X91426279Y-75211729D01*
X91511536Y-75005900D01*
X91555000Y-74787394D01*
X91555000Y-74564606D01*
X93357000Y-74564606D01*
X93357000Y-74787394D01*
X93400464Y-75005900D01*
X93485721Y-75211729D01*
X93609495Y-75396970D01*
X93767030Y-75554505D01*
X93952271Y-75678279D01*
X94158100Y-75763536D01*
X94376606Y-75807000D01*
X94599394Y-75807000D01*
X94817900Y-75763536D01*
X95023729Y-75678279D01*
X95208970Y-75554505D01*
X95366505Y-75396970D01*
X95490279Y-75211729D01*
X95575536Y-75005900D01*
X95619000Y-74787394D01*
X95619000Y-74564606D01*
X95575536Y-74346100D01*
X95490279Y-74140271D01*
X95366505Y-73955030D01*
X95208970Y-73797495D01*
X95023729Y-73673721D01*
X94817900Y-73588464D01*
X94599394Y-73545000D01*
X94376606Y-73545000D01*
X94158100Y-73588464D01*
X93952271Y-73673721D01*
X93767030Y-73797495D01*
X93609495Y-73955030D01*
X93485721Y-74140271D01*
X93400464Y-74346100D01*
X93357000Y-74564606D01*
X91555000Y-74564606D01*
X91511536Y-74346100D01*
X91426279Y-74140271D01*
X91302505Y-73955030D01*
X91144970Y-73797495D01*
X90959729Y-73673721D01*
X90753900Y-73588464D01*
X90535394Y-73545000D01*
X90312606Y-73545000D01*
X90094100Y-73588464D01*
X89888271Y-73673721D01*
X89703030Y-73797495D01*
X89545495Y-73955030D01*
X89421721Y-74140271D01*
X89336464Y-74346100D01*
X89293000Y-74564606D01*
X86512000Y-74564606D01*
X86512000Y-72567078D01*
X88373000Y-72567078D01*
X88373000Y-72720922D01*
X88403013Y-72871809D01*
X88461887Y-73013942D01*
X88547358Y-73141859D01*
X88656141Y-73250642D01*
X88784058Y-73336113D01*
X88926191Y-73394987D01*
X89077078Y-73425000D01*
X89230922Y-73425000D01*
X89381809Y-73394987D01*
X89523942Y-73336113D01*
X89651859Y-73250642D01*
X89677501Y-73225000D01*
X95742499Y-73225000D01*
X95768141Y-73250642D01*
X95896058Y-73336113D01*
X96038191Y-73394987D01*
X96189078Y-73425000D01*
X96342922Y-73425000D01*
X96493809Y-73394987D01*
X96635942Y-73336113D01*
X96763859Y-73250642D01*
X96872642Y-73141859D01*
X96958113Y-73013942D01*
X97016987Y-72871809D01*
X97047000Y-72720922D01*
X97047000Y-72684657D01*
X97776658Y-71955000D01*
X97964657Y-71955000D01*
X97964657Y-71999000D01*
X97976817Y-72122462D01*
X98012829Y-72241179D01*
X98071310Y-72350589D01*
X98150012Y-72446488D01*
X98179001Y-72470278D01*
X98179000Y-74218157D01*
X97260000Y-74218157D01*
X97185311Y-74225513D01*
X97113492Y-74247299D01*
X97047304Y-74282678D01*
X96989289Y-74330289D01*
X96941678Y-74388304D01*
X96906299Y-74454492D01*
X96884513Y-74526311D01*
X96877157Y-74601000D01*
X96877157Y-77201000D01*
X96884513Y-77275689D01*
X96906299Y-77347508D01*
X96941678Y-77413696D01*
X96989289Y-77471711D01*
X97047304Y-77519322D01*
X97113492Y-77554701D01*
X97185311Y-77576487D01*
X97260000Y-77583843D01*
X100860000Y-77583843D01*
X100934689Y-77576487D01*
X101006508Y-77554701D01*
X101072696Y-77519322D01*
X101130711Y-77471711D01*
X101178322Y-77413696D01*
X101213701Y-77347508D01*
X101235487Y-77275689D01*
X101242843Y-77201000D01*
X101242843Y-74601000D01*
X101235487Y-74526311D01*
X101213701Y-74454492D01*
X101178322Y-74388304D01*
X101130711Y-74330289D01*
X101072696Y-74282678D01*
X101006508Y-74247299D01*
X100934689Y-74225513D01*
X100860000Y-74218157D01*
X99941000Y-74218157D01*
X99941000Y-72470278D01*
X99969988Y-72446488D01*
X100048690Y-72350589D01*
X100102990Y-72249000D01*
X100684428Y-72249000D01*
X100696688Y-72373482D01*
X100732998Y-72493180D01*
X100791963Y-72603494D01*
X100871315Y-72700185D01*
X100968006Y-72779537D01*
X101078320Y-72838502D01*
X101198018Y-72874812D01*
X101322500Y-72887072D01*
X101749250Y-72884000D01*
X101908000Y-72725250D01*
X101908000Y-71501000D01*
X102162000Y-71501000D01*
X102162000Y-72725250D01*
X102320750Y-72884000D01*
X102747500Y-72887072D01*
X102871982Y-72874812D01*
X102991680Y-72838502D01*
X103101994Y-72779537D01*
X103198685Y-72700185D01*
X103278037Y-72603494D01*
X103337002Y-72493180D01*
X103373312Y-72373482D01*
X103385572Y-72249000D01*
X103382500Y-71659750D01*
X103223750Y-71501000D01*
X102162000Y-71501000D01*
X101908000Y-71501000D01*
X100846250Y-71501000D01*
X100687500Y-71659750D01*
X100684428Y-72249000D01*
X100102990Y-72249000D01*
X100107171Y-72241179D01*
X100143183Y-72122462D01*
X100155343Y-71999000D01*
X100155343Y-70749000D01*
X100143183Y-70625538D01*
X100107171Y-70506821D01*
X100102991Y-70499000D01*
X100684428Y-70499000D01*
X100687500Y-71088250D01*
X100846250Y-71247000D01*
X101908000Y-71247000D01*
X101908000Y-70022750D01*
X102162000Y-70022750D01*
X102162000Y-71247000D01*
X103223750Y-71247000D01*
X103382500Y-71088250D01*
X103385572Y-70499000D01*
X103373312Y-70374518D01*
X103337002Y-70254820D01*
X103278037Y-70144506D01*
X103198685Y-70047815D01*
X103101994Y-69968463D01*
X102991680Y-69909498D01*
X102871982Y-69873188D01*
X102747500Y-69860928D01*
X102320750Y-69864000D01*
X102162000Y-70022750D01*
X101908000Y-70022750D01*
X101749250Y-69864000D01*
X101322500Y-69860928D01*
X101198018Y-69873188D01*
X101078320Y-69909498D01*
X100968006Y-69968463D01*
X100871315Y-70047815D01*
X100791963Y-70144506D01*
X100732998Y-70254820D01*
X100696688Y-70374518D01*
X100684428Y-70499000D01*
X100102991Y-70499000D01*
X100048690Y-70397411D01*
X99969988Y-70301512D01*
X99874089Y-70222810D01*
X99764679Y-70164329D01*
X99645962Y-70128317D01*
X99522500Y-70116157D01*
X98597500Y-70116157D01*
X98474038Y-70128317D01*
X98355321Y-70164329D01*
X98245911Y-70222810D01*
X98150012Y-70301512D01*
X98071310Y-70397411D01*
X98012829Y-70506821D01*
X97976817Y-70625538D01*
X97964657Y-70749000D01*
X97964657Y-70793000D01*
X97564536Y-70793000D01*
X97535999Y-70790189D01*
X97507462Y-70793000D01*
X97507460Y-70793000D01*
X97422104Y-70801407D01*
X97312585Y-70834629D01*
X97211652Y-70888579D01*
X97123183Y-70961183D01*
X97104987Y-70983355D01*
X96225343Y-71863000D01*
X96189078Y-71863000D01*
X96038191Y-71893013D01*
X95896058Y-71951887D01*
X95768141Y-72037358D01*
X95742499Y-72063000D01*
X89677501Y-72063000D01*
X89651859Y-72037358D01*
X89523942Y-71951887D01*
X89381809Y-71893013D01*
X89230922Y-71863000D01*
X89077078Y-71863000D01*
X88926191Y-71893013D01*
X88784058Y-71951887D01*
X88656141Y-72037358D01*
X88547358Y-72146141D01*
X88461887Y-72274058D01*
X88403013Y-72416191D01*
X88373000Y-72567078D01*
X86512000Y-72567078D01*
X86512000Y-65619763D01*
X87974167Y-65619763D01*
X87974167Y-65952237D01*
X88039029Y-66278323D01*
X88166262Y-66585489D01*
X88350974Y-66861931D01*
X88586069Y-67097026D01*
X88862511Y-67281738D01*
X89169677Y-67408971D01*
X89495763Y-67473833D01*
X89828237Y-67473833D01*
X90154323Y-67408971D01*
X90461489Y-67281738D01*
X90737931Y-67097026D01*
X90973026Y-66861931D01*
X91157738Y-66585489D01*
X91284971Y-66278323D01*
X91349833Y-65952237D01*
X91349833Y-65619763D01*
X91284971Y-65293677D01*
X91157738Y-64986511D01*
X90973026Y-64710069D01*
X90737931Y-64474974D01*
X90461489Y-64290262D01*
X90154323Y-64163029D01*
X89828237Y-64098167D01*
X89495763Y-64098167D01*
X89169677Y-64163029D01*
X88862511Y-64290262D01*
X88586069Y-64474974D01*
X88350974Y-64710069D01*
X88166262Y-64986511D01*
X88039029Y-65293677D01*
X87974167Y-65619763D01*
X86512000Y-65619763D01*
X86512000Y-58318000D01*
X92812001Y-58318000D01*
X92812000Y-66782059D01*
G37*
X92812000Y-66782059D02*
X92810036Y-66802000D01*
X92817875Y-66881590D01*
X92841090Y-66958121D01*
X92878790Y-67028653D01*
X92929526Y-67090474D01*
X92991347Y-67141210D01*
X93061879Y-67178910D01*
X93138410Y-67202125D01*
X93218000Y-67209964D01*
X93237940Y-67208000D01*
X96500060Y-67208000D01*
X96520000Y-67209964D01*
X96599590Y-67202125D01*
X96676121Y-67178910D01*
X96746653Y-67141210D01*
X96808474Y-67090474D01*
X96859210Y-67028653D01*
X96896910Y-66958121D01*
X96920125Y-66881590D01*
X96926000Y-66821941D01*
X96926000Y-66821940D01*
X96927964Y-66802000D01*
X96926000Y-66782059D01*
X96926000Y-65805940D01*
X96927964Y-65786000D01*
X96920125Y-65706410D01*
X96896910Y-65629879D01*
X96859210Y-65559347D01*
X96808474Y-65497526D01*
X96746653Y-65446790D01*
X96676121Y-65409090D01*
X96599590Y-65385875D01*
X96539941Y-65380000D01*
X96539940Y-65380000D01*
X96520000Y-65378036D01*
X96500059Y-65380000D01*
X94386000Y-65380000D01*
X94386000Y-58318000D01*
X100432000Y-58318000D01*
X100432001Y-65380000D01*
X99079940Y-65380000D01*
X99060000Y-65378036D01*
X99040059Y-65380000D01*
X98980410Y-65385875D01*
X98903879Y-65409090D01*
X98833347Y-65446790D01*
X98771526Y-65497526D01*
X98720790Y-65559347D01*
X98683090Y-65629879D01*
X98659875Y-65706410D01*
X98652036Y-65786000D01*
X98654000Y-65805940D01*
X98654001Y-66782050D01*
X98652036Y-66802000D01*
X98659875Y-66881590D01*
X98683090Y-66958121D01*
X98720790Y-67028653D01*
X98771526Y-67090474D01*
X98833347Y-67141210D01*
X98903879Y-67178910D01*
X98980410Y-67202125D01*
X99040059Y-67208000D01*
X99040060Y-67208000D01*
X99060000Y-67209964D01*
X99079941Y-67208000D01*
X101580059Y-67208000D01*
X101600000Y-67209964D01*
X101619940Y-67208000D01*
X101619941Y-67208000D01*
X101679590Y-67202125D01*
X101756121Y-67178910D01*
X101826653Y-67141210D01*
X101888474Y-67090474D01*
X101939210Y-67028653D01*
X101976910Y-66958121D01*
X102000125Y-66881590D01*
X102007964Y-66802000D01*
X102006000Y-66782059D01*
X102006000Y-62584905D01*
X104617598Y-62584905D01*
X104617598Y-62891095D01*
X104677333Y-63191402D01*
X104794507Y-63474285D01*
X104964617Y-63728873D01*
X105181127Y-63945383D01*
X105435715Y-64115493D01*
X105718598Y-64232667D01*
X106018905Y-64292402D01*
X106325095Y-64292402D01*
X106625402Y-64232667D01*
X106908285Y-64115493D01*
X107162873Y-63945383D01*
X107379383Y-63728873D01*
X107549493Y-63474285D01*
X107666667Y-63191402D01*
X107726402Y-62891095D01*
X107726402Y-62584905D01*
X107666667Y-62284598D01*
X107549493Y-62001715D01*
X107379383Y-61747127D01*
X107162873Y-61530617D01*
X106908285Y-61360507D01*
X106625402Y-61243333D01*
X106325095Y-61183598D01*
X106018905Y-61183598D01*
X105718598Y-61243333D01*
X105435715Y-61360507D01*
X105181127Y-61530617D01*
X104964617Y-61747127D01*
X104794507Y-62001715D01*
X104677333Y-62284598D01*
X104617598Y-62584905D01*
X102006000Y-62584905D01*
X102006000Y-58318000D01*
X109830001Y-58318000D01*
X109830000Y-114402000D01*
X86512000Y-114402000D01*
X86512000Y-112282424D01*
X94107000Y-112282424D01*
X94107000Y-112507576D01*
X94150925Y-112728401D01*
X94237087Y-112936413D01*
X94362174Y-113123620D01*
X94521380Y-113282826D01*
X94708587Y-113407913D01*
X94916599Y-113494075D01*
X95137424Y-113538000D01*
X95362576Y-113538000D01*
X95583401Y-113494075D01*
X95791413Y-113407913D01*
X95978620Y-113282826D01*
X96137826Y-113123620D01*
X96262913Y-112936413D01*
X96349075Y-112728401D01*
X96393000Y-112507576D01*
X96393000Y-112282424D01*
X96647000Y-112282424D01*
X96647000Y-112507576D01*
X96690925Y-112728401D01*
X96777087Y-112936413D01*
X96902174Y-113123620D01*
X97061380Y-113282826D01*
X97248587Y-113407913D01*
X97456599Y-113494075D01*
X97677424Y-113538000D01*
X97902576Y-113538000D01*
X98123401Y-113494075D01*
X98331413Y-113407913D01*
X98518620Y-113282826D01*
X98677826Y-113123620D01*
X98802913Y-112936413D01*
X98889075Y-112728401D01*
X98933000Y-112507576D01*
X98933000Y-112282424D01*
X99187000Y-112282424D01*
X99187000Y-112507576D01*
X99230925Y-112728401D01*
X99317087Y-112936413D01*
X99442174Y-113123620D01*
X99601380Y-113282826D01*
X99788587Y-113407913D01*
X99996599Y-113494075D01*
X100217424Y-113538000D01*
X100442576Y-113538000D01*
X100663401Y-113494075D01*
X100871413Y-113407913D01*
X101058620Y-113282826D01*
X101217826Y-113123620D01*
X101342913Y-112936413D01*
X101429075Y-112728401D01*
X101473000Y-112507576D01*
X101473000Y-112282424D01*
X101727000Y-112282424D01*
X101727000Y-112507576D01*
X101770925Y-112728401D01*
X101857087Y-112936413D01*
X101982174Y-113123620D01*
X102141380Y-113282826D01*
X102328587Y-113407913D01*
X102536599Y-113494075D01*
X102757424Y-113538000D01*
X102982576Y-113538000D01*
X103203401Y-113494075D01*
X103411413Y-113407913D01*
X103598620Y-113282826D01*
X103757826Y-113123620D01*
X103882913Y-112936413D01*
X103969075Y-112728401D01*
X104013000Y-112507576D01*
X104013000Y-112282424D01*
X103969075Y-112061599D01*
X103882913Y-111853587D01*
X103757826Y-111666380D01*
X103598620Y-111507174D01*
X103411413Y-111382087D01*
X103203401Y-111295925D01*
X102982576Y-111252000D01*
X102757424Y-111252000D01*
X102536599Y-111295925D01*
X102328587Y-111382087D01*
X102141380Y-111507174D01*
X101982174Y-111666380D01*
X101857087Y-111853587D01*
X101770925Y-112061599D01*
X101727000Y-112282424D01*
X101473000Y-112282424D01*
X101429075Y-112061599D01*
X101342913Y-111853587D01*
X101217826Y-111666380D01*
X101058620Y-111507174D01*
X100871413Y-111382087D01*
X100663401Y-111295925D01*
X100442576Y-111252000D01*
X100217424Y-111252000D01*
X99996599Y-111295925D01*
X99788587Y-111382087D01*
X99601380Y-111507174D01*
X99442174Y-111666380D01*
X99317087Y-111853587D01*
X99230925Y-112061599D01*
X99187000Y-112282424D01*
X98933000Y-112282424D01*
X98889075Y-112061599D01*
X98802913Y-111853587D01*
X98677826Y-111666380D01*
X98518620Y-111507174D01*
X98331413Y-111382087D01*
X98123401Y-111295925D01*
X97902576Y-111252000D01*
X97677424Y-111252000D01*
X97456599Y-111295925D01*
X97248587Y-111382087D01*
X97061380Y-111507174D01*
X96902174Y-111666380D01*
X96777087Y-111853587D01*
X96690925Y-112061599D01*
X96647000Y-112282424D01*
X96393000Y-112282424D01*
X96349075Y-112061599D01*
X96262913Y-111853587D01*
X96137826Y-111666380D01*
X95978620Y-111507174D01*
X95791413Y-111382087D01*
X95583401Y-111295925D01*
X95362576Y-111252000D01*
X95137424Y-111252000D01*
X94916599Y-111295925D01*
X94708587Y-111382087D01*
X94521380Y-111507174D01*
X94362174Y-111666380D01*
X94237087Y-111853587D01*
X94150925Y-112061599D01*
X94107000Y-112282424D01*
X86512000Y-112282424D01*
X86512000Y-109742424D01*
X94107000Y-109742424D01*
X94107000Y-109967576D01*
X94150925Y-110188401D01*
X94237087Y-110396413D01*
X94362174Y-110583620D01*
X94521380Y-110742826D01*
X94708587Y-110867913D01*
X94916599Y-110954075D01*
X95137424Y-110998000D01*
X95362576Y-110998000D01*
X95583401Y-110954075D01*
X95791413Y-110867913D01*
X95978620Y-110742826D01*
X96137826Y-110583620D01*
X96262913Y-110396413D01*
X96349075Y-110188401D01*
X96393000Y-109967576D01*
X96393000Y-109742424D01*
X96647000Y-109742424D01*
X96647000Y-109967576D01*
X96690925Y-110188401D01*
X96777087Y-110396413D01*
X96902174Y-110583620D01*
X97061380Y-110742826D01*
X97248587Y-110867913D01*
X97456599Y-110954075D01*
X97677424Y-110998000D01*
X97902576Y-110998000D01*
X98123401Y-110954075D01*
X98331413Y-110867913D01*
X98518620Y-110742826D01*
X98677826Y-110583620D01*
X98802913Y-110396413D01*
X98889075Y-110188401D01*
X98933000Y-109967576D01*
X98933000Y-109742424D01*
X99187000Y-109742424D01*
X99187000Y-109967576D01*
X99230925Y-110188401D01*
X99317087Y-110396413D01*
X99442174Y-110583620D01*
X99601380Y-110742826D01*
X99788587Y-110867913D01*
X99996599Y-110954075D01*
X100217424Y-110998000D01*
X100442576Y-110998000D01*
X100663401Y-110954075D01*
X100871413Y-110867913D01*
X101058620Y-110742826D01*
X101184446Y-110617000D01*
X101469928Y-110617000D01*
X101482188Y-110741482D01*
X101518498Y-110861180D01*
X101577463Y-110971494D01*
X101656815Y-111068185D01*
X101753506Y-111147537D01*
X101863820Y-111206502D01*
X101983518Y-111242812D01*
X102108000Y-111255072D01*
X102584250Y-111252000D01*
X102743000Y-111093250D01*
X102743000Y-109982000D01*
X102997000Y-109982000D01*
X102997000Y-111093250D01*
X103155750Y-111252000D01*
X103632000Y-111255072D01*
X103756482Y-111242812D01*
X103876180Y-111206502D01*
X103986494Y-111147537D01*
X104083185Y-111068185D01*
X104162537Y-110971494D01*
X104221502Y-110861180D01*
X104257812Y-110741482D01*
X104270072Y-110617000D01*
X104267000Y-110140750D01*
X104108250Y-109982000D01*
X102997000Y-109982000D01*
X102743000Y-109982000D01*
X101631750Y-109982000D01*
X101473000Y-110140750D01*
X101469928Y-110617000D01*
X101184446Y-110617000D01*
X101217826Y-110583620D01*
X101342913Y-110396413D01*
X101429075Y-110188401D01*
X101473000Y-109967576D01*
X101473000Y-109742424D01*
X101429075Y-109521599D01*
X101342913Y-109313587D01*
X101217826Y-109126380D01*
X101184446Y-109093000D01*
X101469928Y-109093000D01*
X101473000Y-109569250D01*
X101631750Y-109728000D01*
X102743000Y-109728000D01*
X102743000Y-108616750D01*
X102997000Y-108616750D01*
X102997000Y-109728000D01*
X104108250Y-109728000D01*
X104267000Y-109569250D01*
X104270072Y-109093000D01*
X104257812Y-108968518D01*
X104221502Y-108848820D01*
X104162537Y-108738506D01*
X104083185Y-108641815D01*
X103986494Y-108562463D01*
X103876180Y-108503498D01*
X103756482Y-108467188D01*
X103632000Y-108454928D01*
X103155750Y-108458000D01*
X102997000Y-108616750D01*
X102743000Y-108616750D01*
X102584250Y-108458000D01*
X102108000Y-108454928D01*
X101983518Y-108467188D01*
X101863820Y-108503498D01*
X101753506Y-108562463D01*
X101656815Y-108641815D01*
X101577463Y-108738506D01*
X101518498Y-108848820D01*
X101482188Y-108968518D01*
X101469928Y-109093000D01*
X101184446Y-109093000D01*
X101058620Y-108967174D01*
X100871413Y-108842087D01*
X100663401Y-108755925D01*
X100442576Y-108712000D01*
X100217424Y-108712000D01*
X99996599Y-108755925D01*
X99788587Y-108842087D01*
X99601380Y-108967174D01*
X99442174Y-109126380D01*
X99317087Y-109313587D01*
X99230925Y-109521599D01*
X99187000Y-109742424D01*
X98933000Y-109742424D01*
X98889075Y-109521599D01*
X98802913Y-109313587D01*
X98677826Y-109126380D01*
X98518620Y-108967174D01*
X98331413Y-108842087D01*
X98123401Y-108755925D01*
X97902576Y-108712000D01*
X97677424Y-108712000D01*
X97456599Y-108755925D01*
X97248587Y-108842087D01*
X97061380Y-108967174D01*
X96902174Y-109126380D01*
X96777087Y-109313587D01*
X96690925Y-109521599D01*
X96647000Y-109742424D01*
X96393000Y-109742424D01*
X96349075Y-109521599D01*
X96262913Y-109313587D01*
X96137826Y-109126380D01*
X95978620Y-108967174D01*
X95791413Y-108842087D01*
X95583401Y-108755925D01*
X95362576Y-108712000D01*
X95137424Y-108712000D01*
X94916599Y-108755925D01*
X94708587Y-108842087D01*
X94521380Y-108967174D01*
X94362174Y-109126380D01*
X94237087Y-109313587D01*
X94150925Y-109521599D01*
X94107000Y-109742424D01*
X86512000Y-109742424D01*
X86512000Y-106568606D01*
X90563000Y-106568606D01*
X90563000Y-106791394D01*
X90606464Y-107009900D01*
X90691721Y-107215729D01*
X90815495Y-107400970D01*
X90973030Y-107558505D01*
X91158271Y-107682279D01*
X91364100Y-107767536D01*
X91582606Y-107811000D01*
X91805394Y-107811000D01*
X92023900Y-107767536D01*
X92229729Y-107682279D01*
X92414970Y-107558505D01*
X92572505Y-107400970D01*
X92696279Y-107215729D01*
X92781536Y-107009900D01*
X92825000Y-106791394D01*
X92825000Y-106568606D01*
X94119000Y-106568606D01*
X94119000Y-106791394D01*
X94162464Y-107009900D01*
X94247721Y-107215729D01*
X94371495Y-107400970D01*
X94529030Y-107558505D01*
X94714271Y-107682279D01*
X94920100Y-107767536D01*
X95138606Y-107811000D01*
X95361394Y-107811000D01*
X95579900Y-107767536D01*
X95785729Y-107682279D01*
X95970970Y-107558505D01*
X96128505Y-107400970D01*
X96252279Y-107215729D01*
X96337536Y-107009900D01*
X96381000Y-106791394D01*
X96381000Y-106568606D01*
X96367553Y-106501000D01*
X96621928Y-106501000D01*
X96634188Y-106625482D01*
X96670498Y-106745180D01*
X96729463Y-106855494D01*
X96808815Y-106952185D01*
X96905506Y-107031537D01*
X97015820Y-107090502D01*
X97135518Y-107126812D01*
X97260000Y-107139072D01*
X98774250Y-107136000D01*
X98933000Y-106977250D01*
X98933000Y-105328000D01*
X99187000Y-105328000D01*
X99187000Y-106977250D01*
X99345750Y-107136000D01*
X100860000Y-107139072D01*
X100984482Y-107126812D01*
X101104180Y-107090502D01*
X101214494Y-107031537D01*
X101311185Y-106952185D01*
X101390537Y-106855494D01*
X101449502Y-106745180D01*
X101485812Y-106625482D01*
X101498072Y-106501000D01*
X101495969Y-105806606D01*
X101739000Y-105806606D01*
X101739000Y-106029394D01*
X101782464Y-106247900D01*
X101867721Y-106453729D01*
X101991495Y-106638970D01*
X102149030Y-106796505D01*
X102334271Y-106920279D01*
X102540100Y-107005536D01*
X102758606Y-107049000D01*
X102981394Y-107049000D01*
X103199900Y-107005536D01*
X103405729Y-106920279D01*
X103590970Y-106796505D01*
X103612376Y-106775099D01*
X105574655Y-106775099D01*
X105574655Y-107092901D01*
X105636655Y-107404595D01*
X105758272Y-107698205D01*
X105934833Y-107962447D01*
X106159553Y-108187167D01*
X106423795Y-108363728D01*
X106717405Y-108485345D01*
X107029099Y-108547345D01*
X107346901Y-108547345D01*
X107658595Y-108485345D01*
X107952205Y-108363728D01*
X108216447Y-108187167D01*
X108441167Y-107962447D01*
X108617728Y-107698205D01*
X108739345Y-107404595D01*
X108801345Y-107092901D01*
X108801345Y-106775099D01*
X108739345Y-106463405D01*
X108617728Y-106169795D01*
X108441167Y-105905553D01*
X108216447Y-105680833D01*
X107952205Y-105504272D01*
X107658595Y-105382655D01*
X107346901Y-105320655D01*
X107029099Y-105320655D01*
X106717405Y-105382655D01*
X106423795Y-105504272D01*
X106159553Y-105680833D01*
X105934833Y-105905553D01*
X105758272Y-106169795D01*
X105636655Y-106463405D01*
X105574655Y-106775099D01*
X103612376Y-106775099D01*
X103748505Y-106638970D01*
X103872279Y-106453729D01*
X103957536Y-106247900D01*
X104001000Y-106029394D01*
X104001000Y-105806606D01*
X103957536Y-105588100D01*
X103872279Y-105382271D01*
X103748505Y-105197030D01*
X103590970Y-105039495D01*
X103405729Y-104915721D01*
X103199900Y-104830464D01*
X102981394Y-104787000D01*
X102758606Y-104787000D01*
X102540100Y-104830464D01*
X102334271Y-104915721D01*
X102149030Y-105039495D01*
X101991495Y-105197030D01*
X101867721Y-105382271D01*
X101782464Y-105588100D01*
X101739000Y-105806606D01*
X101495969Y-105806606D01*
X101495000Y-105486750D01*
X101336250Y-105328000D01*
X99187000Y-105328000D01*
X98933000Y-105328000D01*
X96783750Y-105328000D01*
X96625000Y-105486750D01*
X96621928Y-106501000D01*
X96367553Y-106501000D01*
X96337536Y-106350100D01*
X96252279Y-106144271D01*
X96128505Y-105959030D01*
X95970970Y-105801495D01*
X95785729Y-105677721D01*
X95579900Y-105592464D01*
X95361394Y-105549000D01*
X95138606Y-105549000D01*
X94920100Y-105592464D01*
X94714271Y-105677721D01*
X94529030Y-105801495D01*
X94371495Y-105959030D01*
X94247721Y-106144271D01*
X94162464Y-106350100D01*
X94119000Y-106568606D01*
X92825000Y-106568606D01*
X92781536Y-106350100D01*
X92696279Y-106144271D01*
X92572505Y-105959030D01*
X92414970Y-105801495D01*
X92229729Y-105677721D01*
X92023900Y-105592464D01*
X91805394Y-105549000D01*
X91582606Y-105549000D01*
X91364100Y-105592464D01*
X91158271Y-105677721D01*
X90973030Y-105801495D01*
X90815495Y-105959030D01*
X90691721Y-106144271D01*
X90606464Y-106350100D01*
X90563000Y-106568606D01*
X86512000Y-106568606D01*
X86512000Y-104244426D01*
X87381348Y-104244426D01*
X87381348Y-104543574D01*
X87439709Y-104836974D01*
X87554188Y-105113351D01*
X87720386Y-105362084D01*
X87931916Y-105573614D01*
X88180649Y-105739812D01*
X88457026Y-105854291D01*
X88750426Y-105912652D01*
X89049574Y-105912652D01*
X89342974Y-105854291D01*
X89619351Y-105739812D01*
X89868084Y-105573614D01*
X90079614Y-105362084D01*
X90245812Y-105113351D01*
X90360291Y-104836974D01*
X90418652Y-104543574D01*
X90418652Y-104244426D01*
X90360291Y-103951026D01*
X90339570Y-103901000D01*
X96621928Y-103901000D01*
X96625000Y-104915250D01*
X96783750Y-105074000D01*
X98933000Y-105074000D01*
X98933000Y-103424750D01*
X99187000Y-103424750D01*
X99187000Y-105074000D01*
X101336250Y-105074000D01*
X101495000Y-104915250D01*
X101498072Y-103901000D01*
X101485812Y-103776518D01*
X101449502Y-103656820D01*
X101390537Y-103546506D01*
X101311185Y-103449815D01*
X101214494Y-103370463D01*
X101104180Y-103311498D01*
X100984482Y-103275188D01*
X100860000Y-103262928D01*
X99345750Y-103266000D01*
X99187000Y-103424750D01*
X98933000Y-103424750D01*
X98774250Y-103266000D01*
X97260000Y-103262928D01*
X97135518Y-103275188D01*
X97015820Y-103311498D01*
X96905506Y-103370463D01*
X96808815Y-103449815D01*
X96729463Y-103546506D01*
X96670498Y-103656820D01*
X96634188Y-103776518D01*
X96621928Y-103901000D01*
X90339570Y-103901000D01*
X90245812Y-103674649D01*
X90079614Y-103425916D01*
X89868084Y-103214386D01*
X89619351Y-103048188D01*
X89342974Y-102933709D01*
X89049574Y-102875348D01*
X88750426Y-102875348D01*
X88457026Y-102933709D01*
X88180649Y-103048188D01*
X87931916Y-103214386D01*
X87720386Y-103425916D01*
X87554188Y-103674649D01*
X87439709Y-103951026D01*
X87381348Y-104244426D01*
X86512000Y-104244426D01*
X86512000Y-100218606D01*
X98691000Y-100218606D01*
X98691000Y-100441394D01*
X98734464Y-100659900D01*
X98819721Y-100865729D01*
X98943495Y-101050970D01*
X99101030Y-101208505D01*
X99286271Y-101332279D01*
X99492100Y-101417536D01*
X99710606Y-101461000D01*
X99933394Y-101461000D01*
X100151900Y-101417536D01*
X100357729Y-101332279D01*
X100542970Y-101208505D01*
X100700505Y-101050970D01*
X100824279Y-100865729D01*
X100909536Y-100659900D01*
X100953000Y-100441394D01*
X100953000Y-100218606D01*
X100909536Y-100000100D01*
X100824279Y-99794271D01*
X100700505Y-99609030D01*
X100542970Y-99451495D01*
X100357729Y-99327721D01*
X100151900Y-99242464D01*
X99933394Y-99199000D01*
X99710606Y-99199000D01*
X99492100Y-99242464D01*
X99286271Y-99327721D01*
X99101030Y-99451495D01*
X98943495Y-99609030D01*
X98819721Y-99794271D01*
X98734464Y-100000100D01*
X98691000Y-100218606D01*
X86512000Y-100218606D01*
X86512000Y-94630606D01*
X97675000Y-94630606D01*
X97675000Y-94853394D01*
X97718464Y-95071900D01*
X97803721Y-95277729D01*
X97927495Y-95462970D01*
X98085030Y-95620505D01*
X98270271Y-95744279D01*
X98476100Y-95829536D01*
X98694606Y-95873000D01*
X98917394Y-95873000D01*
X99135900Y-95829536D01*
X99341729Y-95744279D01*
X99526970Y-95620505D01*
X99684505Y-95462970D01*
X99808279Y-95277729D01*
X99893536Y-95071900D01*
X99937000Y-94853394D01*
X99937000Y-94630606D01*
X99893536Y-94412100D01*
X99808279Y-94206271D01*
X99684505Y-94021030D01*
X99526970Y-93863495D01*
X99341729Y-93739721D01*
X99135900Y-93654464D01*
X98917394Y-93611000D01*
X98694606Y-93611000D01*
X98476100Y-93654464D01*
X98270271Y-93739721D01*
X98085030Y-93863495D01*
X97927495Y-94021030D01*
X97803721Y-94206271D01*
X97718464Y-94412100D01*
X97675000Y-94630606D01*
X86512000Y-94630606D01*
X86512000Y-91953757D01*
X88939000Y-91953757D01*
X88939000Y-92196243D01*
X88986307Y-92434069D01*
X89079102Y-92658097D01*
X89213820Y-92859717D01*
X89385283Y-93031180D01*
X89586903Y-93165898D01*
X89810931Y-93258693D01*
X90048757Y-93306000D01*
X90291243Y-93306000D01*
X90529069Y-93258693D01*
X90753097Y-93165898D01*
X90954717Y-93031180D01*
X91126180Y-92859717D01*
X91260898Y-92658097D01*
X91353693Y-92434069D01*
X91401000Y-92196243D01*
X91401000Y-91953757D01*
X91353693Y-91715931D01*
X91260898Y-91491903D01*
X91126180Y-91290283D01*
X90954717Y-91118820D01*
X90753097Y-90984102D01*
X90529069Y-90891307D01*
X90291243Y-90844000D01*
X90048757Y-90844000D01*
X89810931Y-90891307D01*
X89586903Y-90984102D01*
X89385283Y-91118820D01*
X89213820Y-91290283D01*
X89079102Y-91491903D01*
X88986307Y-91715931D01*
X88939000Y-91953757D01*
X86512000Y-91953757D01*
X86512000Y-89413757D01*
X88939000Y-89413757D01*
X88939000Y-89656243D01*
X88986307Y-89894069D01*
X89079102Y-90118097D01*
X89213820Y-90319717D01*
X89385283Y-90491180D01*
X89586903Y-90625898D01*
X89810931Y-90718693D01*
X90048757Y-90766000D01*
X90291243Y-90766000D01*
X90529069Y-90718693D01*
X90753097Y-90625898D01*
X90954717Y-90491180D01*
X91126180Y-90319717D01*
X91260898Y-90118097D01*
X91271261Y-90093078D01*
X95993346Y-90093078D01*
X95993346Y-90246922D01*
X96023359Y-90397809D01*
X96082233Y-90539942D01*
X96167704Y-90667859D01*
X96276487Y-90776642D01*
X96404404Y-90862113D01*
X96546537Y-90920987D01*
X96697424Y-90951000D01*
X96851268Y-90951000D01*
X97002155Y-90920987D01*
X97144288Y-90862113D01*
X97272205Y-90776642D01*
X97297847Y-90751000D01*
X101076499Y-90751000D01*
X101102141Y-90776642D01*
X101230058Y-90862113D01*
X101372191Y-90920987D01*
X101523078Y-90951000D01*
X101676922Y-90951000D01*
X101827809Y-90920987D01*
X101969942Y-90862113D01*
X102097859Y-90776642D01*
X102206642Y-90667859D01*
X102292113Y-90539942D01*
X102350987Y-90397809D01*
X102381000Y-90246922D01*
X102381000Y-90093078D01*
X102350987Y-89942191D01*
X102292113Y-89800058D01*
X102206642Y-89672141D01*
X102097859Y-89563358D01*
X101969942Y-89477887D01*
X101827809Y-89419013D01*
X101676922Y-89389000D01*
X101523078Y-89389000D01*
X101372191Y-89419013D01*
X101230058Y-89477887D01*
X101102141Y-89563358D01*
X101076499Y-89589000D01*
X97297847Y-89589000D01*
X97272205Y-89563358D01*
X97144288Y-89477887D01*
X97002155Y-89419013D01*
X96851268Y-89389000D01*
X96697424Y-89389000D01*
X96546537Y-89419013D01*
X96404404Y-89477887D01*
X96276487Y-89563358D01*
X96167704Y-89672141D01*
X96082233Y-89800058D01*
X96023359Y-89942191D01*
X95993346Y-90093078D01*
X91271261Y-90093078D01*
X91353693Y-89894069D01*
X91401000Y-89656243D01*
X91401000Y-89413757D01*
X91353693Y-89175931D01*
X91260898Y-88951903D01*
X91126180Y-88750283D01*
X90954717Y-88578820D01*
X90753097Y-88444102D01*
X90529069Y-88351307D01*
X90291243Y-88304000D01*
X90048757Y-88304000D01*
X89810931Y-88351307D01*
X89586903Y-88444102D01*
X89385283Y-88578820D01*
X89213820Y-88750283D01*
X89079102Y-88951903D01*
X88986307Y-89175931D01*
X88939000Y-89413757D01*
X86512000Y-89413757D01*
X86512000Y-84811890D01*
X88728524Y-84811890D01*
X88773175Y-84959099D01*
X88898359Y-85221920D01*
X89072412Y-85455269D01*
X89288645Y-85650178D01*
X89538748Y-85799157D01*
X89701168Y-85856772D01*
X89586903Y-85904102D01*
X89385283Y-86038820D01*
X89213820Y-86210283D01*
X89079102Y-86411903D01*
X88986307Y-86635931D01*
X88939000Y-86873757D01*
X88939000Y-87116243D01*
X88986307Y-87354069D01*
X89079102Y-87578097D01*
X89213820Y-87779717D01*
X89385283Y-87951180D01*
X89586903Y-88085898D01*
X89810931Y-88178693D01*
X90048757Y-88226000D01*
X90291243Y-88226000D01*
X90529069Y-88178693D01*
X90753097Y-88085898D01*
X90954717Y-87951180D01*
X91126180Y-87779717D01*
X91260898Y-87578097D01*
X91353693Y-87354069D01*
X91401000Y-87116243D01*
X91401000Y-86873757D01*
X91353693Y-86635931D01*
X91260898Y-86411903D01*
X91126180Y-86210283D01*
X90954717Y-86038820D01*
X90753097Y-85904102D01*
X90638832Y-85856772D01*
X90801252Y-85799157D01*
X91051355Y-85650178D01*
X91267588Y-85455269D01*
X91441641Y-85221920D01*
X91566825Y-84959099D01*
X91611476Y-84811890D01*
X91490155Y-84582000D01*
X90297000Y-84582000D01*
X90297000Y-84602000D01*
X90043000Y-84602000D01*
X90043000Y-84582000D01*
X88849845Y-84582000D01*
X88728524Y-84811890D01*
X86512000Y-84811890D01*
X86512000Y-84098110D01*
X88728524Y-84098110D01*
X88849845Y-84328000D01*
X90043000Y-84328000D01*
X90043000Y-84308000D01*
X90297000Y-84308000D01*
X90297000Y-84328000D01*
X91490155Y-84328000D01*
X91611476Y-84098110D01*
X91566825Y-83950901D01*
X91441641Y-83688080D01*
X91267588Y-83454731D01*
X91051355Y-83259822D01*
X90863367Y-83147843D01*
X91020000Y-83147843D01*
X91094689Y-83140487D01*
X91166508Y-83118701D01*
X91232696Y-83083322D01*
X91290711Y-83035711D01*
X91338322Y-82977696D01*
X91373701Y-82911508D01*
X91395487Y-82839689D01*
X91402843Y-82765000D01*
X91402843Y-81065000D01*
X91395487Y-80990311D01*
X91373701Y-80918492D01*
X91338322Y-80852304D01*
X91290711Y-80794289D01*
X91232696Y-80746678D01*
X91166508Y-80711299D01*
X91094689Y-80689513D01*
X91020000Y-80682157D01*
X89320000Y-80682157D01*
X89245311Y-80689513D01*
X89173492Y-80711299D01*
X89107304Y-80746678D01*
X89049289Y-80794289D01*
X89001678Y-80852304D01*
X88966299Y-80918492D01*
X88944513Y-80990311D01*
X88937157Y-81065000D01*
X88937157Y-82765000D01*
X88944513Y-82839689D01*
X88966299Y-82911508D01*
X89001678Y-82977696D01*
X89049289Y-83035711D01*
X89107304Y-83083322D01*
X89173492Y-83118701D01*
X89245311Y-83140487D01*
X89320000Y-83147843D01*
X89476633Y-83147843D01*
X89288645Y-83259822D01*
X89072412Y-83454731D01*
X88898359Y-83688080D01*
X88773175Y-83950901D01*
X88728524Y-84098110D01*
X86512000Y-84098110D01*
X86512000Y-74564606D01*
X89293000Y-74564606D01*
X89293000Y-74787394D01*
X89336464Y-75005900D01*
X89421721Y-75211729D01*
X89545495Y-75396970D01*
X89703030Y-75554505D01*
X89888271Y-75678279D01*
X90094100Y-75763536D01*
X90312606Y-75807000D01*
X90535394Y-75807000D01*
X90753900Y-75763536D01*
X90959729Y-75678279D01*
X91144970Y-75554505D01*
X91302505Y-75396970D01*
X91426279Y-75211729D01*
X91511536Y-75005900D01*
X91555000Y-74787394D01*
X91555000Y-74564606D01*
X93357000Y-74564606D01*
X93357000Y-74787394D01*
X93400464Y-75005900D01*
X93485721Y-75211729D01*
X93609495Y-75396970D01*
X93767030Y-75554505D01*
X93952271Y-75678279D01*
X94158100Y-75763536D01*
X94376606Y-75807000D01*
X94599394Y-75807000D01*
X94817900Y-75763536D01*
X95023729Y-75678279D01*
X95208970Y-75554505D01*
X95366505Y-75396970D01*
X95490279Y-75211729D01*
X95575536Y-75005900D01*
X95619000Y-74787394D01*
X95619000Y-74564606D01*
X95575536Y-74346100D01*
X95490279Y-74140271D01*
X95366505Y-73955030D01*
X95208970Y-73797495D01*
X95023729Y-73673721D01*
X94817900Y-73588464D01*
X94599394Y-73545000D01*
X94376606Y-73545000D01*
X94158100Y-73588464D01*
X93952271Y-73673721D01*
X93767030Y-73797495D01*
X93609495Y-73955030D01*
X93485721Y-74140271D01*
X93400464Y-74346100D01*
X93357000Y-74564606D01*
X91555000Y-74564606D01*
X91511536Y-74346100D01*
X91426279Y-74140271D01*
X91302505Y-73955030D01*
X91144970Y-73797495D01*
X90959729Y-73673721D01*
X90753900Y-73588464D01*
X90535394Y-73545000D01*
X90312606Y-73545000D01*
X90094100Y-73588464D01*
X89888271Y-73673721D01*
X89703030Y-73797495D01*
X89545495Y-73955030D01*
X89421721Y-74140271D01*
X89336464Y-74346100D01*
X89293000Y-74564606D01*
X86512000Y-74564606D01*
X86512000Y-72567078D01*
X88373000Y-72567078D01*
X88373000Y-72720922D01*
X88403013Y-72871809D01*
X88461887Y-73013942D01*
X88547358Y-73141859D01*
X88656141Y-73250642D01*
X88784058Y-73336113D01*
X88926191Y-73394987D01*
X89077078Y-73425000D01*
X89230922Y-73425000D01*
X89381809Y-73394987D01*
X89523942Y-73336113D01*
X89651859Y-73250642D01*
X89677501Y-73225000D01*
X95742499Y-73225000D01*
X95768141Y-73250642D01*
X95896058Y-73336113D01*
X96038191Y-73394987D01*
X96189078Y-73425000D01*
X96342922Y-73425000D01*
X96493809Y-73394987D01*
X96635942Y-73336113D01*
X96763859Y-73250642D01*
X96872642Y-73141859D01*
X96958113Y-73013942D01*
X97016987Y-72871809D01*
X97047000Y-72720922D01*
X97047000Y-72684657D01*
X97776658Y-71955000D01*
X97964657Y-71955000D01*
X97964657Y-71999000D01*
X97976817Y-72122462D01*
X98012829Y-72241179D01*
X98071310Y-72350589D01*
X98150012Y-72446488D01*
X98179001Y-72470278D01*
X98179000Y-74218157D01*
X97260000Y-74218157D01*
X97185311Y-74225513D01*
X97113492Y-74247299D01*
X97047304Y-74282678D01*
X96989289Y-74330289D01*
X96941678Y-74388304D01*
X96906299Y-74454492D01*
X96884513Y-74526311D01*
X96877157Y-74601000D01*
X96877157Y-77201000D01*
X96884513Y-77275689D01*
X96906299Y-77347508D01*
X96941678Y-77413696D01*
X96989289Y-77471711D01*
X97047304Y-77519322D01*
X97113492Y-77554701D01*
X97185311Y-77576487D01*
X97260000Y-77583843D01*
X100860000Y-77583843D01*
X100934689Y-77576487D01*
X101006508Y-77554701D01*
X101072696Y-77519322D01*
X101130711Y-77471711D01*
X101178322Y-77413696D01*
X101213701Y-77347508D01*
X101235487Y-77275689D01*
X101242843Y-77201000D01*
X101242843Y-74601000D01*
X101235487Y-74526311D01*
X101213701Y-74454492D01*
X101178322Y-74388304D01*
X101130711Y-74330289D01*
X101072696Y-74282678D01*
X101006508Y-74247299D01*
X100934689Y-74225513D01*
X100860000Y-74218157D01*
X99941000Y-74218157D01*
X99941000Y-72470278D01*
X99969988Y-72446488D01*
X100048690Y-72350589D01*
X100102990Y-72249000D01*
X100684428Y-72249000D01*
X100696688Y-72373482D01*
X100732998Y-72493180D01*
X100791963Y-72603494D01*
X100871315Y-72700185D01*
X100968006Y-72779537D01*
X101078320Y-72838502D01*
X101198018Y-72874812D01*
X101322500Y-72887072D01*
X101749250Y-72884000D01*
X101908000Y-72725250D01*
X101908000Y-71501000D01*
X102162000Y-71501000D01*
X102162000Y-72725250D01*
X102320750Y-72884000D01*
X102747500Y-72887072D01*
X102871982Y-72874812D01*
X102991680Y-72838502D01*
X103101994Y-72779537D01*
X103198685Y-72700185D01*
X103278037Y-72603494D01*
X103337002Y-72493180D01*
X103373312Y-72373482D01*
X103385572Y-72249000D01*
X103382500Y-71659750D01*
X103223750Y-71501000D01*
X102162000Y-71501000D01*
X101908000Y-71501000D01*
X100846250Y-71501000D01*
X100687500Y-71659750D01*
X100684428Y-72249000D01*
X100102990Y-72249000D01*
X100107171Y-72241179D01*
X100143183Y-72122462D01*
X100155343Y-71999000D01*
X100155343Y-70749000D01*
X100143183Y-70625538D01*
X100107171Y-70506821D01*
X100102991Y-70499000D01*
X100684428Y-70499000D01*
X100687500Y-71088250D01*
X100846250Y-71247000D01*
X101908000Y-71247000D01*
X101908000Y-70022750D01*
X102162000Y-70022750D01*
X102162000Y-71247000D01*
X103223750Y-71247000D01*
X103382500Y-71088250D01*
X103385572Y-70499000D01*
X103373312Y-70374518D01*
X103337002Y-70254820D01*
X103278037Y-70144506D01*
X103198685Y-70047815D01*
X103101994Y-69968463D01*
X102991680Y-69909498D01*
X102871982Y-69873188D01*
X102747500Y-69860928D01*
X102320750Y-69864000D01*
X102162000Y-70022750D01*
X101908000Y-70022750D01*
X101749250Y-69864000D01*
X101322500Y-69860928D01*
X101198018Y-69873188D01*
X101078320Y-69909498D01*
X100968006Y-69968463D01*
X100871315Y-70047815D01*
X100791963Y-70144506D01*
X100732998Y-70254820D01*
X100696688Y-70374518D01*
X100684428Y-70499000D01*
X100102991Y-70499000D01*
X100048690Y-70397411D01*
X99969988Y-70301512D01*
X99874089Y-70222810D01*
X99764679Y-70164329D01*
X99645962Y-70128317D01*
X99522500Y-70116157D01*
X98597500Y-70116157D01*
X98474038Y-70128317D01*
X98355321Y-70164329D01*
X98245911Y-70222810D01*
X98150012Y-70301512D01*
X98071310Y-70397411D01*
X98012829Y-70506821D01*
X97976817Y-70625538D01*
X97964657Y-70749000D01*
X97964657Y-70793000D01*
X97564536Y-70793000D01*
X97535999Y-70790189D01*
X97507462Y-70793000D01*
X97507460Y-70793000D01*
X97422104Y-70801407D01*
X97312585Y-70834629D01*
X97211652Y-70888579D01*
X97123183Y-70961183D01*
X97104987Y-70983355D01*
X96225343Y-71863000D01*
X96189078Y-71863000D01*
X96038191Y-71893013D01*
X95896058Y-71951887D01*
X95768141Y-72037358D01*
X95742499Y-72063000D01*
X89677501Y-72063000D01*
X89651859Y-72037358D01*
X89523942Y-71951887D01*
X89381809Y-71893013D01*
X89230922Y-71863000D01*
X89077078Y-71863000D01*
X88926191Y-71893013D01*
X88784058Y-71951887D01*
X88656141Y-72037358D01*
X88547358Y-72146141D01*
X88461887Y-72274058D01*
X88403013Y-72416191D01*
X88373000Y-72567078D01*
X86512000Y-72567078D01*
X86512000Y-65619763D01*
X87974167Y-65619763D01*
X87974167Y-65952237D01*
X88039029Y-66278323D01*
X88166262Y-66585489D01*
X88350974Y-66861931D01*
X88586069Y-67097026D01*
X88862511Y-67281738D01*
X89169677Y-67408971D01*
X89495763Y-67473833D01*
X89828237Y-67473833D01*
X90154323Y-67408971D01*
X90461489Y-67281738D01*
X90737931Y-67097026D01*
X90973026Y-66861931D01*
X91157738Y-66585489D01*
X91284971Y-66278323D01*
X91349833Y-65952237D01*
X91349833Y-65619763D01*
X91284971Y-65293677D01*
X91157738Y-64986511D01*
X90973026Y-64710069D01*
X90737931Y-64474974D01*
X90461489Y-64290262D01*
X90154323Y-64163029D01*
X89828237Y-64098167D01*
X89495763Y-64098167D01*
X89169677Y-64163029D01*
X88862511Y-64290262D01*
X88586069Y-64474974D01*
X88350974Y-64710069D01*
X88166262Y-64986511D01*
X88039029Y-65293677D01*
X87974167Y-65619763D01*
X86512000Y-65619763D01*
X86512000Y-58318000D01*
X92812001Y-58318000D01*
X92812000Y-66782059D01*
%TD*%
M02*
